<svg xmlns="http://www.w3.org/2000/svg" xmlns:xlink="http://www.w3.org/1999/xlink" width="938.13" height="610" viewBox="0 0 938.13 610"><defs><path id="8sdka" d="M-166.42 220.75h681.5v477.3h-681.5z"/><path id="8sdkc" d="M515.08 441.77c-12.39 28.42-31.83 59.96-57.03 89.51-44.49 52.48-105.67 97.68-177.4 127.18-61.59 25.72-136.38 40.46-205.49 39.55-61.36-.4-112.34-12.55-136.34-23.97-11.64-5.5-16.73-10.4-15.5-14.2 3.24-10.35 47.71-10.58 110.12-19.35 62.36-8.25 142.68-25.01 216.16-57.14 67.41-27.8 130-69.23 172.25-106.58 42.6-37.12 64.85-70.15 60.18-76.02-5.88-7.89-45.7 17.57-111.65 49.2-68.1 32.94-151.6 61.05-229.85 75.03C82.6 535.65 35.61 539.54-2.44 540.32c-63.26.82-106.44-6.3-138.69-29.6-9.16-6.71-19.07-16.35-23.28-34.6-5.18-22.16-.15-52.12 12.84-89.2 19.73-56.62 50.4-110.83 79.26-166.18l.56.27c-28.75 55.36-59.27 109.6-78.87 166.2-28.48 79.19-10.57 108.29 10.38 123.26 31.93 23.05 74.83 30.1 137.75 29.28 38.04-.8 85.03-4.64 143-15.34 78.3-13.99 161.8-42.16 229.92-75.15 66.4-31.89 106.54-57.54 112.59-49.47.56.74.78 1.75.7 3-.76 10.57-24.19 42.71-65.84 78.3-41.4 35.7-101.05 74.86-167.95 102.74-73.25 32.05-153.34 48.83-215.5 57.1-62.21 8.75-106.52 8.98-109.66 19.1-1.16 3.64 3.81 8.36 15.13 13.68 24.45 11.38 75.72 23.9 138.69 23.67 62.67.27 137.05-12.2 201.73-39.41 79.22-32.65 134.77-79.33 171.12-120.17 36.62-41.2 54.02-76.56 62.59-95.56.36-.15.69-.3 1.05-.47"/><path id="8sdkd" d="M515.5 437.2c-7.44 17.01-24.71 53.18-61.19 95.63-46.5 54.12-109.35 99.27-181.36 127.7-60.27 24.2-132.5 37.58-198.56 36.3-59.05-.76-108.17-12.7-131.44-24.05-12.08-5.87-17.16-11.13-15.49-15.25 4.14-10.79 49.05-11.79 111.47-21.44 62.39-9.17 142.26-27 215.05-60.06a701.03 701.03 0 0 0 46.17-22.44c102.8-52.66 180.3-138.42 169.54-147.86-6.6-6.65-46.6 18.3-111.98 48.54-67.87 31.7-150.42 58.23-227.2 71.18-58.56 10.17-105.53 13.52-143.56 13.94-60.76.2-102.14-6.74-133.72-28.6-7.47-5.25-17.92-14.76-21.53-34.06-4.23-22.2 1.97-51.94 16.03-88.65 21.46-56.3 53.3-110.27 82.76-165.57.18.07.36.16.54.26C-98.3 278.1-130 332.09-151.34 388.38c-36.1 90.7-5.72 114.97 5.45 122.17 31.23 21.6 72.37 28.46 132.79 28.3 38.02-.44 85-3.8 143.57-13.98 76.82-12.95 159.39-39.52 227.3-71.28 65.77-30.46 106.1-55.62 112.9-48.8.71.7 1.02 1.74.93 3.13-.43 18.49-75 96.76-171.05 146.1a711.63 711.63 0 0 1-46.2 22.49c-71.66 32.2-151.52 51.09-214.05 60-70.42 10.02-107.92 11.84-111.4 21.22-1.6 3.95 3.37 9.06 15.14 14.74 23.76 11.35 72.45 23.5 132.77 23.83 60.07.73 131.77-10.38 195.85-36.27 81.11-32.07 138.8-79.9 176.57-122.24 38.08-42.75 56.26-80.04 65.23-100.12l1.03-.47"/><path id="8sdke" d="M515.87 432.62c-7.41 16.5-24.8 55.24-64.35 100.68-39.15 45.03-100.48 96.75-186.24 129.22-58.91 22.7-128.58 34.76-191.62 33.16-57.58-1.18-103.68-12.72-126.61-24.09-12.56-6.25-17.62-11.9-15.47-16.4 4.42-10.05 43-12.55 114.36-23.77 62.64-9.91 141.28-29.77 211.63-62.5a677.18 677.18 0 0 0 38.88-19.3c98.24-50.7 172.7-131.7 160.94-139.2-7.62-5.9-49.38 20.43-111.07 47.2-61.51 27.44-142.92 55.33-225.82 68.14-59.25 9.66-106.22 12.48-144.27 12.54-58.17-.4-97.71-7.13-128.63-27.5-28.06-18.8-26.15-61.42-.56-121.6 15.28-38.84 48.15-96.58 86.27-164.98l.56.27c-37.97 68.44-70.7 126.2-85.9 165.04-32.55 75.94-19.2 108.25.47 121.02 30.57 20.1 69.9 26.78 127.74 27.18 38.02-.05 85.01-2.88 144.28-12.53 75.32-12 156.95-37 224.64-67.56 65.12-29.1 105.66-53.77 113.25-48.18 5.01 3.43-5.57 21.85-36.75 52.02-29.6 28.72-75.81 62.64-124.75 88.59a689.93 689.93 0 0 1-38.9 19.31c-68.34 32.3-147.13 51.94-210.08 62.31C-15.03 642.66-62.1 644.35-67 655.41c-2.02 4.25 3.08 9.9 15.16 15.87 22.77 11.26 68.61 22.67 125.88 23.8 62.84 1.58 132.26-10.44 190.94-33.05 85.46-32.34 146.57-83.83 185.63-128.65 39.45-45.26 56.81-83.83 64.23-100.29.36-.14.69-.3 1.03-.47"/><path id="8sdkf" d="M516.22 428.06c-5.7 12.25-22.17 52.33-63.15 100.47-40.45 47.66-105.4 103.38-195.5 135.9-62.75 23.27-129.85 31.8-185.2 30.08-55.61-1.47-99.45-13.17-121.11-24-13-6.55-18.19-12.82-15.6-17.67 6.01-11.7 53.51-14.23 116.34-26.09 62.84-11.22 141.02-31.8 208.62-64.79a696.7 696.7 0 0 0 32.14-16.27c81.13-42.34 147.47-106.42 153.2-125.64.94-2.77.64-4.49-.89-5.25-8.09-4.2-49.57 20.17-112.7 47.24-67.44 29.36-148.1 52.84-221.89 63.88-60.07 9.17-107.11 11.44-145.17 11.1-55.48-.99-93.1-7.47-123.35-26.24-7.13-4.46-16.13-14.01-17.97-32.9-2.26-22.3 6.2-51.51 22.32-87.51 13.23-31.89 48.83-92.84 89.84-164.44.17.1.37.2.55.27-40.83 71.64-76.29 132.59-89.46 164.5-39.21 84.1-17.51 112.14-4.5 119.79 29.92 18.55 67.32 24.98 122.5 25.96 38.07.35 85.1-1.91 145.2-11.1 81-11.76 161.6-37.98 222.98-64.45C395 435.1 437.37 409.08 446 413.87c1.64.8 1.99 2.73.99 5.7-6.02 16.55-55.56 72.8-153.8 126.54a699.14 699.14 0 0 1-32.2 16.3c-67.42 32.93-145.4 53.5-208.06 64.72-62.66 11.9-109.98 14.42-115.87 25.93-2.5 4.67 2.63 10.75 15.3 17.15 21.58 10.73 65.22 22.33 120.55 23.72 55.1 1.68 121.91-6.85 184.39-30 89.77-32.4 154.54-87.87 194.86-135.33 40.89-47.94 57.32-87.86 63.02-100.05.37-.16.7-.32 1.04-.49"/><path id="8sdkg" d="M516.54 423.5c-5.3 12.28-24.85 59.25-73.44 113.8-52.57 58.9-120.53 103.73-193.26 128.98-61.57 21.78-125.9 29.25-178.72 27.19-53.06-1.86-94.64-13.21-115.8-24-13.54-7-18.74-13.73-15.6-18.98 6.94-12.17 54.55-15.58 116.93-28.28 62.4-12.08 139.57-33.47 206.07-66.9 9-4.4 17.82-8.93 26.4-13.6 77.24-40.68 140.6-101.13 145.09-118.26.74-2.52.27-4.01-1.42-4.56-8.9-3.1-50.56 20.83-113.04 46.66-67.1 28.21-146.84 50.27-219.24 60.35-60.82 8.75-107.83 10.44-145.85 9.71-52.9-1.51-88.7-7.8-118.38-24.92-4.55-2.65-14.12-10.63-15.94-28.74-2.02-18.14 3.72-46.4 25.25-90.46 14.29-31.9 51.7-92.8 93.42-163.87.2.07.38.18.56.27-41.58 71.12-78.82 132.03-93.03 163.95-17.04 35.64-26.53 64.55-25.29 86.8 1.11 20.9 11.46 29.24 15.76 31.74 29.37 16.9 64.95 23.15 117.57 24.67 38.03.72 85.04-.97 145.9-9.72 78.87-10.62 158.45-35.16 219.56-60.6 61.27-24.74 104.1-50.4 113.62-46.78 1.88.6 2.4 2.27 1.6 5-4.55 17.5-68.16 78.32-145.72 119.18a676.2 676.2 0 0 1-26.4 13.61C196.76 589.12 119.8 610.51 57.6 622.6-4.62 635.31-52.07 638.7-58.88 650.7c-3.03 5.1 2.08 11.66 15.32 18.47 21.5 11.06 63.86 21.98 116.34 23.73 56.97 2.16 121.14-7.47 176.84-27.15 91.72-31.58 158.84-88.33 200.6-137.45 42.4-49.58 59.38-91.5 65.3-104.3l1.02-.49"/><path id="8sdkh" d="M516.83 418.96c-4.13 8.03-20.1 51.67-64.1 104.32-43.2 52.15-114.43 113.31-210.58 144.74-54.35 18.33-116.17 26.88-170.52 24.4-50.4-2.06-91.28-12.84-112.3-23.92-14.15-7.45-19.29-14.69-15.59-20.43 7.91-12.62 55.54-16.92 117.3-30.42 61.82-12.89 137.8-34.99 203.12-68.73a668.22 668.22 0 0 0 21.32-11.19c73.33-39 133.73-95.9 137.03-111.1.6-2.32-.07-3.6-1.99-3.96-9.73-2.02-51.6 21.43-113.36 46.05-66.92 27.14-145.7 47.79-216.58 57C29.63 533.95-18 535.88-56.7 535.19c-51.93-1.33-87.2-7.56-112.7-24.63-16.36-6.87-27.73-39.43 14.27-117.92 15.38-32.01 54.62-92.96 97.02-163.38l.57.3c-42.25 70.43-81.34 131.41-96.66 163.42-18.1 35.55-28.9 64.29-28.91 86.46-.1 22.77 10.98 29.37 14.28 30.74.04 0 .07.01.1.03l.08.06c25.13 16.83 60.18 23 111.84 24.36 38.7.69 86.34-1.24 147.34-9.44 70.9-9.24 149.72-29.92 216.64-57.08 62.05-24.78 104.22-48.41 114.18-46.37 2.1.4 2.86 1.87 2.22 4.4-3.82 13.03-46.58 61.15-137.67 112.02a753.47 753.47 0 0 1-21.33 11.2C202 581.53 124.96 605.34 62.8 617.96c-70.93 14.62-110.87 19.23-117.66 30.36-3.61 5.56 1.47 12.6 15.32 19.9 20.86 10.95 61.51 21.6 111.63 23.65 54.15 2.42 115.7-6.1 169.81-24.35 95.8-31.3 166.8-92.2 209.92-144.15 43.89-52.44 59.87-95.91 63.98-103.93z"/><path id="8sdki" d="M517.1 414.42c-5.69 13.41-26.44 65.32-81.44 125.72C379.03 602.1 307.56 646.6 234.4 669.7c-59.5 19.13-118.92 24.38-166.97 21.52C19.2 688.5-17.66 677.7-36.72 667.6c-14.8-7.93-19.87-15.73-15.54-21.94 7.78-11.77 48.43-17.16 119.47-32.9 61.7-13.54 136.74-37.87 197.63-69.95 5.8-3 11.45-6.02 17-9.1 72.14-39.1 126.69-90.84 129.07-104.12.42-2.15-.45-3.26-2.64-3.45-10.6-.98-52.64 22.01-113.67 45.46-66.73 26.11-144.56 45.4-213.92 53.8-61.7 7.71-109.49 9.32-148.35 8.35-49.56-1.62-83.21-7.58-107.4-23.4-3.53-1.23-14.4-7.3-13.1-30.66 1.18-21.92 13.47-51.21 32.33-85.92 29.68-54.03 70.1-111.7 100.67-162.89.18.1.36.18.56.27-30.48 51.22-70.73 108.92-100.28 162.98-18.79 34.71-31 63.99-32.14 85.87-1.02 18.46 5.85 27.66 12.4 29.92.06 0 .1.02.13.04l.13.07c23.82 15.6 57.25 21.53 106.57 23.16 38.86.94 86.67-.62 148.4-8.35 69.4-8.4 147.27-27.73 214.01-53.88 61.3-23.55 103.62-46.71 114.44-45.73 2.4.18 3.4 1.46 2.92 3.83-2.4 13.65-57.2 65.75-129.67 105.07a675.3 675.3 0 0 1-17 9.1C204.66 575.5 130.5 599 68.76 613 7.08 627.72-42.2 632.93-50.87 645.89c-4.21 6.06.82 13.66 15.3 21.42 18.97 10.02 55.63 20.7 103.62 23.36 47.8 2.77 106.93-2.48 166.17-21.5 78.76-24.52 146.7-72.55 193.91-122.04 47.9-49.54 75.07-100.57 87.95-132.24z"/><path id="8sdkj" d="M517.33 409.89c-5.84 13.97-27.16 68.4-85.37 131.64C373.26 605 300.04 649.3 226.67 671.3c-51.7 15.74-106.91 22.08-156.53 19.15-46.4-2.6-82.93-12.72-103-23.65-15.4-8.44-20.42-16.8-15.4-23.56 9.74-13.6 58.95-19.73 119.9-35.2 61.07-14.7 133.84-38.72 193.26-71.06a725.3 725.3 0 0 0 13.35-7.25c67.98-37.28 119.65-85.65 121.13-97.44v-.02c.3-2-.8-2.95-3.3-2.91-11.3.03-54.62 22.93-113.98 44.82-66.53 25.12-143.45 43.12-211.32 50.74-62.46 7.25-110.43 8.49-149.48 7.29-47.15-1.84-79.16-7.53-102.03-22.09a12.14 12.14 0 0 1-5-2.86c-13.07-11.7-9.46-47.24 29.18-112.36 14.05-26.2 59.01-91.34 104.33-162.43l.54.3c-45.15 71.1-89.95 136.28-103.94 162.51-17.73 31-30.1 56.89-34.2 78.02-4.4 22.25 2.08 31.14 5.07 33.85a9.95 9.95 0 0 0 4.48 2.52c.05.04.1.05.16.09 22.52 14.38 54.33 20.02 101.27 21.88 39.04 1.22 87.05-.02 149.57-7.29 67.88-7.61 144.83-25.63 211.37-50.77 60.5-22.43 102.98-45.1 114.7-45.12 2.74-.05 4 1.04 3.67 3.28v.02c-1.98 10.24-38.53 50.85-121.76 98.37a855 855 0 0 1-13.36 7.27c-59.29 32.29-131.91 56.32-192.8 71.02-60.8 15.45-109.85 21.6-119.45 35.02-4.89 6.63.07 14.8 15.21 23.05 19.92 10.84 56.21 20.82 102.32 23.4 49.42 2.85 104.39-3.45 155.86-19.14 80.24-23.68 150.39-72.4 199.1-123.3 49.46-50.92 77.51-104.03 90.72-137.08.35-.16.68-.33 1.02-.5"/><path id="8sdkk" d="M517.52 405.35c-12.64 32.16-41.07 87.7-92.45 140.79-50.5 53.11-123.95 103.78-206.16 126.68-49.9 14.42-102.61 19.86-149.58 16.73-44.08-2.84-78.99-12.68-98.4-23.49-16.1-8.96-21-17.92-15.26-25.28 10.66-14.07 59.53-21.14 119.47-37.26 60.05-15.4 131.17-39.83 189.12-72.06 3.48-1.9 6.94-3.81 10.4-5.76 66.27-37.04 112.62-80.7 113.35-91 .13-1.9-1.22-2.69-4.11-2.43-12.21.98-55.68 23.39-114.26 44.22-66.34 24.16-142.34 40.9-208.71 47.79-63.32 6.8-111.49 7.7-150.74 6.26-44.7-2.02-75.04-7.41-96.63-20.7-1.54-.3-3.01-1.01-4.29-2.03-10.36-8.04-11.71-40.3 33.46-111.77 15.1-26.43 62.16-92.12 108-161.99l.55.3c-45.7 69.88-92.6 135.62-107.63 162.08-44.89 71.33-43.69 103.32-33.47 111.2a7.5 7.5 0 0 0 3.72 1.69c.07.03.15.07.22.13 21.23 13.11 51.36 18.49 95.9 20.51 39.27 1.46 87.45.55 150.85-6.25 66.38-6.87 142.41-23.65 208.77-47.84 59.67-21.3 102.3-43.5 114.88-44.48 3.18-.27 4.73.62 4.57 2.77-.02.11-.02.24-.06.36-1.67 11.23-48 54.72-113.89 91.58a721.84 721.84 0 0 1-10.42 5.76c-57.83 32.2-128.8 56.62-188.69 72.02-59.8 16.12-108.5 23.2-119.01 37.11-5.6 7.22-.73 15.98 15.09 24.76 17.72 9.75 50.83 19.8 94.36 22.94 43.36 3.23 97.13-.43 152.3-16.41 81.9-22.81 155.1-73.28 205.46-126.18 51.24-52.89 79.64-108.2 92.29-140.25l1-.5"/><path id="8sdkl" d="M517.7 400.84C505.6 433 476.18 490 424.58 544.2c-61.86 65.65-140.6 110.63-213.41 130.05-95.67 27.08-196.96 14.82-236.55-8.83-16.78-9.51-21.55-19.15-15.03-27.13 10.16-13.05 51.32-20.86 120.25-39.58 59.32-16.05 127.76-41.35 183.18-72.51 2.72-1.5 5.4-3 8.1-4.54 62.05-35.13 105.74-75.74 105.67-84.83.02-1.82-1.64-2.44-5.03-1.93-13.1 1.86-56.74 23.8-114.53 43.58C218.35 492.3 139.95 515 51.14 523.48c-64.3 6.34-112.67 6.94-152.13 5.28-42.2-2.17-70.82-7.22-91.14-19.26a7.99 7.99 0 0 1-3.84-1.51c-11.52-8.07-6.5-43.66 37.98-110.8 35.62-54.73 80.45-113.67 111.71-161.59.18.1.37.18.55.3-31.16 47.93-75.83 106.92-111.33 161.68-44.18 67.03-49.37 102.3-38.1 110.2a5.58 5.58 0 0 0 2.94 1.1l.3.02.25.15c19.96 11.91 48.42 16.94 90.48 19.1 39.5 1.7 87.89 1.1 152.24-5.22 88.84-8.5 167.28-31.21 206.18-45.04 57.96-19.86 101.8-41.92 115.1-43.86 3.68-.54 5.55.2 5.53 2.25 0 .21-.01.43-.05.67-1.93 9-34.55 43.38-106.22 85.1-2.66 1.54-5.38 3.05-8.07 4.56-55.43 31.17-123.88 56.52-183.17 72.59-68.56 18.66-109.41 26.44-119.41 39.32-6.38 7.83-1.64 17.27 14.86 26.6 39.38 23.45 140.06 35.53 235.24 8.6 83.29-21.87 158.77-73 210.64-127.3 52.86-54.26 82.07-111.71 95.02-145.1.35-.15.66-.32 1-.48"/><path id="8sdkm" d="M517.85 396.32c-12.39 33.47-42.8 92.9-96.95 149.19-63.91 67.1-144.5 111.76-217.49 130.1-46.19 11.9-93.96 15.73-135.83 12.25-39.54-3.19-71.26-12.55-89.37-23-17.47-10.08-22.08-20.4-14.72-29.05 12.44-15 62.07-24.09 120.36-41.85 58.45-16.98 125.52-42.64 177.35-72.7 2.14-1.2 4.25-2.4 6.38-3.64 57.89-33.24 98.84-70.88 98.17-78.93-.11-1.77-2.11-2.2-6.09-1.44-14.03 2.73-57.83 24.17-114.75 42.94-38.73 13.34-116.7 34.78-203.53 42.33-65.32 6-116.04 6.17-153.65 4.31-38.2-2.1-66.5-6.88-85.54-17.74a6.79 6.79 0 0 1-3.63-1.11c-9.9-6.29-6.56-39.14 42.73-109.65 37.93-55.44 83.8-114.39 115.46-161.23l.54.31c-31.53 46.83-77.29 105.84-115.07 161.3-48.47 69.71-52.22 103.1-42.91 109.01.78.51 1.64.75 2.6.71.11 0 .22 0 .31-.02.11.08.22.13.31.19 18.7 10.7 45.43 15.4 84.98 17.63 37.64 1.88 88.39 1.75 153.76-4.26 74.1-6.34 147.8-23.61 205.63-43.13 57.96-18.98 100.01-40.2 113.27-42.41 4.27-.86 6.5-.31 6.67 1.67.02.28 0 .59-.07.91-1.9 8.46-32.5 40-98.7 78.99a530.46 530.46 0 0 1-6.37 3.64c-51.73 30.05-118.67 55.68-176.98 72.66-58.12 17.77-107.62 26.86-119.9 41.73-7.22 8.5-2.62 18.64 14.6 28.55 37.54 22.66 133.1 34.72 223.88 10.5 87.97-21.56 167.93-77.06 221.03-134.33 54.31-57.22 81.75-116.22 92.52-143.93l1-.5"/><path id="8sdkn" d="M517.97 391.82c-12.63 34.78-44.04 96.68-100.74 154.96-66 68.54-148.44 112.9-221.57 130.15-88.26 21.97-177.37 9.82-213.98-12.52-18.18-10.7-22.6-21.72-14.34-31.14 13.3-15.43 62.22-25.47 119.1-43.73 57.1-17.52 122.15-43.29 172.39-72.95 1.75-1 3.5-2 5.2-3.02 53.83-31.38 92.1-66.14 90.89-73.36-.27-1.71-2.66-1.98-7.29-.89-14.23 2.99-57 24.03-114.7 42.14-57.59 18.7-130.14 34.46-201.29 39.96-66.47 5.56-117.46 5.45-155.34 3.39-35.66-2.13-62.06-6.56-79.84-16.16a5.74 5.74 0 0 1-3.5-.82c-10.22-6.1-.95-41.75 47.6-108.36 40.33-56.22 87.23-115.2 119.2-160.88.2.1.37.22.57.31-31.89 45.68-78.66 104.71-118.83 160.97-25.57 36.13-40.36 61.44-46.66 78.88-6.53 17.33-4.56 26.74-1.19 28.79.24.14 1 .6 2.39.41l.33-.05c.1.07.23.13.36.2 17.4 9.53 43.71 13.96 79.33 16.1 37.92 2.07 88.93 2.23 155.47-3.33 71.22-5.52 143.89-21.3 201.57-40.03 57.81-18.16 100.65-39.3 114.95-42.32 4.96-1.17 7.63-.82 7.93 1.1.05.34.03.7-.04 1.1-1.86 8-30.48 36.88-91.37 73.21-1.73 1.02-3.48 2.02-5.22 3.04-50.14 29.63-115.07 55.4-172.01 72.9-56.76 18.28-105.53 28.3-118.67 43.64-8.1 9.25-3.71 20.1 14.21 30.6 36.39 22.15 124.96 34.12 212.69 12.25 89.31-20.44 171.72-76.65 226.34-135.4 55.92-58.66 84.07-119.86 95.06-148.65z"/><path id="8sdko" d="M518.04 387.32c-12.87 36.08-45.2 100.45-104.48 160.72-46.31 48.94-131.84 109.89-225.69 130.07-42.3 9.6-85.27 12.05-122.34 8.3-35.66-3.56-63.48-12.23-80.52-22.36-18.9-11.34-23.05-23.1-13.83-33.3 14.12-15.91 62.22-26.86 117.65-45.6 55.63-18 118.54-43.78 167.13-72.95l4.6-2.71c57.3-34.66 84.97-62.5 83.73-68.07-.42-1.7-3.24-1.75-8.65-.3-15.82 4.32-61 25.13-115.23 41.64-66.35 20.8-136.86 32.81-198.48 37.4-67.75 5.12-119.04 4.7-157.17 2.5-33.07-2.11-57.52-6.14-74.03-14.56a4.88 4.88 0 0 1-3.44-.5c-9.64-5.53 2.15-40.84 52.55-107 42.83-57.08 90.7-116.15 122.98-160.55l.55.31c-32.22 44.44-79.93 103.53-122.6 160.65-51.17 67.3-61.17 101.52-52.86 106.25.58.33 1.35.39 2.26.13l.3-.07.4.2c16.15 8.36 40.55 12.39 73.62 14.54 38.19 2.22 89.5 2.68 157.34-2.46C83.45 515 154 503.02 220.38 482.18c54.33-16.55 99.64-37.45 115.6-41.82 5.83-1.57 8.91-1.46 9.37.47 1.31 5.85-25.18 33.13-84.27 69.02l-4.57 2.72c-48.52 29.13-111.3 54.91-166.79 72.93-55.28 18.71-103.25 29.68-117.22 45.46-9.06 10.06-4.9 21.66 13.73 32.78 35.19 21.59 117.05 33.41 201.59 13.8 80.1-17.12 161.67-66.5 219.57-124.32 59.09-57.49 94.5-123.43 109.66-165.4z"/><path id="8sdkp" d="M518.11 382.83c-13.1 37.4-46.4 104.24-108.19 166.44-47.72 49.98-135.7 111.25-229.8 129.98-80.54 17.38-158.25 5.56-191.9-15.49-19.6-11.97-23.49-24.52-13.23-35.58 13.06-14.65 53.4-25.76 117.23-47.63 54.42-18.47 115.37-45.1 160.4-72.47l4.45-2.68c51.55-31.6 78.5-57.98 76.85-63.08-.58-1.7-3.9-1.51-10.22.35-16.9 5.08-62.24 25.36-115.44 40.97-66.03 19.99-135.66 31.05-195.97 35.1-69.2 4.71-120.82 4.02-159.26 1.67-30.36-2.06-52.82-5.67-68.04-12.88-1.25.4-2.4.3-3.4-.24-9.46-5.26 8.12-43.07 57.52-105.55 35.14-44.73 88.36-109.55 126.8-160.26.19.1.35.2.54.33-38.34 50.7-91.4 115.57-126.41 160.33-51.99 65.63-65.4 100.63-57.89 104.79.67.36 1.75.02 2.17-.13l.29-.11.42.22c14.87 7.18 37.3 10.8 67.7 12.9 38.5 2.35 90.14 3.08 159.43-1.62 66.58-4.16 136.8-17.37 193.82-34.51 57.16-16.56 101.1-37.04 118-41.76 6.76-1.99 10.36-2.13 11-.2.13.36.13.82 0 1.35-1.75 7.3-27.5 32.05-77.36 62.67-1.48.91-2.97 1.8-4.45 2.7-45.04 27.38-105.96 54.06-160.35 72.55C29.3 602.8-10.78 613.88-23.7 628.4c-10.1 10.91-6.23 23.29 13.12 35.07 33.43 20.83 110.67 32.49 190.66 15.22C273.74 660 361.42 599.05 409 549.27c61.71-62.02 95.03-128.65 108.12-165.95.32-.16.63-.33.98-.49"/><path id="8sdkq" d="M518.13 378.35c-13.28 38.72-47.52 108.05-111.87 172.13-49.07 51.01-139.56 112.56-233.93 129.82-77.16 15.34-148.65 3.79-181.08-16.71-20.3-12.61-23.82-26.02-12.49-38 13.72-15 53.6-26.92 115.77-49.39 52.92-18.98 111.22-45.34 154.35-71.98 1.58-.99 3.17-1.95 4.73-2.92 47.32-29.57 72.15-53.71 70.19-58.41-.71-1.7-4.63-1.28-11.96 1.04-15.12 4.55-55.59 22.88-115.7 40.32-65.64 19.18-134.42 29.37-193.43 32.92-70.88 4.28-122.83 3.34-161.62.9-27.56-1.95-47.95-5.12-61.85-11.21-.66.3-2 .82-3.4.07-4.05-2.2-.63-13.97 8.17-29.39 8.15-14.68 25.5-38.79 54.37-74.66C-124.31 357.46-69.68 292-30.98 242.87l.54.33c-38.62 49.14-93.06 114.64-130.25 160.1-53.88 65.24-69.15 99.86-62.92 103.25.2.1.92.16 2.08-.42l.24-.13c.16.08.3.15.45.2 13.58 6.07 33.97 9.26 61.62 11.25 38.81 2.47 90.81 3.44 161.78-.84 59.05-3.54 127.87-13.74 193.51-32.94 60.2-17.46 100.76-35.86 115.96-40.43 7.81-2.48 12-2.88 12.82-.95 2.1 4.95-21.71 28.64-70.65 59.34-1.59.98-3.17 1.97-4.78 2.93C207 530.98 148.98 557.13 96 576.31c-52.7 19.92-100.4 32.87-115.91 49.5-11.17 11.83-7.67 25.06 12.39 37.5 32.23 20.28 103.21 31.67 179.86 16.4 93.91-17.16 184.08-78.43 233.06-129.23 64.24-63.92 98.47-133.03 111.76-171.63l.98-.5"/><path id="8sdkr" d="M518.13 373.89c-13.45 39.24-48.7 111.74-112.85 174.98-62.5 63.73-153.89 118.21-240.7 132.4C91.9 694.6 24.77 683.24-5.9 663.53c-20.7-13.1-23.9-27.75-11.56-40.52 16.36-17.13 63.05-30.94 114.16-51.15 51.38-19.53 107.2-45.46 148.04-71.25l5.45-3.41c42.09-26.77 66.06-49.67 63.77-54.06-.9-1.7-5.43-1-13.94 1.8-16.27 5.14-58.47 23.84-114.11 39.09-55.6 15.74-124.66 28.02-192.75 31.44-72.8 3.87-125.12 2.68-164.24.17-24.67-1.8-42.9-4.5-55.48-9.5-.9.57-2.1 1.04-3.33.4-7.27-3.95 14.56-40.7 67.54-102.52 39.57-46.11 95.55-112.27 134.5-159.77l.53.33C-66.2 292.1-122 358.28-161.42 404.44c-55.86 65-73.2 98.72-67.96 101.7.02 0 .62.15 1.98-.72l.22-.15.46.2c12.26 4.97 30.5 7.7 55.3 9.55 39.17 2.51 91.53 3.73 164.43-.11 68.13-3.4 137.27-15.7 192.9-31.45 55.71-15.29 97.95-34.03 114.25-39.2 8.99-2.98 13.83-3.65 14.84-1.72 2.42 4.64-20.52 27.07-64.23 54.99l-5.45 3.4c-40.77 25.8-96.47 51.73-147.73 71.24-51 20.21-97.56 34.02-113.78 51.06-12.15 12.62-8.93 27.09 11.53 40 30.47 19.52 97.12 30.69 169.25 17.46 86.49-14.16 177.57-68.41 239.9-131.91 63.97-63.02 99.21-135.27 112.66-174.4l.98-.5"/><path id="8sdks" d="M518.1 369.41c-13.64 41.38-49.71 115.7-119.1 183.42-26.54 26.13-62.58 55.43-104.9 79.28-42.11 24-90.54 42.5-137.33 50.07-69.2 11.5-130.58.52-160-18.62-21.36-13.8-24.08-29.36-10.52-43.19 17.02-17.49 62.53-32.1 111.85-52.56 49.62-19.82 103.05-45.46 142.2-70.62 2.16-1.37 4.3-2.75 6.46-4.14 31.81-20.26 60.56-45.38 57.63-49.98-1.06-1.74-6.32-.74-16.1 2.63-19.54 6.54-63.25 25.18-118.67 39.57-55.32 14.9-122.33 25.55-185.98 28.32-74.97 3.57-129.9 1.98-167.18-.48-21.65-1.58-37.63-3.82-48.81-7.78-1.37 1.06-2.32 1.26-3.27.77-3.1-1.62 2.57-13.38 12.96-28.19 10-14.63 29.68-38.35 59.58-72.77 41.89-46.8 99.2-113.71 138.38-159.57.18.1.35.24.51.36-39.08 45.85-96.2 112.79-137.98 159.63-55.28 62.17-76.7 96.06-72.99 100.08.24-.02.84-.18 1.9-1.02l.18-.14.43.16c10.94 3.95 26.95 6.21 48.72 7.83 37.34 2.48 92.33 4.12 167.41.55 72.6-3.22 142.7-16.2 188.54-28.91 57.49-15.44 99.12-33.24 116.35-39.07 10.28-3.53 15.86-4.53 17.04-2.57 2.19 3.61-11.86 20.3-58.03 50.91-2.17 1.38-4.32 2.77-6.49 4.14-39.04 25.14-92.4 50.8-141.9 70.62-49.2 20.44-94.57 35.05-111.46 52.47-13.38 13.67-10.65 29.04 10.47 42.64 29.23 18.94 90.12 29.77 158.83 18.32 46.55-7.5 94.74-25.96 136.72-49.83 42.14-23.74 78.07-52.9 104.56-78.93 69.31-67.54 105.37-141.62 119.02-182.89z"/><path id="8sdkt" d="M518.04 364.96c-13.8 42.72-50.72 119.54-122.64 189.03-27.3 26.58-64.28 56.23-107.44 80.08-42.94 23.95-92.1 42.1-138.96 48.92-64.78 9.76-122.11-.97-149.8-19.3-21.96-14.48-24.11-31.03-9.25-45.93 17.64-17.86 61.88-33.24 109.4-53.9 47.77-20.06 98.82-45.38 136.23-69.85 2.62-1.68 5.2-3.4 7.8-5.09 39.84-26.9 53.98-43.09 51.76-46.2-1.28-1.8-7.3-.48-18.53 3.5-17.22 5.86-59.44 23.72-114.31 37.73-54.81 14.5-122.28 25.16-188.09 27.62-77.62 3.15-132.95 1.37-170.57-1.02-18.46-1.35-32.07-3.11-41.8-6.07-1.59 1.44-2.24 1.44-2.75 1.32-.3-.08-.59-.22-.77-.4-3.71-3.34 21.08-37.76 77.87-99.12 21.52-24.03 48.07-52.48 73.07-80.9 25.21-28.35 48.9-56.68 69.21-78.49.19.1.35.24.51.36-20.26 21.8-43.89 50.15-69.01 78.51-24.95 28.45-51.4 56.89-72.86 80.96-53.8 58.63-79.75 93.2-77.95 98.31a6.29 6.29 0 0 0 1.88-1.4l.4.14c9.55 2.97 23.2 4.76 41.78 6.13 37.68 2.42 93.06 4.24 170.8 1.1 65.86-2.45 133.38-13.11 188.22-27.61 54.92-14.05 97.17-31.93 114.4-37.81 11.76-4.16 18.08-5.49 19.52-3.48 2.42 3.42-10.77 19.08-52.17 47.12a440.65 440.65 0 0 1-7.8 5.1c-37.34 24.45-88.29 49.8-135.97 69.87-47.39 20.63-91.5 36-109.01 53.79-14.67 14.77-12.5 31.13 9.26 45.4 27.47 18.15 84.35 28.72 148.6 19.02 79.42-10.53 172.36-59.03 239.52-123 68.74-63.17 111.72-141.8 128.49-193.93z"/><path id="8sdku" d="M517.95 360.52c-13.92 44.08-51.72 123.37-126.17 194.61-28 27.04-65.96 57.03-109.98 80.82-43.78 23.95-93.65 41.7-140.58 47.78C79.89 691.96 27.8 681.65 1.4 663.9c-22.54-15.16-24.02-32.68-7.78-48.8 18.18-18.17 61.09-34.24 106.77-55.05 45.93-20.26 94.58-45.26 130.27-69.04 3.23-2.1 6.34-4.19 9.33-6.25 35.53-24.57 48.65-39.71 46.2-42.7-1.49-1.88-8.38-.2-21.17 4.42-18.62 6.53-61.36 24.11-115.91 37.45-54.46 13.84-120.75 23.48-184.3 25.49-80.8 2.71-136.5.76-174.45-1.44-14.5-1-26.15-2.35-34.35-4.4-1.8 1.92-2.26 1.81-2.68 1.7a1.92 1.92 0 0 1-.34-.09 2.1 2.1 0 0 1-.31-.26c-3.08-2.73 25.14-37.3 82.77-97.53 22.68-24.4 50.25-53.16 75.9-81.7 25.88-28.42 49.84-56.59 70.32-77.54l.5.38c-20.44 20.94-44.32 49.1-70.12 77.55-25.58 28.53-53.06 57.34-75.69 81.77-53.4 56.28-81.06 89.37-82.53 96.18.29-.25.69-.64 1.16-1.16.06-.04.1-.1.13-.13.13.03.25.05.36.09 8.1 2.08 19.79 3.44 34.42 4.46 35.73 2.19 93.83 4.4 174.73 1.55 63.59-2 129.9-11.62 184.39-25.47 54.58-13.37 97.36-31 116-37.51 13.3-4.81 20.5-6.5 22.2-4.41 2.66 3.28-9.62 17.94-46.57 43.6-3.01 2.06-6.13 4.13-9.33 6.26-35.62 23.76-84.22 48.76-130.02 69.04-45.57 20.79-88.37 36.86-106.42 54.95-16.06 16-14.54 33.34 7.8 48.3 26.16 17.55 77.81 27.7 138.63 19.53 46.72-6.06 96.33-23.72 139.97-47.57 43.83-23.68 81.68-53.55 109.63-80.48 74.32-71.02 112.16-150.11 126.08-194.08l.96-.49"/><path id="8sdkv" d="M517.82 356.08c-14.03 45.44-52.7 127.25-129.63 200.15-28.75 27.5-67.69 57.83-112.55 81.57-44.64 23.9-95.22 41.23-142.2 46.59-57.07 6.76-105.44-3.25-130.1-20.2-23.06-15.82-23.8-34.4-6.08-51.77 18.66-18.44 60.22-35.17 104.04-56.08 44.05-20.43 90.33-45.06 124.3-68.15a658.4 658.4 0 0 0 11.03-7.58c31.96-22.77 43.62-36.58 40.94-39.5-1.73-1.95-9.76.17-24.07 5.38-17.58 6.21-59.2 23.03-113.1 35.98-53.84 13.4-120 22.9-184.94 24.64-84.72 2.38-143 .1-178.94-1.72-11.02-.69-19.84-1.55-26.36-2.8-1.88 2.31-2.13 2.26-2.55 2.15-.13-.02-.24-.06-.37-.1l-.25-.21c-.84-.84 7.32-11.5 20.75-26.22 13.07-14.58 36.22-37.86 66.96-69.67 18.99-19.77 48.67-50.04 79.6-83.54 29-31.34 51.53-57.23 70.59-75.58.16.1.33.26.49.38-20.63 20.06-44.79 48.07-71.22 76.6-26.22 28.64-54.74 57.8-78.53 82.6-50.82 51.92-80.19 83.11-86.02 92.86 6.47 1.27 15.33 2.15 26.42 2.86 35.99 1.86 94.36 4.19 179.25 1.82 64.94-1.71 131.13-11.22 185-24.63 53.96-12.96 95.59-29.8 113.19-36 15-5.5 23.14-7.59 25.1-5.4.5.53.59 1.3.33 2.3-1.56 5.3-13.84 18.36-41.6 38.08-3.5 2.47-7.19 5-11.05 7.6-33.9 23.08-80.12 47.7-124.06 68.14-43.71 20.91-85.14 37.64-103.7 56-17.5 17.26-16.74 35.63 6.11 51.3 24.47 16.72 72.43 26.56 128.96 19.85 46.76-5.33 97.08-22.57 141.57-46.38 44.68-23.62 83.5-53.83 112.16-81.21 76.86-72.68 115.54-154.29 129.59-199.6.32-.16.63-.35.94-.51"/><path id="8sdkw" d="M517.69 351.65c-14.13 46.8-53.64 131.13-133.1 205.69-29.48 27.93-69.38 58.6-115.1 82.28-45.5 23.85-96.8 40.72-143.84 45.35-52.9 5.45-97.66-4.25-120.66-20.37-23.2-16.29-23.1-36.39-4.12-54.86 16.68-16.7 51.84-32.7 102.06-57.34 42.37-20.72 85.47-44.71 117.5-66.87 4.55-3.13 8.85-6.16 12.9-9.09 28.24-20.79 38.88-33.74 36-36.55-2.06-2.06-11.13.46-27.24 6.38-21.3 7.7-64.34 24.29-117.83 36.4C70.88 495.24 7.03 503.33-53.8 504.65c-89.81 2.04-150.5-.5-184.19-1.7-7.16-.38-12.9-.8-17.5-1.37-1.4 1.6-2.07 2.48-2.12 2.54l-.04-.02c-.16.14-.27.1-.44.07l-.36-.09-.22-.22c-.04-.03-.09-.09 0-.27l-.09-.04c0-.02.67-.84 1.99-2.68l.07-.1.22.03c.82-.95 1.9-2.17 3.35-3.79 3.48-3.88 9.37-10.2 17.5-18.46 14.22-14.6 38.65-37.9 69.61-68.87 19.91-20.02 50.72-50.67 82.26-84.17 29.74-31.52 52.57-57.21 71.9-74.87.14.13.3.26.47.38-25.9 24.27-56.32 58.82-85.47 89.37-28.8 30.72-56.35 57.45-68.27 69.73-50.08 49.65-81.88 80.62-89.86 90.86 4.4.51 9.8.91 16.45 1.26 33.75 1.24 94.55 3.84 184.52 1.84 60.87-1.3 124.73-9.38 178.14-21.95 53.53-12.12 96.58-28.74 117.9-36.43 16.83-6.21 25.98-8.7 28.3-6.41 3.1 3.04-7.24 15.98-36.3 37.4a636.24 636.24 0 0 1-12.9 9.12c-32.21 22.4-76.07 46.64-118.16 67.2-41.85 20.98-81.9 38.29-100.85 56.93-19.05 18.62-19.16 38.04 4.18 54.37 22.77 15.92 67.12 25.47 119.52 20.08 46.79-4.61 97.84-21.43 143.17-45.19 45.53-23.56 85.3-54.1 114.73-81.9 79.35-74.34 118.89-158.46 133.03-205.14.33-.16.64-.34.95-.5"/><path id="8sdkx" d="M-261.49 500.44l-.24.24.15-.24zm779.02-153.21c-.31.18-.64.34-.95.5-14.23 48.07-54.6 134.7-136.45 210.63-30.16 28.26-70.91 59.1-117.3 82.6-46.17 23.68-97.93 40.06-144.78 43.92-49.1 4.25-88.97-4.8-110.41-20.1-23.38-16.74-22.34-37.77-1.97-57.55 16.9-16.8 50.89-33.29 98.72-58.01 40.45-20.85 81.22-44.43 111.54-65.94 5.3-3.74 10.24-7.36 14.8-10.79 25.61-19.57 34.98-31.74 31.64-34.69-2.7-2.42-12.92.5-31.72 7.45-22.8 8.3-66.28 24.53-119.38 36.02-53 11.97-115.6 19.22-174.53 20.2-97.1 1.5-159.68-1.2-190.78-1.41l-5.1-.2.6-.59c11.4-11.77 44.15-41.36 92.69-88.02 12.5-12.44 41.27-39.55 70.84-70.49 29.97-30.77 60.76-65.36 86.87-88.55l-.47-.4c-19.6 16.96-42.71 42.5-73.21 74.21-32.1 33.47-64.06 64.52-84.94 84.78-48.63 46.57-81.47 76.1-92.9 87.87-.39.39-.77.77-1.14 1.11l-1.58-.09c-.07-.02-.15-.02-.24-.02l-.05.11c-2.14 3.28-2.1 3.3-1.37 3.68.7.35.77.39 4.2-2.93 1.94.1 4.05.17 6.42.24 31.03.2 93.47 2.82 190.4 1.27 58.89-1 121.47-8.25 174.44-20.2 53.07-11.52 96.57-27.73 119.34-36.02 18.04-6.67 28.22-9.6 30.66-7.42 3.07 2.72-6.54 14.9-31.4 33.85-4.54 3.43-9.5 7.02-14.82 10.74-30.32 21.51-71.1 45.05-111.6 65.88C55.61 573.63 21.47 590.16 4.45 607c-20.57 19.91-21.66 41.12 1.91 58.07C28 680.53 68.27 689.73 117.9 685.46c47.08-3.86 99.08-20.3 145.43-44.09 46.57-23.61 87.47-54.57 117.7-82.95 81.94-76.16 122.3-163.02 136.5-211.2z"/><path id="8sdky" d="M-267.47 499.27c.68 0 1.33-.02 1.99-.04a47.33 47.33 0 0 1-3.32 2.55c.22-.53.62-1.31 1.33-2.51zm784.78-156.44l-.93.5c-14.94 52.18-59.47 142.46-137.02 213.31-75.1 72.03-183.22 124.6-269.05 128.65-45.23 3.2-81.85-5.52-101.65-19.96-23.67-17.39-21.5-39.52.58-60.84.07-.1.18-.18.27-.27 19.77-18.95 58.09-37.63 96.55-58.98 38.74-20.96 77.64-44.6 104.66-64.37 6.06-4.4 11.71-8.64 16.72-12.6 22.83-18.12 30.9-29.31 27.33-32.19-3.13-2.59-14.52.8-35.38 8.5-19.86 7.13-61.58 22.71-114.22 34.08-52.57 11.77-116.03 19.31-177.6 20.08-70 1.31-133.02-1.2-190.23-.31 1.15-.97 2.52-2.15 4.14-3.55 15.27-13.63 47.97-41.38 91.92-82.48 13.1-12.6 43.09-40.1 73.43-71.28 30.8-30.96 61.98-65.61 88.3-87.75a9.23 9.23 0 0 1-.47-.4c-19.91 16.29-43.29 41.65-74.53 73.55-32.67 33.46-65.76 64.9-87.64 85.42-44.04 41.01-76.82 68.73-92.1 82.32-1.86 1.6-3.52 3.02-4.92 4.2l-3.83.06c-.05.02-.13.02-.18.02a.4.4 0 0 0-.06.09c-2.13 3.66-1.82 3.8-1.1 4.2.83.41 1.27.41 6.13-3.63 57.47-1.04 120.9 1.47 191.39.1 61.54-.78 124.98-8.34 177.51-20.11 52.62-11.35 94.33-26.93 114.2-34.07 20.08-7.4 31.44-10.8 34.3-8.44 3.3 2.66-5 13.85-27.12 31.38A518.03 518.03 0 0 1 210 480.6c-28.66 20.88-67.22 44-105.84 64.88C58.6 570.16 25.64 587.1 8.3 604c-.1.1-.22.19-.3.3-22.3 21.42-24.51 43.74-.65 61.3 20 14.66 57.03 23.51 102.75 20.3 47.1-3.11 99.82-19.07 147.01-42.8 47.45-23.5 89.32-54.78 120.33-83.6 84.41-77.71 125.59-167.12 139.86-216.66z"/><path id="8sdkz" d="M-274.8 501.54c.04-.46.35-1.44 1.43-3.5 1.14-.11 2.75-.28 4.77-.42-2.97 2.17-5.17 3.57-6.2 3.92zM517.08 338.4l-.93.53c-14.34 50.82-56.33 142.5-143.17 221.54-31.67 29.13-74.41 60.58-122.53 83.88-47.84 23.52-101.05 38.94-147.87 41.29-41.5 2.26-75.05-6.1-93.25-19.73C-14.45 648-11.13 624.85 12.5 602l.23-.25c19.85-19.15 55.67-37.88 91.98-58.9 36.55-20.74 73.6-43.77 100.85-64.27a483.46 483.46 0 0 0 18.65-14.54c20.25-16.8 27.13-27.1 23.3-29.92-3.58-2.71-16.55 1.22-39.27 9.53-25.08 9.1-68.37 24.18-120.24 34.62-51.78 10.84-112.12 17.05-169.55 17.58-45.08.68-87.28-.18-126.21-.38-26.68-.15-46.03.33-57.5 1.1 2.02-1.52 4.44-3.42 7.4-5.77 17.4-14.12 49.95-40.4 90.5-77.28 13.73-12.74 44.96-40.62 76.08-72.03 31.64-31.17 63.18-65.88 89.7-86.98-.15-.13-.3-.27-.44-.42-20.25 15.61-43.9 40.81-75.89 72.92-33.16 33.43-67.43 65.28-90.33 86.05-40.64 36.8-73.27 63.04-90.7 77.1a364.01 364.01 0 0 1-8.44 6.55c-2.95.22-5.27.42-6.94.6-.06.02-.1.02-.13.02l-.05.07c-2 3.77-1.66 4.3-.84 4.74 1.15.6 2.75-.08 8.9-4.69 22.9-2.38 86.32-.29 185.16-1.03 57.4-.55 117.72-6.76 169.48-17.62 51.86-10.44 95.13-25.51 120.2-34.58 22.23-8.17 34.85-12.05 38.19-9.5 3.55 2.6-3.54 12.9-23.14 29.12a500.56 500.56 0 0 1-18.62 14.5c-27.3 20.5-64.43 43.53-101.05 64.25-36.4 21.02-72.3 39.75-92.25 58.94l-.27.25c-23.81 22.98-27.19 46.3-3.24 64.41 18.4 13.81 52.34 22.34 94.3 20.06 47.12-2.35 100.56-17.84 148.6-41.47 48.3-23.41 91.2-54.97 122.95-84.23 86.93-79.26 128.91-171.2 143.21-222.14z"/><path id="8sdkA" d="M-280.56 500.96c-.12-.36-.1-1.37 1.28-4.2 2.48-.5 5.43-.96 8.84-1.36-5.14 3.48-8.77 5.56-10.12 5.56zm797.38-166.93l-.92.53c-14.38 52.2-57.16 146.45-146.5 226.98C337 591.1 293.24 622.81 244.26 646c-48.72 23.45-102.61 38.35-149.42 39.94-38.5 1.46-68.3-6.4-85.21-19.37-23.94-18.55-19.15-42.93 6.63-67.58 19.95-19.24 54.35-38.31 88.9-59.3 34.76-20.72 69.67-43.37 95.34-63.28a437.49 437.49 0 0 0 20.48-16.6c17.67-15.38 23.63-25.14 19.62-27.86-4.17-2.91-18.47 1.51-43.42 10.59-27.22 9.78-70.85 24.34-122.13 34.2-51.18 10.22-109.93 15.76-165.63 16.09-84.14.65-144.78-1.77-176.1 1.38 2.73-1.91 6-4.28 9.9-7.18 19.18-14.43 50.92-39 88.69-72.35a2186.61 2186.61 0 0 0 92.83-86.8c32.63-32.3 56.5-57.32 77.02-72.26l-.46-.42c-20.57 14.96-44.51 40-77.25 72.3a2189.5 2189.5 0 0 1-93.03 86.7 1457.95 1457.95 0 0 1-88.86 72.21c-4.12 3.04-7.91 5.78-11.15 8.02-4.47.47-8.24 1-11.28 1.62-.04 0-.07 0-.11.02l-.04.05c-2.02 4.1-1.47 4.83-.56 5.32 1.56.84 4.17-.23 12.95-6.28 30.45-3.5 91.8-1.06 177.72-1.75 55.68-.37 114.42-5.9 165.58-16.13 51.22-9.85 94.9-24.41 122.1-34.21 24.12-8.75 38.46-13.21 42.34-10.52 3.75 2.55-2.2 12.05-19.5 27.08a473.04 473.04 0 0 1-20.46 16.56c-25.72 19.91-60.69 42.54-95.53 63.26-34.63 20.99-69.1 40.07-89.2 59.32-.33.35-.67.68-1 1-25.05 24.4-29.5 48.58-5.69 67.07C25.4 680 55.6 687.97 94.56 686.51c47.08-1.58 101.25-16.54 150.17-40.08 49.16-23.27 93.07-55.14 125.55-84.83 89.43-80.76 132.2-175.23 146.54-227.57z"/><path id="8sdkB" d="M-285.2 495.4c3.38-1.02 8.15-1.95 14.27-2.72-8.07 5.16-13.68 8.1-15.25 7.58-.2-.18-.75-1.06.99-4.86zm801.74-165.75c-.3.18-.62.34-.91.53-14.4 53.62-57.98 150.4-149.79 232.4-33.16 29.98-77.96 61.98-127.8 85.03-49.55 23.32-104.17 37.71-150.94 38.51-35.1.75-62.19-6.74-77.57-18.87-23.56-18.8-17.1-44.97 10.17-71.06 20.06-19.28 53.04-38.63 85.87-59.56 32.98-20.68 65.81-42.93 89.97-62.28 8.84-7.03 16.2-13.3 22.23-18.8 15.56-14.3 20.48-23.36 16.23-26-4.86-3.1-20.51 1.84-47.75 11.6-27.37 9.73-71.13 24.04-122.19 33.51-50.94 9.84-109.19 14.85-163.63 14.98-43.87.42-85.98-.58-122.35-.28-16.72.19-32.32.72-44.87 1.97 3.26-2.17 7.05-4.75 11.4-7.81a1194.96 1194.96 0 0 0 86.55-67.73c19.33-16.63 52.84-45.84 84.61-76.96 32.32-30.88 62.92-63.64 89.3-82.15-.15-.15-.27-.3-.42-.44-20.94 14.3-45.15 39.2-78.64 71.73a1957.9 1957.9 0 0 1-95.74 87.33 1199.75 1199.75 0 0 1-86.7 67.6c-4.66 3.26-8.98 6.2-12.82 8.69-6.78.74-12.57 1.75-17 3.1l-.07.03-.02.06c-1.84 4-1.48 5.23-.28 5.9 2.17 1.18 6.84-.93 18.22-8.3 29.92-3.73 87.19-1.83 169.12-2.16 54.43-.14 112.64-5.17 163.58-15.03 51.02-9.46 94.76-23.78 122.13-33.5 26.4-9.46 42.16-14.44 46.68-11.56 3.99 2.52-.93 11.3-16.14 25.25a436.97 436.97 0 0 1-22.21 18.75c-24.2 19.35-57.09 41.6-90.16 62.26-32.88 20.92-65.93 40.29-86.12 59.6-27.46 26.2-34 52.53-10.26 71.51 15.56 12.32 43 19.95 78.58 19.2 47.07-.8 101.93-15.24 151.7-38.66 50.04-23.15 94.97-55.28 128.22-85.41 91.92-82.21 135.46-179.23 149.82-232.98z"/><path id="8sdkC" d="M-291.13 494c4.3-1.81 11.38-3.43 21.26-4.63-11.46 7-20 11.2-21.98 10.09-.12-.07-1.22-.86.72-5.47zm807.36-168.7l-.93.5c-14.37 55.03-58.74 154.4-153.05 237.81-33.92 30.41-79.75 62.66-130.43 85.58-50.42 23.18-105.73 37.04-152.47 37.06-31.94.17-56.54-7.01-70.46-18.38-23.37-19.3-15.12-46.57 14.23-74.49 20-19.27 51.53-38.82 82.63-59.63 31.29-20.59 62.11-42.42 84.8-61.24a400.24 400.24 0 0 0 24.05-21.22c13.63-13.34 17.56-21.74 13.08-24.33-5.52-3.24-23.1 2.32-52.3 12.63-7.63 2.2-45.09 16.82-97.7 27.8-52.53 11.46-120.24 19.3-186.18 18.93-74.24.08-126.5-1.6-157.2 1.77 3.54-2.24 7.5-4.8 11.93-7.76 21.85-14.7 50.86-35.71 84.16-63.4 20.17-16.79 54.9-46.38 87.4-77.73 33.11-31.09 64-63.94 90.61-81.48-.13-.15-.25-.3-.4-.44-26.67 17.55-57.66 50.41-90.86 81.48-32.6 31.36-67.42 60.9-87.62 77.69-33.38 27.62-62.44 48.6-84.32 63.24a490.61 490.61 0 0 1-13.43 8.66c-11.28 1.24-19.32 2.98-23.98 4.93l-.07.1c-1.88 4.33-1.33 5.73.03 6.5 2.83 1.58 9.51-1.28 24.98-10.82 30.18-3.68 83.07-2.06 159.08-2.14 65.9.33 133.57-7.52 186.1-19 52.6-10.99 90.04-25.6 97.7-27.82 28.73-10.13 45.97-15.63 51.2-12.54 4.22 2.43.27 10.59-13.05 23.58a404.34 404.34 0 0 1-24 21.17c-22.73 18.8-53.62 40.65-84.97 61.22-31.16 20.8-62.79 40.36-82.85 59.65-29.55 28-37.92 55.45-14.38 74.94 14.12 11.55 39.05 18.86 71.46 18.71 47.01-.01 102.58-13.92 153.23-37.2 50.91-23.01 96.86-55.4 130.9-85.94 94.4-83.65 138.72-183.24 153.08-238.4z"/><path id="8sdkD" d="M-300.2 497.13c-.1-.38.17-1.47 3.12-4.62 4.01-4.29 13.3-7 26.92-8.48-16.02 8.6-27.44 13.49-30.03 13.1zm816.1-176.2c-.3.18-.62.34-.93.5-9.64 36.4-27.51 79.87-54.26 122.74-26.53 42.94-61.93 85.29-102 120.47-34.72 30.83-81.56 63.33-133.13 86.09-51.29 23.05-107.3 36.33-153.94 35.56-28.91-.34-51.09-7.14-63.64-17.72-23.1-19.68-12.92-48.09 18.53-78 19.95-19.23 50.12-38.96 79.57-59.64 29.62-20.5 58.54-41.94 79.82-60.27a371.14 371.14 0 0 0 25.52-23.65c11.9-12.48 14.93-20.31 10.17-22.83-6.32-3.42-25.4 2.68-56.92 13.61-33.98 11.75-79.36 24.9-129.09 33.1-49.61 8.52-103.54 12.05-152.94 11.98-64.13.18-116.06-2.68-148.36-.04 5.45-3 11.66-6.58 18.66-10.78a696.61 696.61 0 0 0 76.7-54c27.2-21.75 66.1-55.42 101.01-88.76 34.82-32.96 59.51-57.56 81.12-70.56l-.4-.46c-21.66 13.05-46.46 37.68-81.4 70.64-34.97 33.32-73.96 66.94-101.22 88.66a692.61 692.61 0 0 1-76.82 53.84 542.82 542.82 0 0 1-20.31 11.66c-15.18 1.4-25.53 4.19-29.85 8.78-3.95 4.2-3.48 5.08-2.55 5.67 2.28 1.42 11.08-1.73 33.36-13.76 31.9-3.02 84.73-.07 150.4-.3 49.35.06 103.26-3.5 152.88-12.03 49.66-8.2 95.07-21.36 129.03-33.13 30.65-10.62 49.9-16.76 55.86-13.52 4.47 2.37 1.42 9.97-10.18 22.1-6.23 6.49-14.92 14.58-25.51 23.6-21.32 18.3-50.27 39.75-79.93 60.25-29.54 20.68-59.78 40.4-79.8 59.64-31.65 30-41.95 58.57-18.7 78.43 12.74 10.77 35.26 17.7 64.63 18.1 46.93.78 103.21-12.58 154.7-35.72 51.79-22.84 98.8-55.5 133.6-86.47 40.11-35.27 75.53-77.72 102.08-120.76 26.75-43 44.6-86.56 54.24-123.02z"/><path id="8sdkE" d="M-291.22 484.22c6.58-2.04 15.27-3.34 25.74-4.12-21.17 11.24-37.4 17.7-40.14 16.3-.18-.14-.9-1.14 2.61-5.44 2.3-2.82 6.3-5.03 11.79-6.74zM515.5 316.58l-.9.52c-9.65 37.3-27.76 81.85-55.06 125.7-27.07 43.91-63.35 87.13-104.42 122.86-35.49 31.25-83.4 64-135.83 86.58-52.16 22.89-108.83 35.6-155.4 34.02-26.05-.76-45.98-7.2-57.22-17-22.7-20.02-10.4-49.54 23.23-81.53 19.84-19.13 48.64-38.96 76.5-59.5 28-20.34 55.06-41.42 74.98-59.26 11.44-10.19 20.73-19.33 26.9-26.27 10.34-11.7 12.5-19.03 7.5-21.47-7.22-3.6-27.83 3-61.7 14.54-33.81 11.48-78.96 24.29-128.36 32.18-49.32 8.22-102.88 11.5-151.84 11.33-44.19.1-85.24-1.44-118.83-.82-5.8.11-11.24.31-16.33.58a550.59 550.59 0 0 0 18.51-10.53 681.56 681.56 0 0 0 71.66-49.32c27.22-21.22 64.03-52.33 96.93-83.23 33.47-30.68 63.04-61.18 89.34-76.27-.11-.16-.24-.3-.37-.47-26.36 15.12-56.03 45.62-89.6 76.3-32.98 30.9-69.9 61.97-97.19 83.16a679.29 679.29 0 0 1-71.77 49.21 545.76 545.76 0 0 1-20.02 11.32c-20.7 1.31-35.04 4.55-40.38 11.1-3.82 4.68-3.02 5.79-1.97 6.46 3.21 2.02 16.27-2.51 43.24-16.85 5.72-.37 11.92-.6 18.58-.75 33.5-.65 74.45.84 118.54.71 48.92.15 102.47-3.17 151.78-11.4 49.37-7.9 94.5-20.7 128.32-32.18 32.98-11.2 53.8-17.9 60.65-14.47 4.72 2.32 2.52 9.4-7.57 20.77-6.15 6.93-15.42 16.04-26.86 26.19-19.95 17.83-47.05 38.9-75.1 59.25-27.94 20.53-56.81 40.34-76.71 59.49-33.87 32.1-46.24 61.76-23.41 81.97 11.4 10 31.66 16.54 58.2 17.34 46.84 1.6 103.8-11.15 156.17-34.14 52.66-22.67 100.72-55.57 136.29-86.95 41.12-35.84 77.42-79.16 104.5-123.18 27.3-43.97 45.4-88.6 55.02-126z"/><path id="8sdkF" d="M-294.86 481.03c8.6-2.6 20.32-4.06 34.53-4.8a346.34 346.34 0 0 1-28.66 13.66c-15.69 6.41-20.73 6.54-21.99 5.74-.3-.17-1.51-1.31 2.02-6.25 2.55-3.57 7.36-6.3 14.1-8.35zm809.97-168.79l-.89.53c-9.65 38.24-27.98 83.87-55.84 128.7-27.6 44.88-64.72 88.96-106.83 125.23-36.27 31.67-85.25 64.65-138.54 87.04-53.04 22.7-110.38 34.82-156.8 32.41-23.78-1.1-41.12-7.01-51.27-16.21-10.68-9.66-12.88-22.61-7.5-37.23 5.44-14.75 18.34-30.97 35.81-47.82 40.23-37.08 107.44-81.8 143.76-117.43 12.31-11.43 22.2-21.72 28.16-29.04 8.91-11.05 10.28-17.93 5.01-20.28-8.08-3.7-30.88 3.57-66.55 15.45-33.6 11.13-78.42 23.57-127.49 31.2-49 7.92-102.25 11.01-150.95 10.76-43.7.04-84.1-1.4-116.9-.44-1.57.04-3.12.1-4.65.17a518.92 518.92 0 0 0 16.6-9.33c20-11.65 43.8-27.2 67.9-45.64 28.3-21.36 66.27-52.86 99.84-83.98 34.21-30.9 64.02-61.44 90.6-75.69l-.36-.47c-26.64 14.27-56.54 44.8-90.85 75.7-33.67 31.14-71.75 62.6-100.1 83.94a670.54 670.54 0 0 1-68 45.52 528.92 528.92 0 0 1-18.01 10.04c-26.75 1.2-45.3 4.86-51.37 13.35-3.53 4.9-2.75 6.4-1.36 7.29 4.23 2.66 21.17-2.86 53.58-19.91 2.23-.11 4.5-.2 6.85-.28 32.7-1 73 .4 116.6.35 48.66.22 101.88-2.9 150.86-10.84 49.06-7.64 93.86-20.1 127.46-31.23 35.26-11.74 57.72-18.95 65.52-15.36 5 2.22 3.55 8.89-5.12 19.6-5.94 7.31-15.83 17.57-28.15 28.97C139.76 502.93 72.48 547.6 32.08 584.7c-17.56 16.89-30.53 33.14-36 47.93-5.48 14.7-3.26 27.77 7.49 37.54 10.33 9.38 28 15.41 52.22 16.58 46.71 2.42 104.34-9.73 157.6-32.54 53.53-22.47 102.67-55.6 139.02-87.4 42.14-36.37 79.3-80.57 106.92-125.56 27.84-44.93 46.16-90.66 55.78-129z"/><path id="8sdkG" d="M-298.32 477.51c10.82-3.18 25.81-4.64 43.69-5.28-14.3 7.52-26.66 13.17-36.73 17.05-14.01 5.42-22.61 7.04-25 5.52-.64-.43-1.8-1.96 1.46-7.1 2.86-4.52 8.58-7.84 16.58-10.19zM514.7 307.92l-.91.53c-9.64 39.17-28.19 85.89-56.6 131.7-28.14 45.85-66.13 90.8-109.24 127.59-49.62 42.63-103.16 73.12-153.36 92.21-56.68 21.6-107.55 28.53-146.1 26.02-21.27-1.39-36.74-6.92-45.74-15.4-21.12-20.11-3.84-52.56 33.82-88.56 39.64-36.8 102.27-81.25 136.12-115.85 13.25-12.8 23.74-24.36 29.37-32.08 7.6-10.44 8.24-16.93 2.68-19.2-9.15-3.83-33.53 3.97-71.46 16.28-33.32 10.77-77.76 22.87-126.5 30.23-48.69 7.67-101.65 10.6-150.23 10.3-40.26-.03-77.47-1.05-107.4-.3 4.22-2.28 8.67-4.72 13.3-7.38a654.51 654.51 0 0 0 64.93-42.58c44.39-32.88 80.14-64.28 109.27-90.79C-26.37 297-.83 272.74 22 261.54l-.33-.48C-1.26 272.3-26.92 296.57-64 330.26c-29.2 26.5-65.01 57.85-109.47 90.68a664.84 664.84 0 0 1-65.03 42.47 586.1 586.1 0 0 1-14.65 8.04c-32.37.94-55.88 4.55-62.91 15.6-3.43 5.37-2.31 7.12-.77 8.12 5.34 3.39 25.8-2.77 64.56-23.01 30.17-.9 68.09.14 109.2.14 48.55.28 101.5-2.7 150.14-10.36 48.74-7.38 93.18-19.48 126.49-30.27 37.53-12.2 61.58-19.93 70.43-16.2 5.27 2.17 4.58 8.46-2.8 18.59-5.63 7.67-16.13 19.18-29.35 31.98C137.9 500.6 75.19 545.01 35.4 581.82c-37.86 36.1-55.26 68.67-34.01 88.95 9.16 8.66 24.92 14.34 46.64 15.78 38.88 2.53 90.1-4.43 147.09-26.18 50.34-19.19 104-49.76 153.7-92.54 43.15-36.9 81.15-81.95 109.32-127.9 28.4-45.92 46.94-92.74 56.56-132z"/><path id="8sdkH" d="M-301.72 474.01c9.66-2.79 22.32-4.37 37.3-5.2 5.12-.28 10.46-.48 16-.61-37.52 19.7-67.35 29.6-73.32 25.7-.99-.63-2.19-2.53.87-7.94 3-5.3 9.64-9.22 19.15-11.95zM514.23 303.6c-.3.18-.59.36-.9.53-9.58 40.14-28.36 87.95-57.3 134.73-28.7 46.83-67.56 92.62-111.69 129.93-50.68 43.16-105.33 73.7-156.3 92.54-57.58 21.34-108.87 27.6-147.24 24.38-18.99-1.59-32.7-6.76-40.65-14.56-20.3-20.15-.31-53.62 39.7-92.03 38.74-36.46 95-78.54 128.63-113.95 14.76-14.97 25.28-27.34 30.5-35.42 6.4-9.93 6.29-16.07.44-18.27-10.26-3.92-36.22 4.37-76.36 17.07-33 10.39-77.03 22.12-125.46 29.24-48.34 7.42-101.07 10.23-149.59 9.9-33.89-.06-65.5-.79-92.76-.31 2.88-1.53 5.84-3.15 8.86-4.83a650.36 650.36 0 0 0 62.51-39.97c37.2-26.53 76.98-59.8 110.63-90.28 34.18-30.36 62.24-57.93 88.19-69.88l-.33-.49c-26 11.99-54.15 39.56-88.44 69.91-33.74 30.48-73.63 63.73-110.92 90.23a654.56 654.56 0 0 1-62.6 39.86 645.8 645.8 0 0 1-10.14 5.5c-6.3.13-12.35.33-18.13.64-29.95 1.57-50.74 6.38-56.91 17.26-2.61 4.57-2.68 7.34-.19 8.96 6.53 4.19 31.85-3.06 76.07-26.15 27.62-.58 59.9.13 94.55.17 48.48.3 101.17-2.53 149.49-9.99 48.41-7.12 92.43-18.85 125.43-29.26 39.19-12.37 65.55-20.73 75.37-16.98 5.58 2.1 5.58 8.04-.62 17.67-5.2 8.02-15.74 20.37-30.48 35.3-33.7 35.38-90.04 77.41-128.89 113.89-40.24 38.48-60.34 72.08-39.92 92.43 8.1 7.96 22.1 13.28 41.5 14.9 38.73 3.27 90.38-3.04 148.28-24.5 51.13-18.93 105.88-49.58 156.66-92.89 44.16-37.4 83.03-83.3 111.74-130.23 28.95-46.9 47.72-94.82 57.27-135.05z"/><path id="8sdkI" d="M-305.17 470.17c9.1-2.55 20.57-4.1 34.13-5.01 9.09-.62 18.91-.93 29.33-1.1-42.9 22.63-78.05 33.78-85.41 28.92-1.44-.95-2.55-3.25.29-8.8 3.26-6.42 10.71-10.97 21.66-14.01zM513.75 299.3c-.3.18-.58.36-.9.53-9.54 41.1-28.53 90-58.02 137.76-29.25 47.8-68.95 94.45-114.1 132.26-51.8 43.7-107.53 74.28-159.3 92.85-58.45 21.02-110.15 26.6-148.33 22.7-16.85-1.75-28.98-6.6-35.92-13.72-19.4-20.12 3.46-54.55 45.95-95.45 30.55-29.18 75.96-62.03 106.95-92.03 27.35-25.82 45.15-48.12 45.91-58.9.7-10.34-2.77-15.7-10.38-17.14-11.48-2.4-31.47 4.72-72.63 17.59C80.3 435.73 36.7 447.1-11.4 453.99c-48.02 7.2-100.52 9.9-149.05 9.56-27.94-.05-54.23-.49-77.68-.25l3.52-1.9a647.62 647.62 0 0 0 60.5-37.7c47.9-33.6 85.11-65.8 114.83-92.19 38.35-34.16 64.45-58.2 88.19-68.25l-.3-.51c-23.85 10.1-50.06 34.18-88.56 68.4C-89.72 357.49-127 389.67-175 423.18a639.96 639.96 0 0 1-65.32 40.15c-11.2.13-21.74.44-31.45 1.1-30.08 1.93-50.14 7.21-56.23 19.1-2.51 4.86-2.38 7.99.4 9.81 7.8 5.05 37.25-2.75 88.1-29.31 23.88-.31 50.8.1 79.44.14 48.5.31 100.97-2.42 148.96-9.64 48.07-6.9 91.67-18.27 124.35-28.27 40.82-12.76 60.59-19.85 71.77-17.48 7.35 1.4 10.64 6.65 9.93 16.77-.76 10.62-18.49 32.81-45.77 58.48-31.08 30-76.56 62.8-107.22 92.01-42.69 40.98-65.67 75.52-46.17 95.84 7.09 7.3 19.5 12.26 36.79 14.07 38.51 3.97 90.59-1.64 149.38-22.82 51.9-18.65 107.76-49.34 159.65-93.17 45.18-37.92 84.92-84.67 114.16-132.59 29.48-47.86 48.47-96.9 57.98-138.07z"/><path id="8sdkJ" d="M-308.35 466.2c17.78-4.86 43.36-6.06 73.82-6.36l-.09.06c-48.3 25.65-89.06 38-97.9 32.1-1.65-1.1-3.05-3.7-.28-9.7 3.51-7.57 12.08-12.73 24.45-16.1zM513.26 295l-.9.54c-9.36 41.41-28.63 91.86-58.9 140.9-29.95 49.11-70.9 96.8-116.37 134.5-52.91 44.23-109.77 74.8-162.28 93.1-59.35 20.7-111.44 25.6-149.39 20.95-14.94-1.84-25.6-6.34-31.63-12.85-18.37-19.98 7.56-55.31 52.56-98.84 30.38-29.17 73.12-62.2 102.3-91.88 22.88-22.74 38.82-42.82 43.1-54.72.8-2.2 1.22-4.12 1.18-5.74-.14-9.65-4.35-14.86-12.42-16.27-12.86-2.44-34.86 5.16-77.45 18.06-32.38 9.6-75.58 20.6-123.35 27.27-47.7 6.96-99.98 9.59-148.57 9.28-22.21-.04-43.13-.28-62.22-.17a637.05 637.05 0 0 0 56.19-34.3c57.77-39.47 98.77-76.42 130.75-104.53 31.97-28.28 54.95-47.72 76.52-56.23-.1-.18-.2-.35-.27-.51-21.65 8.53-44.7 27.99-76.76 56.28-32.09 28.1-73.2 65.05-131.12 104.48a632.54 632.54 0 0 1-57.42 34.81c-52.79.28-91.87 3.54-100.78 22.52-2.44 5.23-2.13 8.66.98 10.73 9.64 6.38 46.98-4.26 99.32-31.86l1.28-.7c19.55-.12 41.05.08 63.95.1 48.56.27 100.8-2.37 148.46-9.35 47.73-6.69 90.93-17.71 123.29-27.31 42.3-12.81 64.06-20.35 76.65-17.95 7.8 1.35 11.83 6.47 11.97 15.9.13 10.25-17.18 33.26-44.22 60.08-29.2 29.66-72.04 62.66-102.52 91.85-21.7 21.15-39.65 40.52-49.83 57.35-10.59 17.44-12.2 31.85-2.97 41.84 6.17 6.66 17.12 11.31 32.48 13.19 38.3 4.72 90.76-.2 150.45-21.03 52.67-18.36 109.63-49.08 162.65-93.45 45.5-37.79 86.47-85.6 116.42-134.83 30.26-49.15 49.54-99.7 58.87-141.2z"/><path id="8sdkK" d="M-311.48 462.04c7.74-2.06 16.89-3.5 27.27-4.46 16.66-1.57 36.1-1.97 57.38-2.08a446.04 446.04 0 0 1-7.05 3.72c-50.87 26.34-94.04 38.5-104.02 31.74-1.9-1.26-3.6-4.16-.88-10.59 3.7-8.67 13.18-14.58 27.3-18.33zM512.7 290.72c-.27.18-.58.36-.86.53-9.29 42.38-28.78 93.96-59.6 143.97-30.5 50.09-72.33 98.64-118.8 136.82-54.05 44.74-112.04 75.34-165.35 93.34-60.2 20.33-112.66 24.48-150.34 19.1C4.58 682.58-4.79 678.41-10 672.5c-8.63-9.84-5.9-24.43 6.13-42.43 11.42-17.2 30.68-37.35 53.42-59.7 30.04-29 70.03-62.01 97.31-91.22 27.06-28.31 44-52.47 43.05-62.57-.89-9.18-5.68-14.14-14.28-15.48-14.3-2.46-38.39 5.57-82.37 18.45-32.09 9.2-74.89 19.84-122.33 26.3-47.4 6.74-99.45 9.3-148.1 9.03-16.12-.02-31.64-.09-46.31-.07a638.24 638.24 0 0 0 47.83-28.86c59.69-39.7 101.56-77.13 134.06-105.4 32.5-28.46 55.63-47.76 77.45-55.72-.07-.17-.14-.35-.23-.53-24.84 9.02-51.62 32.94-91.52 67.69-30.25 26.22-68.95 59.25-120.64 93.43a637.73 637.73 0 0 1-49 29.39c-22.1.05-42.24.42-59.44 2-29.48 2.66-49.18 9.31-54.97 22.9-2.39 5.58-1.9 9.3 1.56 11.63 10.85 7.29 52.33-4.05 105.44-31.5 2.7-1.4 5.43-2.85 8.18-4.34 15.18-.05 31.27.02 48.03.02 48.61.22 100.61-2.35 147.99-9.11 47.42-6.49 90.2-17.15 122.25-26.35 43.71-12.79 67.58-20.79 81.6-18.34 8.32 1.33 12.95 6.17 13.8 15.15.93 9.93-16.01 33.98-43 62.15-27.33 29.2-67.4 62.17-97.5 91.18C-.17 617.17-29 652.48-11.38 672.66c5.35 6.1 14.97 10.4 28.54 12.36 38.03 5.46 90.86 1.27 151.46-19.2 53.44-18.06 111.57-48.78 165.66-93.67 46.55-38.29 88.4-86.95 118.9-137.15 30.81-50.14 50.3-101.81 59.53-144.28z"/><path id="8sdkL" d="M-314.51 457.73c6.94-1.8 14.88-3.12 23.76-4.08 20.28-2.2 44.87-2.5 72.1-2.61-5 2.71-9.9 5.27-14.7 7.69-53.32 26.93-98.83 38.79-109.97 31.17-3.08-2.11-3.57-6-1.42-11.51 3.88-9.95 14.45-16.58 30.23-20.66zm826.66-171.25c-.31.16-.58.34-.88.53-9.23 43.32-28.9 96.03-60.27 147.05-31.03 51.09-73.77 100.48-121.3 139.1-55.18 45.29-114.3 75.88-168.38 93.51-61.09 19.97-113.87 23.38-151.22 17.28-11.6-1.92-19.75-5.78-24.24-11.17-16.27-19.64 15.8-55.57 66.85-105.35 29.45-28.62 66.62-61.33 91.98-89.84 27.22-30 43.89-55.48 42.21-65.36-1.5-8.78-6.83-13.5-15.94-14.83-15.76-2.48-42.05 6.01-87.36 18.78-31.8 8.8-74.21 19.1-121.37 25.35-47.08 6.52-98.91 9.02-147.65 8.84-10.26 0-20.28-.02-29.97 0a651.5 651.5 0 0 0 38.99-23.29c54.13-35.15 92.3-67.81 123.22-94.29 40.41-34.98 67.36-58.78 92.57-67.21l-.25-.53c-25.3 8.5-52.4 32.32-93 67.36-30.97 26.45-69.2 59.07-123.44 94.14a634.59 634.59 0 0 1-40.1 23.82c-28.02.05-53.33.3-74.12 2.51-29.2 3.04-48.74 10.37-54.4 24.85-2.35 5.94-1.66 9.95 2.15 12.54 11.95 8.14 55.68-2.86 111.36-30.92a538.5 538.5 0 0 0 15.78-8.31l31.66-.04c48.69.15 100.49-2.38 147.53-8.92C9.7 435.8 52.08 425.5 83.86 416.7c45.05-12.73 71.12-21.15 86.6-18.69 8.85 1.3 14 5.92 15.46 14.52 1.64 9.71-15.03 35.1-42.2 64.94-25.42 28.5-62.62 61.14-92.14 89.79-51.3 49.8-83.48 85.85-67.1 105.67 4.59 5.56 12.99 9.53 24.98 11.52 37.71 6.2 90.9 2.78 152.4-17.33 54.2-17.73 113.45-48.43 168.7-93.83 47.58-38.74 90.32-88.24 121.35-139.46 31.4-51.13 51.04-103.95 60.24-147.36z"/><path id="8sdkM" d="M-317.52 453.24c25.47-6.43 62.86-6.68 107.55-6.83a588.5 588.5 0 0 1-22.99 11.97c-55.72 27.42-103.5 38.9-115.77 30.4-3.42-2.38-4.1-6.59-1.98-12.45 4.13-11.45 15.86-18.73 33.2-23.09zm829.08-171.03l-.87.53c-9.15 44.31-29 98.17-60.95 150.17-31.57 52.09-75.24 102.34-123.8 141.42-56.34 45.79-116.6 76.34-171.45 93.65-61.97 19.57-115.04 22.2-152.03 15.3-10.17-1.87-17.25-5.42-21.06-10.32-14.98-19.13 20.62-55.74 74.46-108.5 31.53-30.89 66.58-65.81 90.27-95.71 22.43-27.8 36.33-50.98 37.78-60.84 1.2-8.23-2.46-13.14-10.44-14.9-16.58-3.68-50.9 6.65-99.4 19.62-31.5 8.42-73.56 18.35-120.44 24.4-46.8 6.32-98.42 8.74-147.2 8.67-4.46.02-8.87.02-13.2.02a628.64 628.64 0 0 0 29.6-17.53c64.39-40.72 107.59-79.26 140.9-107.64 33.21-28.68 56.51-47.21 79.18-54.28l-.2-.53c-25.87 7.96-53.24 31.76-94.5 67.07-31.18 26.36-70.06 59.47-126.27 94.85a633.68 633.68 0 0 1-30.67 18.08c-76.08-.04-132.42.89-143.17 29.91-2.28 6.23-1.37 10.66 2.72 13.49 13.06 9.03 59-1.59 117.13-30.14a598.5 598.5 0 0 0 24.07-12.59l14.89-.06c48.72.04 100.3-2.44 147.05-8.78 46.86-6.05 88.86-16 120.38-24.41 48.21-12.92 82.26-23.2 98.57-19.53 7.69 1.7 11.2 6.46 10.04 14.46-1.48 9.77-15.38 32.87-37.77 60.58-23.74 29.87-58.87 64.76-90.45 95.62C-.22 617.84-35.34 653.48-20 673.1c3.91 5.03 11.24 8.73 21.77 10.72 37.35 6.97 90.86 4.33 153.23-15.4 54.97-17.36 115.39-48.03 171.81-93.96 48.6-39.2 92.29-89.55 123.86-141.75 31.94-52.13 51.78-106.1 60.9-150.5z"/><path id="8sdkN" d="M-320.45 448.47c28-6.88 69.37-6.56 119.3-6.9h.43a591.23 591.23 0 0 1-32.03 16.6c-55.7 26.92-107.9 38.95-121.39 29.42-3.78-2.64-4.64-7.18-2.56-13.4 4.37-12.98 17.2-21.07 36.25-25.72zm831.38-170.5l-.85.53c-9.08 45.3-29.1 100.3-61.59 153.3-32.14 53.11-76.74 104.2-126.34 143.74-57.53 46.31-118.99 76.81-174.56 93.72C84.73 688.4 31.36 690.23-5.2 682.58c-24.52-5.28-27.09-19.91-10.54-42.62 14.13-19.84 41.97-45.82 74.72-78.47 28.91-28.7 59.01-59.83 81.57-88.82 25.2-32.03 40.08-58.82 40.4-69.16.23-8.04-4.2-12.76-12.75-14.4-18.03-3.53-53.7 7-103.52 19.8-30.85 7.91-71.84 17.35-117.67 23.2-45.75 6.12-96.34 8.64-144.6 8.76 6.53-3.7 13.11-7.56 19.63-11.55 58.1-35.8 97.55-69.41 128.87-95.72 41.76-35.57 69.3-59.24 95.53-66.65a6.6 6.6 0 0 0-.2-.55c-26.38 7.47-54.04 31.2-96 66.81-31.36 26.28-70.88 59.86-129.07 95.57a656.14 656.14 0 0 1-20.7 12.11c-.7 0-1.4 0-2.11.02-39.85.27-75.65.13-102.87 3.8-29.06 3.87-47.81 12.33-53.39 28.81-2.22 6.58-1.15 11.36 3.28 14.44 14.2 9.93 62.24-.22 122.79-29.18a576.3 576.3 0 0 0 33.03-17.23c48.43-.15 99.32-2.64 145.36-8.78 46.11-5.87 87.38-15.38 118.4-23.34 49.53-12.74 84.93-23.22 102.72-19.72 8.27 1.6 12.51 6.22 12.3 14.03-.33 10.22-15.24 36.93-40.4 68.86-22.63 28.97-52.76 60.07-81.73 88.73-32.84 32.63-60.75 58.6-74.96 78.45-16.78 22.96-14.05 37.85 11.2 43.3 36.94 7.75 90.72 5.95 153.96-13.36 55.74-17 117.32-47.6 174.95-94.05 49.65-39.65 94.27-90.85 126.4-144.07 32.5-53.13 52.5-108.26 61.52-153.63z"/><path id="8sdkO" d="M-323.23 443.9c27.58-6.6 67.01-6.77 114.13-7.24 5.9-.06 11.84-.13 17.8-.24a634.24 634.24 0 0 1-57.54 27.8c-53.3 22.42-98.1 31.12-110.94 21.94-3.97-2.8-4.96-7.61-2.9-14.16 4.54-14.39 18.57-23.15 39.45-28.1zM510.3 273.72c-.29.19-.6.37-.87.53-8.97 46.28-29.17 102.47-62.24 156.5-32.69 54.1-78.24 106.05-128.93 146.03-58.74 46.8-121.4 77.23-177.7 93.74-63.73 18.71-117.31 19.71-153.37 11.28-28.84-7.33-19.08-26.57 1.33-50.02 20.73-23.34 52.07-50.87 73.54-73.3 25.81-25.78 52-53.94 71.98-79.9 28.9-37.27 45-68.55 43.97-79.48-.77-7.86-5.98-12.41-15.16-13.96-19.53-3.32-56.48 7.32-107.37 19.88C26.66 412.1-11 420.57-53.3 426.22c-42.21 5.85-89.06 8.85-134.8 9.5 3.11-1.74 6.24-3.49 9.38-5.27 47.46-26.72 94.8-63.8 132.35-96.19 42.74-36.68 69.38-59.76 96.4-66.7a6.05 6.05 0 0 1-.18-.53c-27.17 6.98-53.95 30.12-96.88 66.85-37.6 32.36-85.01 69.38-132.55 96.02-3.5 1.98-7 3.93-10.48 5.85-6.55.1-13.08.18-19.55.23-39.39.4-74.72.51-101.33 4.5-28.8 4.3-47.41 13.43-52.92 30.83-2.2 6.93-1.02 11.94 3.6 15.22 13.66 9.7 56.7 1.7 112.34-21.65a634.34 634.34 0 0 0 58.58-28.5c45.96-.63 93.1-3.62 135.6-9.5 42.57-5.67 80.48-14.2 109.47-21.32 50.65-12.52 87.35-23.1 106.63-19.79 8.9 1.51 13.95 5.94 14.68 13.6 1 10.81-15.12 42-44 79.14-20 25.94-46.24 54.06-72.11 79.82-21.56 22.5-53.12 50.09-73.85 73.54-20.42 23.52-30.04 42.94-.66 50.41 36.44 8.57 90.47 7.58 154.62-11.28 56.48-16.58 119.25-47.11 178.1-94.08 50.72-40.09 96.3-92.16 128.96-146.38 33.09-54.14 53.28-110.44 62.2-156.8z"/><path id="8sdkP" d="M-326.09 438.8c26.82-6.23 64.21-6.55 109.1-7.2 11.8-.16 24.13-.36 36.83-.7l-.18.1a635.84 635.84 0 0 1-63.56 31.33c-55.4 23.57-106.73 33.18-121.25 22.6-4.35-3.13-5.56-8.28-3.5-15.2 4.76-16.11 19.88-25.71 42.56-30.92zm835.72-169.3l-.86.55c-8.85 47.26-29.24 104.62-62.87 159.66-33.27 55.14-79.79 107.94-131.55 148.39-60.02 47.31-123.88 77.63-180.93 93.72-64.59 18.2-118.35 18.35-153.85 9.13-19.51-5.28-19.82-17.84-3.42-37.68 16.12-20.08 48.96-47.48 88.97-87.78 21.9-22.05 43.8-46.21 60.87-68.31 32.89-42 51.85-80.8 49.1-92.5-1.73-7.7-7.78-12.07-17.65-13.52-21.4-3.17-58.49 7.34-111.02 19.78-37.15 8.88-80.99 17.42-124.9 22.36-33.74 3.92-67.2 5.92-98.5 6.83 47.25-26.6 94.35-63.1 132.48-95.58 43.46-36.91 70.46-59.9 98.1-66.4l-.14-.54c-27.84 6.52-54.96 29.59-98.63 66.56-38.46 32.7-86.07 69.43-133.72 96.02-13.31.38-26.25.58-38.6.74-82.94.66-141.46 2.15-152.34 38.1-2.19 7.29-.79 12.67 4.23 16.27 15.28 11.1 64.68 2.26 122.63-22.34a630.6 630.6 0 0 0 63.48-31.4l1.26-.72c73.48-1.2 156.53-12.4 224.9-29.35 51.57-12.17 89.49-22.8 110.3-19.71 9.61 1.4 15.5 5.68 17.2 13.19 2.67 11.57-16.33 50.27-49.2 92.14-17.1 22.08-39.01 46.2-60.97 68.21-40.22 40.41-73.2 67.87-89.3 88.06-16.37 19.95-15.84 32.63 4.07 38.02 35.88 9.37 90.1 9.26 155.14-9.12 57.18-16.15 121.19-46.6 181.3-94.07 51.81-40.52 98.35-93.45 131.6-148.72 33.65-55.15 54-112.63 62.82-159.99z"/><path id="8sdkQ" d="M-208.2 446.54a555 555 0 0 1-24.6 11.6c-61.98 27.72-120.78 38.07-137.61 25.63-4.83-3.52-6.27-9.1-4.23-16.36 10.57-37.15 68.36-39.94 149.88-40.96 17.69-.35 36.62-.73 56.13-1.53a630.32 630.32 0 0 1-39.57 21.63zm716.28-180.7c-8.73 48.26-29.28 106.82-63.53 162.89-33.82 56.17-81.35 109.84-134.25 150.71-61.29 47.83-126.39 78.02-184.13 93.63C60.73 690.78 6.81 690.05-28.03 680c-19.82-5.87-15.74-20.54 8.08-44.3 18.73-19.25 49.48-44.23 88.1-83.24 16.8-17.1 32.99-34.99 47.2-52.8 40.25-50 61.58-96.77 56.85-109.43-2.74-7.55-9.68-11.77-20.34-13.1-23.03-2.92-61.2 7.54-114.36 19.6-38.05 8.55-80.83 16.58-125.41 21.45-26.33 2.93-52.48 4.79-77.58 5.88 47.53-28.1 91.92-63.59 128.05-93.83 36.71-30.21 65.17-55.15 94.63-61.51-.05-.2-.07-.37-.13-.57-29.68 6.42-58.35 31.56-95.38 61.91-36.4 30.4-81.17 66-129.03 94.1-20.19.85-39.68 1.27-57.94 1.6-39.08.67-72.55 1.18-98.44 5.97-28.26 5.16-46.66 15.7-52.1 34.95-2.16 7.69-.52 13.44 4.94 17.45 17.6 12.92 74.2 3.5 139-25.36a599.12 599.12 0 0 0 51.62-26.1c4.52-2.54 9.02-5.17 13.5-7.84 68.4-2.34 142.3-13.09 204.54-27.57 52.16-11.79 91.23-22.36 113.66-19.51 10.42 1.29 17.18 5.43 19.84 12.82 4.66 12.54-16.73 59.16-56.96 109-14.25 17.8-30.43 35.67-47.28 52.74-38.7 38.96-69.49 63.9-88.3 83.18-24.46 24.3-28.36 38.79-7.6 44.94 35.21 10.2 89.6 10.97 155.5-6.88 57.92-15.69 123.15-45.99 184.53-93.96 52.95-40.98 100.5-94.78 134.32-151.07 34.25-56.19 54.77-114.87 63.44-163.21z"/><path id="8sdkR" d="M-331.64 428.56c46.73-9.05 110.83-6.3 152.42-9.02 7.62-.33 15.29-.69 22.98-1.13-25.33 15.42-51.58 29.08-76.76 39.9-64.03 27.88-124.9 37.54-142.85 24.1-5.17-3.83-6.81-9.76-4.77-17.4 5.72-21.29 24.96-31.2 48.98-36.45zM508.2 261.12l-.86.53c-8.58 49.25-29.3 109.03-64.13 166.15-34.4 57.2-82.98 111.76-137.06 153.06-62.64 48.34-128.96 78.37-187.4 93.5-66.3 17.13-120.28 15.5-154.35 4.65-23.94-8.25-4.75-27.7 26.84-56.13 31.88-28.24 76.14-65.43 108.66-104.9 31.1-36.18 53.99-73.59 64.08-99.75 6.09-15.56 8.02-27.11 5.34-32.43-4.83-9.47-16.05-13.41-33.18-13.08-28.37.43-69.9 12.22-120.49 22.4-50.37 10.54-109.79 19.47-168.9 22.47 33.31-20.4 64.76-43.82 92.29-66.04 57.32-46.72 88.7-76.05 121.76-82.32l-.12-.55c-33.27 6.29-64.76 35.7-122.33 82.48-27.84 22.41-59.71 46.03-93.43 66.54-8.24.48-16.44.86-24.6 1.2-31.92 1.72-76.09 1.3-116.61 4.01-40.18 3.4-76.69 9.97-85.52 41.36-2.15 8.06-.35 14.18 5.48 18.5 18.7 13.93 77.3 5.17 144.21-23.82 25.5-11.02 52.1-24.94 77.73-40.65 59.21-2.98 118.88-11.91 169.44-22.48 50.78-10.2 92.47-22.06 120.86-22.5 16.81-.31 27.8 3.55 32.5 12.84 7.43 13.85-19.46 74.07-69.58 131.72-33.78 40.1-77.55 77.56-109.54 105.34-36.59 31.58-47.64 48.94-25.78 56.21 34.45 11 88.91 12.7 155.67-4.59 58.63-15.2 125.1-45.33 187.85-93.83 54.1-41.42 102.69-96.1 137.1-153.43 34.84-57.23 55.52-117.12 64.07-166.46z"/><clipPath id="8sdkb"><use xlink:href="#8sdka"/></clipPath></defs><g><g transform="rotate(168 286.97 393.47)"><g><g/><g clip-path="url(#8sdkb)"><use fill="#fff" xlink:href="#8sdkc"/></g></g><g><use fill="#e9e9e9" xlink:href="#8sdkd"/></g><g><use fill="#e9e9e9" xlink:href="#8sdke"/></g><g><use fill="#e9e9e9" xlink:href="#8sdkf"/></g><g><use fill="#e9e9e9" xlink:href="#8sdkg"/></g><g><use fill="#e9e9e9" xlink:href="#8sdkh"/></g><g><use fill="#e9e9e9" xlink:href="#8sdki"/></g><g><use fill="#e9e9e9" xlink:href="#8sdkj"/></g><g><use fill="#e9e9e9" xlink:href="#8sdkk"/></g><g><use fill="#e9e9e9" xlink:href="#8sdkl"/></g><g><use fill="#e9e9e9" xlink:href="#8sdkm"/></g><g><use fill="#e9e9e9" xlink:href="#8sdkn"/></g><g><use fill="#e9e9e9" xlink:href="#8sdko"/></g><g><use fill="#e9e9e9" xlink:href="#8sdkp"/></g><g><use fill="#e9e9e9" xlink:href="#8sdkq"/></g><g><use fill="#e9e9e9" xlink:href="#8sdkr"/></g><g><use fill="#e9e9e9" xlink:href="#8sdks"/></g><g><use fill="#e9e9e9" xlink:href="#8sdkt"/></g><g><use fill="#e9e9e9" xlink:href="#8sdku"/></g><g><use fill="#e9e9e9" xlink:href="#8sdkv"/></g><g><use fill="#e9e9e9" xlink:href="#8sdkw"/></g><g><use fill="#e9e9e9" xlink:href="#8sdkx"/></g><g><use fill="#e9e9e9" xlink:href="#8sdky"/></g><g><use fill="#e9e9e9" xlink:href="#8sdkz"/></g><g><use fill="#e9e9e9" xlink:href="#8sdkA"/></g><g><use fill="#e9e9e9" xlink:href="#8sdkB"/></g><g><use fill="#e9e9e9" xlink:href="#8sdkC"/></g><g><use fill="#e9e9e9" xlink:href="#8sdkD"/></g><g><use fill="#e9e9e9" xlink:href="#8sdkE"/></g><g><use fill="#e9e9e9" xlink:href="#8sdkF"/></g><g><use fill="#e9e9e9" xlink:href="#8sdkG"/></g><g><use fill="#e9e9e9" xlink:href="#8sdkH"/></g><g><use fill="#e9e9e9" xlink:href="#8sdkI"/></g><g><use fill="#e9e9e9" xlink:href="#8sdkJ"/></g><g><use fill="#e9e9e9" xlink:href="#8sdkK"/></g><g><use fill="#e9e9e9" xlink:href="#8sdkL"/></g><g><use fill="#e9e9e9" xlink:href="#8sdkM"/></g><g><use fill="#e9e9e9" xlink:href="#8sdkN"/></g><g><use fill="#e9e9e9" xlink:href="#8sdkO"/></g><g><use fill="#e9e9e9" xlink:href="#8sdkP"/></g><g><use fill="#e9e9e9" xlink:href="#8sdkQ"/></g><g><use fill="#e9e9e9" xlink:href="#8sdkR"/></g></g></g></svg>