<svg xmlns="http://www.w3.org/2000/svg" xmlns:xlink="http://www.w3.org/1999/xlink" width="2178" height="720" viewBox="0 0 2178 720"><defs><path id="ukb5a" d="M-69 1032h2178v720H-69z"/><path id="ukb5c" d="M1230.6 1307.9c-2.9.04-5.8.1-8.68.17 2.78-2.25 5.57-4.48 8.38-6.7l8.73.42c-2.8 2.01-5.62 4.04-8.43 6.1zm10.46-.13c-3.01.02-6.01.05-9 .1 2.75-2.02 5.5-4.02 8.28-6 2.99.15 5.98.33 9 .5a834.1 834.1 0 0 0-8.28 5.4zm10.27-.04c-2.9 0-5.8 0-8.68.03 2.69-1.78 5.39-3.55 8.1-5.3l8.68.57c-2.7 1.55-5.4 3.12-8.1 4.7zm10.3.05l-8.55-.05c2.63-1.54 5.27-3.07 7.92-4.6l8.53.63a805.1 805.1 0 0 0-7.9 4.02zm10.34.14l-8.38-.12c2.55-1.31 5.1-2.62 7.67-3.9 2.77.21 5.54.44 8.33.67-2.54 1.1-5.08 2.22-7.62 3.35zm10.33.24l-8.14-.19a786.1 786.1 0 0 1 7.36-3.23l8.07.72a812.9 812.9 0 0 0-7.3 2.7zm10.37.33c-2.62-.1-5.22-.18-7.82-.25 2.3-.87 4.62-1.72 6.95-2.57l7.7.75c-2.28.68-4.55 1.37-6.83 2.07zm10.05.4l-7-.29c2.12-.64 4.24-1.28 6.37-1.9l6.9.72c-2.1.48-4.18.98-6.27 1.48zm10.55.52l-6.49-.33 5.58-1.29 6.29.71-5.38.91zm10.68.63l-5.63-.34 4.37-.72 5.26.64c-1.34.13-2.67.28-4 .42zm10.95.74l-4.29-.3 2.36-.23c1.2.16 2.42.3 3.63.47l-1.7.06zm-698 440.04c-362.46-8-539.66-233.2-624.48-420.73-37.15-82.13-60-163.88-73.92-229.06 1.32.98 2.68 2 4.1 3.04 15.73 62.48 40.8 140.97 79.9 219.72 56.64 114.03 130.58 205.31 219.78 271.3 111.5 82.5 247.26 125.49 403.53 127.76 1.33.02 2.66.02 4 .02 68.75 0 132.82-22.2 201.22-69.7 62.06-43.1 119.67-101.37 180.66-163.06a5732.94 5732.94 0 0 1 54.93-55.05 5320.77 5320.77 0 0 0-59.47 64.5c-119.43 131-232.22 254.73-390.25 251.26zm-696.65-656.23l1.92 7.79-4.02-2.99-1.7-8.11a925.9 925.9 0 0 0 3.8 3.31zm-2.28-9.58c.6 2.55 1.2 5.12 1.84 7.73-1.29-1.12-2.53-2.2-3.72-3.26-.56-2.71-1.1-5.4-1.61-8.04l3.49 3.57zm-2.24-9.72c.56 2.51 1.15 5.06 1.75 7.65l-3.4-3.5c-.52-2.67-1.03-5.32-1.52-7.93l3.17 3.78zm2.11-3.93c.59 2.25 1.18 4.53 1.8 6.85a753.9 753.9 0 0 1-2.9-3.41l-1.57-7.1 2.67 3.66zm-2.4-9.44l1.66 6.56-2.51-3.46-1.45-6.76 2.3 3.66zm-4.25-13.11a823.8 823.8 0 0 0 1.9 3.52l1.5 6.16-2.11-3.4-.19-.87-1.1-5.41zm3.09 1.2l1.25 4.48-1.39-2.55-1.07-4.48 1.2 2.54zm-2.57-9.43l.87 3.22-.72-1.54-.7-3.05.55 1.37zm1020.9 322.12c-71.38 16.11-138.8 31.34-208.63 39.22-252.65 28.55-464.85-66.54-598.37-151.32A1209.1 1209.1 0 0 1 11 1151.22a1310.47 1310.47 0 0 0 145.12 93.52c87.65 48.52 177.33 84.63 266.56 107.32 111.54 28.37 222.69 35.73 330.35 21.89 51.41-6.61 101.65-15.8 154.85-25.51 96.52-17.64 197.33-36.06 311.05-39-2.82 2.3-5.64 4.6-8.47 6.95-92.14 8.89-175.81 27.78-257.87 46.3zm259.35-46.45c2.76-2.3 5.52-4.57 8.3-6.83 2.83-.07 5.66-.13 8.5-.18a926.9 926.9 0 0 0-8.34 6.23c-2.83.25-5.64.51-8.46.78zm10.1-.92c2.72-2.05 5.45-4.1 8.19-6.12l8.8-.11a874.84 874.84 0 0 0-8.18 5.5c-2.94.23-5.88.48-8.8.73zm10.6-.87c2.65-1.8 5.31-3.6 7.99-5.38 2.81-.02 5.63-.03 8.45-.03a835.06 835.06 0 0 0-8 4.8c-2.82.19-5.64.4-8.45.6zm10.41-.75c2.58-1.57 5.18-3.12 7.79-4.67 2.75 0 5.5.02 8.27.04a823.78 823.78 0 0 0-7.77 4.1c-2.77.16-5.54.34-8.29.53zm10.52-.67c2.49-1.33 4.99-2.64 7.49-3.94 2.67.02 5.34.06 8.03.1a813.57 813.57 0 0 0-7.44 3.4c-2.7.13-5.4.28-8.08.44zm10.64-.58c2.36-1.08 4.72-2.16 7.1-3.22 2.56.04 5.12.1 7.7.16l-7.02 2.71-7.78.35zm10.78-.47c2.19-.85 4.38-1.69 6.58-2.52l7.25.21c-2.15.67-4.3 1.35-6.46 2.05-2.46.08-4.92.16-7.37.26zm11.05-.38a843.4 843.4 0 0 1 5.81-1.83l6.25.24-5.69 1.42c-2.13.05-4.25.1-6.37.17zm11.36-.26c1.56-.4 3.12-.78 4.69-1.16l5.35.25-4.46.81-5.58.1zm12.29-.17l2.72-.48 3.71.2c-.8.09-1.59.17-2.38.27l-4.05.01zm-7.53 1.37l.43-.01-.53.07-.37.02.47-.08zm-20.6 2.88l.48-.05-.62.13-.45.07.58-.15zm-20.33 4.49l.38-.07-.8.24-.2.04.62-.21zm-20.4 6.21l.89-.22h-.02l-1.34.43.47-.2zm-20.12 7.86l1.02-.35-1.07.5-.99.4 1.04-.55zm-20.02 9.6l.68-.3-.81.46-.6.3.73-.46zm-19.76 11.27l.57-.3-.78.5-.43.26.64-.46zm-19.74 13.12l.23-.2.19-.1-.28.2zm-19.84 14.97l.57-.4-.28.24-.71.55zM33.61 1317.58c59.22 108.65 134.48 195.35 223.68 257.7 111.5 77.93 245.23 117.8 397.45 118.5h1.53c67.53 0 130.93-20.58 199.35-64.69 61.31-39.52 118.65-92.73 179.35-149.06 21.52-19.98 43.32-40.2 65.67-60.18-23.82 23.06-46.94 46.43-69.74 69.48-118.15 119.51-229.78 232.44-381.27 232.44-1.26 0-2.54-.01-3.8-.03-353.34-5.13-533.45-219.5-622.32-398.41C-15.3 1245.2-40.26 1167.3-56 1105.1l3.96 2.9c17.55 59.67 44.76 134.57 85.64 209.58zm-86.15-211.32l-3.89-2.85-1.87-7.56c1.18 1.02 2.4 2.08 3.67 3.15.68 2.4 1.38 4.81 2.09 7.26zm-2.64-9.18l-3.57-3.09c-.62-2.52-1.21-5-1.8-7.46l3.36 3.38 2.01 7.17zm-5.85-12.62l-1.69-7.32 3.02 3.55 1.91 7.04-3.24-3.27zm8 8.04a878.53 878.53 0 0 1-3.17-3.17l-1.83-6.7 2.96 3.43 2.05 6.44zm-2.87-9.08l-2.8-3.26-1.7-6.4 2.6 3.46c.61 2.03 1.25 4.1 1.9 6.2zm-2.85-9.31l-2.39-3.23-1.53-6 2.18 3.4c.56 1.92 1.14 3.86 1.74 5.83zm.87-3.83l-1.6-2.46-.47-1.58-.8-2.75 1.4 2.49 1.47 4.3zm-3.33-9.88l-.9-1.62-.86-3.04.71 1.47 1.05 3.19zm1261.5 264.59c-77.44 13.07-148.62 32.9-217.44 52.09-84.26 23.49-163.84 45.67-247.8 53.92-261.8 25.71-471.08-80.23-600.54-173.62a1134.98 1134.98 0 0 1-132.5-112.24l.86.56c37.2 32.16 85.1 69.61 142.12 105.82 85.06 54.01 173.43 94.73 262.66 121 111.54 32.86 224.74 43.12 336.45 30.5 69.9-7.9 137.34-23.12 208.74-39.24 80.34-18.14 163.8-36.98 255.91-45.96a989.5 989.5 0 0 0-5.93 5c-.85.71-1.68 1.45-2.52 2.17zm1.65-.28c2.76-2.36 5.53-4.7 8.31-7.03 2.75-.27 5.51-.52 8.28-.77-2.8 2.13-5.61 4.28-8.42 6.46l-8.17 1.34zm10.03-1.64c2.72-2.11 5.45-4.22 8.2-6.31 2.85-.25 5.71-.49 8.58-.72-2.75 1.88-5.5 3.78-8.25 5.71-2.85.43-5.7.88-8.53 1.32zm10.57-1.62c2.66-1.86 5.33-3.71 8.01-5.55 2.72-.21 5.44-.42 8.17-.61a864.5 864.5 0 0 0-8.06 4.98l-8.12 1.18zm10.4-1.5c2.59-1.61 5.18-3.22 7.78-4.8 2.65-.2 5.3-.37 7.96-.53-2.6 1.4-5.2 2.82-7.81 4.26-2.65.34-5.3.7-7.93 1.07zm10.51-1.41c2.48-1.37 4.97-2.72 7.47-4.07l7.65-.44c-2.5 1.17-5 2.35-7.5 3.55-2.54.31-5.09.63-7.62.96zm10.64-1.32c2.34-1.12 4.68-2.22 7.03-3.32l7.23-.35c-2.35.93-4.7 1.87-7.04 2.83-2.41.27-4.82.55-7.22.84zm10.86-1.25l6.4-2.55c2.2-.1 4.4-.18 6.6-.26l-6.35 2.11-6.65.7zm10.03.09l-3.83 1.07-3.57.59c1.27-.44 2.54-.88 3.8-1.3l3.6-.36zm-13.82 1.46a1016 1016 0 0 1 5.64-.62l-5.37 1.86-5.69 1 5.42-2.24zm-6.09 3.49l-3.68 1.33-4.19 1.04 3.79-1.63 4.08-.74zm-14.22 2.66l5.57-1.07-5.41 2.34c-1.86.48-3.71.95-5.56 1.44l5.4-2.71zm-20.22 7.87l5.47-1.5-1.1.56-4.06 2.15-5.6 1.92a937.3 937.3 0 0 1 5.3-3.13zm-6.03 4.57l-4.04 2.17-3.86 1.62 3.97-2.41c1.3-.47 2.62-.93 3.93-1.38zm-13.93 4.96l5.4-1.95c-1.8 1.1-3.61 2.2-5.4 3.32-1.82.78-3.62 1.57-5.42 2.36 1.8-1.25 3.6-2.5 5.42-3.73zm-6.16 5.2l-3.8 2.4-3.7 1.88 3.76-2.64 3.74-1.64zm-13.61 6.04l5.18-2.33-5.44 3.85c-1.64.85-3.3 1.69-4.94 2.55l5.2-4.07zm-6.25 5.83c-1.3.94-2.62 1.87-3.91 2.82l-3.2 1.91 3.59-2.87 3.52-1.86zm-13.82 7.37l5.38-2.9c-1.7 1.36-3.37 2.74-5.06 4.1l-5.5 3.37 5.18-4.57zm-5.97 6.31l-3.38 2.8-3.89 2.69 3.53-3.18 3.74-2.3zm-12.78 7.97l4.06-2.56-5.22 4.73-3.62 2.54 4.78-4.7zm-9.44 9.33l2.04-1.45-3.69 3.41-1.44 1.14 3.1-3.1zM44.73 1311.08c61.8 103.21 138.37 185.32 227.57 244.05 110.47 72.72 240.73 109.58 387.23 109.58l4.15-.01c65.81-.31 128.12-19.31 196.08-59.8 60.43-35.98 117.31-84.13 177.54-135.11 25.84-21.87 52.07-44.07 79.13-65.79l-3.05 3.11c-27.13 23.83-53.36 48.15-79.17 72.1-118.27 109.77-230 213.46-378.01 213.46h-1.45c-344.2-1.58-527.23-205.12-620.15-375.6-40.54-74.36-67.6-148.62-85.16-208l3.97 2.85c19.37 56.79 48.7 127.99 91.32 199.16zm-91.94-200.97l-3.86-2.79c-.7-2.36-1.38-4.7-2.04-7.01l3.64 3.09 2.26 6.71zm-6.45-11.73l-1.94-6.89 3.31 3.3 2.16 6.6-3.53-3.01zm8.57 7.26l-3.42-2.88c-.7-2.12-1.4-4.22-2.07-6.3l3.21 3.15c.74 1.99 1.5 4 2.28 6.03zm-3.2-8.46l-3.03-3c-.66-2.03-1.3-4.05-1.93-6.04l2.83 3.22a1032 1032 0 0 0 2.14 5.82zm-3.17-8.67a960.9 960.9 0 0 1-2.63-3l-1.76-5.68 2.4 3.18 1.99 5.5zm-3.2-8.93l-2.14-2.86-1.56-5.14 1.95 2.99 1.76 5.01zm-3.67-14.06l-.11-.34.16.43-.05-.09zm7 14.72l-.47-1.16.54.92.5 1.1-.57-.86zm7.93 13.96l-.5-1.05.25.38.65 1.18-.4-.5zm8.18 12.4l-.6-1.09.4.5.74 1.18-.54-.6zm8.75 11.35l-.73-1.12.54.57.86 1.17-.67-.62zm9.27 10.33l-.78-1.04.7.63.88 1.03-.8-.62zm1020.75 262.18c-93.65 31.67-182.1 61.58-277.41 69.61-270.98 22.83-477.33-93.95-602.73-195.94-52.15-42.42-95-85.86-128.04-123.35l2.02 1.33a1136.93 1136.93 0 0 0 136.45 116.15c82.47 59.5 169.54 104.82 258.76 134.7 111.54 37.33 226.8 50.5 342.57 39.14 84.04-8.25 163.67-30.45 247.98-53.95 68.25-19.03 138.81-38.7 215.52-51.76-2.79 2.4-5.58 4.79-8.34 7.2-65.96 16.01-127.28 36.74-186.78 56.87zm188.67-57.32c2.68-2.36 5.38-4.7 8.09-7.03l7.97-1.31c-2.73 2.13-5.43 4.3-8.14 6.46-2.65.61-5.29 1.24-7.92 1.88zm18.29-4.25c-2.79.62-5.56 1.25-8.33 1.9 2.65-2.12 5.3-4.2 7.97-6.3l8.31-1.3-4.53 3.2-3.42 2.5zm2.28-.51c2.56-1.85 5.13-3.68 7.71-5.5 2.61-.4 5.23-.78 7.85-1.15a892.48 892.48 0 0 0-7.76 4.94l-7.8 1.7zm10.42-2.26c2.46-1.58 4.93-3.15 7.4-4.71 2.52-.36 5.04-.7 7.57-1.05a893.22 893.22 0 0 0-7.46 4.2c-2.5.51-5.01 1.03-7.5 1.56zm13.96-1.73a890.81 890.81 0 0 0-6.34 3.21l-6.45 1.74c2.1-1.22 4.21-2.44 6.33-3.65l6.46-1.3zm-16.57 3.42l7.04-1.49a855.8 855.8 0 0 0-5.36 3.1l-1.59.94-7.02 1.98c2.3-1.52 4.61-3.03 6.93-4.53zm-3.58 4.74c-2.12 1.25-4.24 2.49-6.33 3.75l-6.32 2.25a997.7 997.7 0 0 1 6.22-4.17c2.14-.62 4.28-1.23 6.43-1.83zm-16.46 4.78c2.3-.69 4.6-1.37 6.92-2.04-2.28 1.52-4.54 3.06-6.8 4.6l-6.91 2.53 6.8-5.1zm-3.62 5.1a1051.7 1051.7 0 0 0-6.34 4.39c-2.05.9-4.1 1.8-6.14 2.72l6.24-4.8 6.24-2.3zm-16.52 6.22c2.37-.92 4.75-1.82 7.13-2.72-2.31 1.77-4.62 3.54-6.91 5.32l-7.06 3.2c2.27-1.94 4.55-3.88 6.84-5.8zm-3.42 5.43c-2.06 1.6-4.1 3.24-6.15 4.86-2.12 1.12-4.25 2.24-6.36 3.37l6.11-5.3 6.4-2.93zm-15.8 7.32c2.04-.97 4.1-1.93 6.16-2.89-2.3 2-4.61 3.98-6.9 5.98a1428.7 1428.7 0 0 0-5.87 3.18l6.6-6.27zm-4.3 6.24c-2.06 1.82-4.14 3.64-6.19 5.48l-5 3.13c1.96-1.91 3.92-3.81 5.9-5.71l5.3-2.9zm-475.38 237.8c-316.78 7.86-508.53-163.19-613.63-308.03-45.54-62.78-78.85-125.82-101.81-176.51l3.84 2.67c25.87 50.28 61.37 109.44 108.2 167.9 69.55 86.86 150.05 155.18 239.27 203.07 103.3 55.44 218.62 83.47 343.17 83.47 9.91 0 19.9-.18 29.92-.53 127.2-4.51 233.83-69.95 346.72-139.24 36-22.09 72.7-44.61 111.06-65.85-2.19 2.11-4.38 4.23-6.56 6.36-35.77 22.53-70.03 46.13-103.63 69.29-115 79.25-223.63 154.12-356.55 157.4zM55.85 1304.57c64.39 97.76 142.27 175.27 231.48 230.38 108.28 66.9 233.62 100.76 372.75 100.76 4.16 0 8.34-.02 12.53-.09 138.88-2 249.2-86.6 366.01-176.18 28.97-22.21 58.42-44.8 88.93-66.68-1.6 1.61-3.22 3.21-4.82 4.83-29.6 23.49-58.1 47.62-86.15 71.35-117.84 99.75-229.15 193.97-372.91 194.65l-4.1.01c-332.45 0-517.3-191.8-613.88-353.06-42.22-70.5-71.38-141.02-90.73-197.5l3.89 2.76c21.19 53.9 52.64 121.41 97 188.77zm-101.51-193.34l-2.18-6.46 3.55 2.98c.79 2.04 1.58 4.1 2.4 6.17-1.29-.91-2.54-1.8-3.77-2.7zm9.07 6.44l-3.65-2.58-2.3-5.88 3.45 2.85c.82 1.85 1.65 3.73 2.5 5.61zm-3.49-7.86l-3.27-2.72c-.73-1.9-1.46-3.8-2.16-5.67l3.07 2.97 2.36 5.42zm-3.5-8.05l-2.84-2.76-1.99-5.36 2.65 2.97c.71 1.7 1.44 3.41 2.19 5.15zm-3.5-8.3l-2.38-2.67-1.76-4.87 2.16 2.82 1.97 4.73zm-2.2-8.2l1.46 2.17 1.31 2.8a851.5 851.5 0 0 1-1.58-2.04l-1.2-2.92zm4.47 10.76c-.57-1.33-1.12-2.65-1.66-3.95l2.12 2.72 1.8 3.76-2.26-2.53zm3.59 2.73l1.32 1.67 1.47 2.67-1.48-1.63-1.31-2.7zm4.84 9.9l-1.8-3.65 2.05 2.23a915.1 915.1 0 0 0 1.98 3.53l-2.23-2.1zm3.49 2.1l1.49 1.6 1.62 2.53-1.65-1.56c-.5-.86-.98-1.72-1.46-2.58zm5.27 9.23l-1.96-3.41 2.26 2.1 2.12 3.26-2.42-1.95zm3.62 1.76l1.68 1.54 1.73 2.31-1.83-1.45-1.58-2.4zm5.66 8.54l-2.1-3.16c.8.65 1.63 1.3 2.45 1.94l2.26 2.99-2.6-1.77zm3.77 1.46l1.87 1.46 1.8 2.09-1.97-1.32-1.7-2.23zM1017.68 1403c-100.6 40.47-195.62 78.7-300.47 86.14-280.14 19.93-483.57-107.72-604.9-218.3-50.8-46.3-91.82-93.52-123.08-134.14l2.65 1.77c33.43 38.21 77.2 82.88 130.8 126.5 79.9 64.98 165.65 114.9 254.88 148.37 111.54 41.83 228.85 57.93 348.67 47.83 95.45-8.04 183.96-37.97 277.67-69.66 58.87-19.92 119.51-40.42 184.66-56.34-2.7 2.38-5.4 4.77-8.08 7.18-57.1 18.14-110.66 39.68-162.8 60.65zm164.93-61.33c2.6-2.33 5.2-4.65 7.82-6.96a1158 1158 0 0 1 7.67-1.83c-2.65 2.13-5.28 4.28-7.9 6.43l-7.6 2.36zm15.3-3.55c-2.44 1.82-4.9 3.64-7.32 5.49-2.53.94-5.05 1.9-7.57 2.85 2.4-2.01 4.82-4.02 7.24-6.01l7.65-2.33zm-17.3 5.36l7.28-2.3c-2.55 2.1-5.08 4.22-7.61 6.34l-7.16 2.77c2.48-2.28 4.98-4.55 7.48-6.81zm-2.94 6.23l-7.36 6.25-6.56 3.04c2.37-2.22 4.74-4.43 7.12-6.63 2.26-.9 4.53-1.78 6.8-2.66zM-13.64 1134.78c31.54 41.23 73.26 89.54 125.18 136.85 77.3 70.47 161.75 125 250.97 162.06 111.54 46.33 230.9 65.37 354.78 56.56 105.02-7.46 200.12-45.72 300.8-86.22 51.4-20.68 104.18-41.9 160.37-59.87-2.6 2.34-5.17 4.71-7.74 7.07-50.08 19.73-97.4 41.96-143.57 63.66-105.83 49.73-205.8 96.7-318.86 103.33-289.3 16.96-489.81-121.54-607.08-240.7-49.32-50.11-88.45-101.08-117.9-144.79 1 .68 2.02 1.37 3.05 2.05zm713 412.51c-298.45 13.98-496.05-135.38-609.26-263.11-47.78-53.91-84.95-108.6-112.57-155.37l3.34 2.27c29.65 44.25 69.3 96.17 119.52 147.2 74.73 75.93 157.86 135.05 247.08 175.72 97.34 44.37 202.2 66.75 312.35 66.75 16.06 0 32.25-.47 48.53-1.43 113.29-6.63 213.34-53.65 319.27-103.43 45.33-21.3 91.75-43.11 140.8-62.56-2.5 2.32-5 4.66-7.48 6.99-44.4 20.91-86.56 43.7-127.76 65.96-109.78 59.34-213.47 115.4-333.81 121.01zM89.26 1284.9c72.14 81.4 153.96 145.12 243.18 189.4 100.47 49.85 210.6 75.03 327.95 75.03 12.92 0 25.95-.3 39.04-.92 120.6-5.64 224.4-61.74 334.29-121.14 40.27-21.77 81.43-44.02 124.65-64.52-2.36 2.23-4.71 4.48-7.06 6.73-39.71 21.82-77.59 45.06-114.68 67.83-112.76 69.2-219.27 134.57-346.18 139.07-10 .35-19.84.53-29.6.53-290.54 0-476.24-154.24-581.84-286.1-46.21-57.69-81.4-116.07-107.16-165.9l3.54 2.44c27.77 47.26 65.35 102.8 113.87 157.55zM-23.24 1124.9l2.47 3.72-3.02-2.07-2.3-3.93 2.85 2.28zm-5.24-4.2a1176 1176 0 0 0 2.54 4.38l-3.3-2.28-2.36-4.62 3.12 2.52zm-2.68.77l-3.66-2.56-2.36-5.29c1.14.94 2.3 1.9 3.48 2.85l2.54 5zm-1.15-7.46l2.3 4.04-2.82-2.3-2.12-4.23 2.64 2.49zm-11.17-14.86l2.64 2.92 2.14 4.37-2.8-2.7c-.68-1.54-1.34-3.08-1.98-4.59zm8.57 14.9l-3.27-2.68-2.2-5 3.1 2.95 2.37 4.73zm1252.85 214.32c-2.45 1.6-4.88 3.22-7.32 4.83-2.48.72-4.96 1.44-7.42 2.17 2.43-1.8 4.87-3.58 7.32-5.36l7.42-1.64zm-25.4 10.21c2.54-2.08 5.09-4.15 7.65-6.2 2.68-.63 5.36-1.25 8.05-1.86-2.58 1.88-5.17 3.75-7.74 5.65l-7.97 2.41zm-1243.2-253.74l-1.8-2.36-1.46-4.15c.53.8 1.07 1.6 1.6 2.42l1.67 4.1zm1088.61 373.71c-116.66 89.46-226.84 173.95-365.36 175.96-325.92 4.77-514.76-177.14-615.8-330.53-43.89-66.64-75.13-133.42-96.29-187.02l3.8 2.68c23 51.02 56.58 114.84 102.68 178.38 66.97 92.32 146.16 165.23 235.38 216.73 105.9 61.12 226.26 92.05 358.08 92.05 7 0 14.04-.09 21.1-.26 133.26-3.3 242.01-78.25 357.15-157.6 32.29-22.25 65.16-44.9 99.35-66.6l-5.9 5.81c-32.43 23.06-63.59 46.94-94.19 70.4zm219.57-140.63l-6.37 2.66c-2.2.4-4.39.82-6.57 1.23l6.37-3.1 6.57-.79zm-23.73 6a885.6 885.6 0 0 1 6.98-3.92l7.16-.92a897.78 897.78 0 0 0-7 3.43c-2.39.46-4.77.94-7.14 1.41zM-7.41 1137.61l-.85-.97.81.63.93.94-.9-.6zm-49.03-66.55l.87 1.53 1.24 3.12-1.07-1.63-.66-1.9-.38-1.12zm1287.16 257.72l3.97-1.05-3.6 1.62-4.06 1.35 3.69-1.92zm64.85-16.12l-3.88.75-3.67.31 3.83-.98 3.72-.08zm-19.4 2.15c1.82-.6 3.64-1.2 5.47-1.78l5.24-.16-5.5 1.45c-1.74.16-3.47.32-5.2.5zM-64.86 1056.1a864.7 864.7 0 0 0 1.72 3.1l1.54 5.32-1.93-3.03-.3-1.2-1.03-4.2zm502.58 275.46c111.55 23.89 220.65 28.37 324.26 13.32 25.52-3.7 51.7-7.81 77.02-11.78 119.05-18.66 244.27-38.28 390.11-31.78-2.84 2.23-5.67 4.5-8.51 6.8-113.56 2.82-214.36 21.23-312.91 39.24-53.18 9.71-103.41 18.9-154.79 25.5-243.5 31.32-458.62-52.9-596.2-129.07A1307.73 1307.73 0 0 1 22.1 1158a1439.23 1439.23 0 0 0 145.17 79.93c90.22 43.01 181.21 74.52 270.44 93.63zM2109 1305.9v-1.23c-69.7-36.03-137.03-65.58-200.39-87.9-65.22-22.96-128.28-39-187.42-47.67-108.35-15.87-205.68-8.28-297.57 23.2-66 22.63-129.38 57.99-192.85 107.7-145.54-6.63-270.35 12.93-391.94 31.99-25.31 3.96-51.5 8.07-77 11.77-234.37 34.04-452.4-39.31-594.05-106.84a1439.59 1439.59 0 0 1-158.77-88.57c-3.59-2.68-7.08-5.32-10.49-7.91-3.43-3-6.76-5.95-10-8.84-3.31-3.4-6.52-6.7-9.62-9.96-3.09-3.67-6.07-7.26-8.94-10.77-2.93-4.06-5.76-8.03-8.46-11.9-2.75-4.43-5.38-8.76-7.89-12.94-2.56-4.86-5-9.57-7.31-14.11a979.6 979.6 0 0 1-7.59-17.38c-1.88-5.06-3.63-9.91-5.28-14.57-.84-2.71-1.65-5.38-2.43-7.98v11.47l1.1 4.7-1.1-2.06v8.7l.44.7c.49 2.38 1 4.8 1.53 7.26l-1.97-2.76v1.91l2.55 3.55c.54 2.46 1.08 4.95 1.65 7.48a697.99 697.99 0 0 1-3.06-3.68l-1.14-6.17v6.53l.1.12c.5 2.7 1.03 5.45 1.57 8.23l-1.67-1.74v1.6l2.06 2.14c.53 2.73 1.08 5.48 1.65 8.28l-3.71-3.29v1.48l4.07 3.61 1.73 8.33-5.8-4.38v1.39c1.9 1.44 3.96 3 6.15 4.63 13.9 65.44 36.84 147.77 74.24 230.48 54.06 119.52 126.69 215.4 215.88 285 111.49 86.98 249.3 132.88 409.6 136.41 2.29.05 4.56.08 6.83.08 69.78 0 134.34-23.8 202.56-74.52 62.7-46.64 120.51-110.05 181.7-177.18 25.83-28.32 52.04-57.07 79.21-85.26 4.54-4.36 9.1-8.72 13.7-13.05 7.08-6.17 14.23-12.3 21.44-18.37a1416 1416 0 0 1 19.26-14.6 1245.1 1245.1 0 0 1 19.49-12.94c6.51-3.8 13.08-7.56 19.7-11.25 6.59-3.24 13.22-6.43 19.92-9.56 6.72-2.72 13.5-5.37 20.34-7.96 6.62-2.1 13.3-4.15 20.03-6.13a924.2 924.2 0 0 1 20.82-4.61 946.79 946.79 0 0 1 20.14-2.83c6.86-.5 13.76-.93 20.73-1.29 6.83.03 13.71.13 20.65.3 6.79.54 13.62 1.16 20.5 1.83 199.73 30.44 438.6 114.56 745.11 305.79v-1.3c-143.26-89.33-280.23-160.35-407.38-211.22-108.12-43.25-210.23-72.92-311.15-90.37 191.69 23.12 421.53 98.35 718.53 280.48v-1.3c-135.27-82.89-264.64-148.33-384.79-194.6-112.39-43.29-217.92-70.94-322.65-84.54a1190.56 1190.56 0 0 0-33.87-3.9c193.62 9.15 428.46 73.2 741.31 261.92v-1.3c-130.81-78.83-255.76-140.36-371.65-182.96-108.54-39.9-210.3-64.28-311.1-74.56-24.46-2.5-48.22-4.08-71.39-4.9l-2.97-.43c194.08-4.2 431.77 48.55 757.11 241.72v-1.29c-329.12-195.31-568.59-246.98-763.97-241.38l-5.72-.77a896.7 896.7 0 0 1 79.26-3.52c179.53 0 398.62 53.85 690.43 224.52v-1.28c-339.07-198.2-579.92-238.72-774.75-220.39l-6.55-.82c193.5-30.06 434.67.23 781.3 200.04v-1.27c-348.95-201.04-591.09-230.36-785.32-199.26l-7.18-.84a779.71 779.71 0 0 1 170.68-18.86c163.46 0 362.5 50.36 621.82 197.78v-1.27c-358.85-203.88-602.23-221.94-795.85-178.03l-7.52-.82c192.47-55.88 436.38-48.21 803.37 157.66v-1.27c-128.44-71.97-249.55-123.65-360.23-153.67-103.62-28.11-199.2-38.34-292.19-31.28-51.35 3.9-102.1 13.24-153.54 28.3-2.73-.29-5.45-.56-8.16-.83 191.88-68.84 437.03-72.56 814.12 136.28v-1.26c-129.67-71.73-251.57-122.27-362.6-150.29-103.87-26.21-199.32-33.83-291.8-23.3-54.31 6.2-107.78 18.84-161.96 38.37l-8.42-.78c191.27-81.86 437.61-97 824.78 114.79v-1.26c-131.16-71.66-254.1-121.2-365.69-147.28-104.32-24.39-199.83-29.43-291.96-15.4-56.86 8.64-112.63 24.77-169.09 48.98-2.87-.25-5.74-.49-8.6-.71 190.61-94.92 438.1-121.56 835.34 93.19v-1.26c-132.86-71.72-257.04-120.34-369.35-144.55-104.93-22.62-200.62-25.1-292.54-7.61-59.1 11.25-116.82 31.03-175.19 60.09l-8.76-.66c189.95-108.02 438.53-146.19 845.84 71.5v-1.25c-134.73-71.9-260.3-119.69-373.47-142.07-105.66-20.89-201.64-20.84-293.45.15-61.08 13.96-120.5 37.5-180.47 71.56l-8.88-.6c189.25-121.17 438.89-170.9 856.27 49.72v-1.24c-136.74-72.18-263.82-119.19-377.97-139.77-106.47-19.2-202.84-16.62-294.6 7.86-62.88 16.78-123.78 44.18-185.1 83.35-3.07-.2-6.13-.37-9.18-.54 188.54-134.4 439.25-195.8 866.85 27.85v-1.25c-68.57-35.81-134.9-65.4-197.4-88.05-64.42-23.33-126.8-40.02-185.42-49.59-107.4-17.54-204.23-12.46-296.03 15.51-64.54 19.67-126.79 51.03-189.3 95.46-2.97-.16-5.93-.3-8.89-.44 102.1-80.28 223.09-138.5 382.6-138.5 133.83 0 294.82 41.02 494.44 144.35z"/><clipPath id="ukb5b"><use xlink:href="#ukb5a"/></clipPath></defs><g><g transform="translate(69 -1032)"/><g clip-path="url(#ukb5b)" transform="translate(69 -1032)"><use fill="#ededed" xlink:href="#ukb5c"/></g></g></svg>