<?xml version="1.0" encoding="UTF-8"?>
<svg width="81px" height="81px" viewBox="0 0 81 81" version="1.1" xmlns="http://www.w3.org/2000/svg" xmlns:xlink="http://www.w3.org/1999/xlink">
    <!-- Generator: sketchtool 48.2 (47327) - http://www.bohemiancoding.com/sketch -->
    <title>193995F0-EA39-4B90-9AAC-7AE421014117</title>
    <desc>Created with sketchtool.</desc>
    <defs>
        <polygon id="path-1" points="0.000199740482 0.7733 80.2272 0.7733 80.2272 81 0.000199740482 81"></polygon>
    </defs>
    <g id="ACCUEIL-DESKTOP-2" stroke="none" stroke-width="1" fill="none" fill-rule="evenodd" transform="translate(-428.000000, -3897.000000)">
        <g id="EXPERTISES" transform="translate(94.000000, 3602.000000)">
            <g id="Page-1" transform="translate(334.000000, 294.000000)">
                <path d="M23.1777,9.0347 L22.8997,7.6257 C22.3997,7.7407 21.9027,7.8727 21.4107,8.0237 L21.8717,9.3837 C22.3027,9.2527 22.7387,9.1367 23.1777,9.0347" id="Fill-1" fill="#2962FF"></path>
                <path d="M27.7793,25.9888 C29.3183,25.9888 30.5693,27.2408 30.5693,28.7808 C30.5693,30.3188 29.3173,31.5698 27.7793,31.5698 C26.2403,31.5698 24.9883,30.3188 24.9873,28.7808 C24.9873,27.2408 26.2403,25.9888 27.7793,25.9888 M27.7793,33.0058 C30.1093,33.0058 32.0053,31.1108 32.0053,28.7808 C32.0053,28.4568 31.9633,28.1208 31.8803,27.7808 L31.7633,27.3068 L37.2993,24.1128 L36.5813,22.8698 L31.0453,26.0638 L30.6933,25.7278 C29.9003,24.9698 28.8653,24.5528 27.7793,24.5528 C25.4483,24.5528 23.5523,26.4498 23.5523,28.7808 C23.5523,31.1108 25.4483,33.0058 27.7793,33.0058" id="Fill-3" fill="#2962FF"></path>
                <path d="M42.5708,14.9273 L43.6488,13.9773 C43.4758,13.7933 43.2998,13.6123 43.1228,13.4343 C42.9388,13.2503 42.7508,13.0693 42.5608,12.8913 L41.6118,13.9703 C41.7798,14.1273 41.9458,14.2873 42.1078,14.4483 C42.2638,14.6053 42.4188,14.7653 42.5708,14.9273" id="Fill-5" fill="#2962FF"></path>
                <path d="M39.2837,10.3702 C38.8467,10.0962 38.4007,9.8382 37.9507,9.5992 L37.3147,10.8872 C37.7107,11.0992 38.1017,11.3252 38.4847,11.5632 L39.2837,10.3702 Z" id="Fill-7" fill="#2962FF"></path>
                <path d="M34.1289,8.0181 C33.6379,7.8691 33.1399,7.7361 32.6389,7.6221 L32.3619,9.0321 C32.8019,9.1331 33.2389,9.2491 33.6689,9.3791 L34.1289,8.0181 Z" id="Fill-9" fill="#2962FF"></path>
                <path d="M28.4468,8.525 L28.5378,7.091 C28.0228,7.073 27.5088,7.073 26.9988,7.092 L27.0918,8.525 C27.5448,8.51 27.9978,8.51 28.4468,8.525" id="Fill-11" fill="#2962FF"></path>
                <path d="M8.3809,22.8868 L7.0209,22.4268 C6.8709,22.9198 6.7379,23.4178 6.6249,23.9168 L8.0339,24.1938 C8.1349,23.7528 8.2509,23.3158 8.3809,22.8868" id="Fill-13" fill="#2962FF"></path>
                <path d="M46.5796,17.9283 C46.4536,17.7093 46.3216,17.4903 46.1856,17.2743 L44.9926,18.0733 C44.9966,18.0783 44.9996,18.0843 45.0036,18.0903 L45.6546,19.2163 C47.2196,22.1313 48.0436,25.4243 48.0436,28.7813 C48.0436,34.1913 45.9356,39.2793 42.1076,43.1073 C38.2806,46.9343 33.1926,49.0423 27.7826,49.0423 C16.6066,49.0423 7.5156,39.9533 7.5156,28.7813 C7.5156,28.5573 7.5186,28.3333 7.5266,28.1093 L6.0936,28.0173 C6.0846,28.2713 6.0796,28.5263 6.0796,28.7813 C6.0796,40.7453 15.8156,50.4783 27.7826,50.4783 C33.5766,50.4783 39.0246,48.2213 43.1226,44.1213 C47.2226,40.0233 49.4796,34.5743 49.4796,28.7813 C49.4796,24.9523 48.4766,21.1993 46.5796,17.9283" id="Fill-15" fill="#2962FF"></path>
                <path d="M18.228,10.8946 L17.591,9.6076 C17.137,9.8506 16.692,10.1086 16.258,10.3816 L17.058,11.5736 C17.44,11.3346 17.831,11.1076 18.228,10.8946" id="Fill-17" fill="#2962FF"></path>
                <g id="Group-21" transform="translate(0.000000, 0.227100)">
                    <mask id="mask-2" fill="white">
                        <use xlink:href="#path-1"></use>
                    </mask>
                    <g id="Clip-20"></g>
                    <path d="M68.1172,75.6123 L74.8402,68.8903 L78.1982,72.2493 L71.4752,78.9693 L68.1172,75.6123 Z M54.4492,61.9433 L61.1712,55.2213 L73.8242,67.8753 L67.1012,74.5953 L54.4492,61.9433 Z M50.0752,57.5703 L56.7972,50.8483 L60.1562,54.2073 L53.4342,60.9283 L50.0752,57.5703 Z M46.4082,47.1803 C41.5852,52.0033 35.2232,54.7253 28.4312,54.8893 L27.1302,54.8883 C12.9022,54.5423 1.4352,42.8603 1.4352,28.5523 C1.4352,21.5153 4.1752,14.9003 9.1522,9.9243 C14.1272,4.9493 20.7422,2.2093 27.7792,2.2093 C34.8162,2.2093 41.4322,4.9493 46.4082,9.9243 C51.3832,14.8993 54.1232,21.5143 54.1232,28.5523 C54.1232,35.5893 51.3832,42.2043 46.4082,47.1803 Z M56.7972,48.8173 L52.9282,52.6863 L47.9282,47.6853 L48.3452,47.2263 C52.9972,42.1143 55.5592,35.4823 55.5592,28.5523 C55.5592,21.1323 52.6702,14.1553 47.4232,8.9083 C42.1762,3.6623 35.2002,0.7733 27.7792,0.7733 C20.3582,0.7733 13.3832,3.6623 8.1372,8.9093 C2.8882,14.1563 -0.0008,21.1333 0.0002,28.5523 C-0.0008,35.9603 2.8922,42.9323 8.1452,48.1853 C13.3992,53.4383 20.3722,56.3313 27.7802,56.3313 C34.7112,56.3313 41.3432,53.7693 46.4542,49.1183 L46.9122,48.7003 L51.9122,53.7023 L48.0452,57.5703 L71.4752,81.0003 L80.2272,72.2493 L56.7972,48.8173 Z" id="Fill-19" fill="#2962FF" mask="url(#mask-2)"></path>
                </g>
                <path d="M13.4507,14.4498 C13.6087,14.2918 13.7697,14.1368 13.9317,13.9838 L12.9837,12.9058 C12.7977,13.0788 12.6147,13.2558 12.4357,13.4338 C12.2527,13.6178 12.0717,13.8048 11.8937,13.9948 L12.9737,14.9438 C13.1297,14.7768 13.2897,14.6118 13.4507,14.4498" id="Fill-22" fill="#2962FF"></path>
                <path d="M10.5669,18.0708 L9.3739,17.2708 C9.0999,17.7078 8.8419,18.1538 8.6019,18.6048 L9.8899,19.2408 C10.1019,18.8438 10.3289,18.4528 10.5669,18.0708" id="Fill-24" fill="#2962FF"></path>
            </g>
        </g>
    </g>
</svg>