<?xml version="1.0" encoding="UTF-8"?>
<svg width="80px" height="55px" viewBox="0 0 80 55" version="1.1" xmlns="http://www.w3.org/2000/svg" xmlns:xlink="http://www.w3.org/1999/xlink">
    <!-- Generator: sketchtool 48.2 (47327) - http://www.bohemiancoding.com/sketch -->
    <title>9F383929-DFC2-4EEF-9129-F6319CCA323D</title>
    <desc>Created with sketchtool.</desc>
    <defs>
        <polygon id="path-1" points="0 0 79.7906 0 79.7906 54.6808 0 54.6808"></polygon>
    </defs>
    <g id="ACCUEIL-DESKTOP-2" stroke="none" stroke-width="1" fill="none" fill-rule="evenodd" transform="translate(-1373.000000, -5766.000000)">
        <g id="MÉTHODE" transform="translate(95.000000, 5133.000000)">
            <g id="Group-Copy-2" transform="translate(1233.000000, 576.000000)">
                <g id="Page-1" transform="translate(45.000000, 57.000000)">
                    <mask id="mask-2" fill="white">
                        <use xlink:href="#path-1"></use>
                    </mask>
                    <g id="Clip-2"></g>
                    <path d="M39.894,40.399 C39.722,40.399 39.549,40.395 39.377,40.388 L39.25,41.71 C39.465,41.719 39.681,41.724 39.896,41.724 C40.119,41.724 40.34,41.719 40.561,41.709 L40.433,40.388 C40.253,40.395 40.074,40.399 39.894,40.399 Z M44.394,39.604 L44.778,40.874 C45.19,40.725 45.594,40.558 45.991,40.373 L45.366,39.202 C45.047,39.349 44.723,39.483 44.394,39.604 Z M39.896,21.659 C43.029,21.659 45.578,24.208 45.578,27.341 C45.578,30.475 43.029,33.024 39.896,33.024 C36.763,33.024 34.214,30.475 34.214,27.341 C34.214,24.208 36.763,21.659 39.896,21.659 Z M39.896,34.349 C43.759,34.349 46.903,31.206 46.903,27.341 C46.903,23.477 43.759,20.335 39.896,20.335 C36.033,20.335 32.889,23.477 32.889,27.341 C32.889,31.206 36.033,34.349 39.896,34.349 Z M33.817,40.38 C34.214,40.566 34.621,40.733 35.032,40.881 L35.415,39.61 C35.084,39.49 34.759,39.356 34.44,39.209 L33.817,40.38 Z M1.325,53.357 L78.466,53.357 L78.466,1.326 L1.325,1.326 L1.325,53.357 Z M0,54.682 L79.791,54.682 L79.791,0 L0,0 L0,54.682 Z M7.602,47.081 L72.19,47.081 L72.19,7.602 L7.602,7.602 L7.602,47.081 Z M6.278,48.405 L73.514,48.405 L73.514,6.277 L6.278,6.277 L6.278,48.405 Z M59.791,37.106 L62.999,37.106 L62.999,35.781 L59.791,35.781 L59.791,37.106 Z M59.791,43.382 L67.707,43.382 L67.707,42.057 L59.791,42.057 L59.791,43.382 Z M48.726,36.961 L49.566,37.988 C49.889,37.694 50.2,37.384 50.496,37.063 L49.473,36.217 C49.234,36.475 48.984,36.723 48.726,36.961 Z M26.392,32.304 C26.542,32.714 26.713,33.119 26.901,33.514 L28.068,32.882 C27.918,32.564 27.783,32.241 27.66,31.912 L26.392,32.304 Z M39.896,14.283 C46.844,14.283 52.543,19.739 52.933,26.591 L54.26,26.591 C53.869,19.007 47.575,12.958 39.896,12.958 C32.216,12.958 25.923,19.007 25.532,26.591 L26.859,26.591 C27.248,19.739 32.947,14.283 39.896,14.283 Z M29.307,37.076 C29.603,37.397 29.914,37.706 30.238,38 L31.077,36.972 C30.818,36.735 30.568,36.487 30.329,36.229 L29.307,37.076 Z M51.731,32.868 L52.898,33.499 C53.085,33.103 53.255,32.698 53.406,32.287 L52.138,31.896 C52.015,32.226 51.879,32.55 51.731,32.868 Z M12.624,18.283 L18.282,18.283 L18.282,12.624 L12.624,12.624 L12.624,18.283 Z M11.299,19.607 L19.608,19.607 L19.608,11.299 L11.299,11.299 L11.299,19.607 Z" id="Fill-1" fill="#2962FF" mask="url(#mask-2)"></path>
                </g>
            </g>
        </g>
    </g>
</svg>