<svg xmlns="http://www.w3.org/2000/svg" width="65" height="74" viewBox="0 0 65 74">
    <path fill="#2962FF" fill-rule="evenodd" d="M29.275 34.398H44.99V33.13H29.275v1.268zM16.867 50.219h7.419V48.95h-7.419v1.269zm0 5.273h7.419v-1.268h-7.419v1.268zM8.573 23.85h15.713v-1.268H8.573v1.268zm8.294 5.277h7.419v-1.269h-7.419v1.269zM8.573 44.945h15.713v-1.269H8.573v1.269zm20.702-15.818h7.421v-1.269h-7.421v1.269zm-12.408 5.271h7.419V33.13h-7.419v1.268zm-8.294 5.275h6.794v-1.268H8.573v1.268zm38.146 32.894c-9.253 0-16.782-7.528-16.782-16.782 0-9.253 7.529-16.781 16.782-16.781 9.254 0 16.782 7.528 16.782 16.781 0 9.254-7.528 16.782-16.782 16.782zm0-34.831c-9.952 0-18.049 8.097-18.049 18.049 0 9.953 8.097 18.05 18.049 18.05 9.953 0 18.049-8.097 18.049-18.05 0-9.952-8.096-18.049-18.049-18.049zM8.573 18.579h6.794V17.31H8.573v1.269zm32.863 33.226l-.895-.896-4.878 4.877 4.876 4.877.897-.897-3.449-3.451-.53-.53.53-.53 3.449-3.45zm10.564 0l3.449 3.45.53.53-.529.53L52 59.766l.897.897 4.877-4.878-4.877-4.877-.897.897zm-7.953 11.076l1.221.346 4.122-14.536-1.22-.346-4.123 14.536zM29.275 23.85h7.421v-1.268h-7.421v1.268zM1.268 9.723h51.026V1.764H1.268v7.959zm0 1.268h51.027v23.475h1.268V.495H0v62.584h24.286V61.81H1.268V10.991zM14.11 6.377h1.27V5.109h-1.27v1.268zm5.536 0h1.27V5.109h-1.27v1.268zm-11.073 0h1.27V5.109h-1.27v1.268z"/>
</svg>
