<?xml version="1.0" encoding="UTF-8"?>
<svg width="68px" height="82px" viewBox="0 0 68 82" version="1.1" xmlns="http://www.w3.org/2000/svg" xmlns:xlink="http://www.w3.org/1999/xlink">
    <!-- Generator: sketchtool 48.2 (47327) - http://www.bohemiancoding.com/sketch -->
    <title>35B42E43-1A0B-4E9F-907E-368D3A358B5D</title>
    <desc>Created with sketchtool.</desc>
    <defs></defs>
    <g id="ACCUEIL-DESKTOP-2" stroke="none" stroke-width="1" fill="none" fill-rule="evenodd" transform="translate(-941.000000, -4511.000000)">
        <g id="EXPERTISES" transform="translate(94.000000, 3602.000000)" fill="#2962FF">
            <path d="M848.475,964.1587 L912.844,964.1587 L912.844,956.9417 L848.475,956.9417 L848.475,964.1587 Z M865.717,940.5227 C865.717,938.3947 866.545,936.3927 868.048,934.8857 C869.553,933.3787 871.559,932.5487 873.694,932.5487 L874.807,932.5467 L880.66,938.4027 L886.516,932.5467 L887.628,932.5487 C889.763,932.5487 891.766,933.3787 893.266,934.8867 C894.772,936.3917 895.602,938.3937 895.602,940.5227 L895.602,955.4687 L890.11,955.4687 L890.11,948.4997 L888.635,948.4997 L888.635,955.4687 L872.685,955.4687 L872.685,948.4997 L871.209,948.4997 L871.209,955.4687 L865.717,955.4687 L865.717,940.5227 Z M901.425,931.2997 C900.384,931.2997 899.536,930.4527 899.536,929.4127 C899.536,928.3707 900.384,927.5227 901.425,927.5227 C902.468,927.5227 903.316,928.3707 903.316,929.4127 C903.316,930.4527 902.468,931.2997 901.425,931.2997 Z M908.671,955.4687 L908.671,935.6157 L904.287,931.2287 L904.478,930.8177 C904.686,930.3697 904.791,929.8967 904.791,929.4127 C904.791,927.5567 903.281,926.0477 901.425,926.0477 C899.571,926.0477 898.062,927.5567 898.062,929.4127 C898.062,931.2667 899.571,932.7747 901.425,932.7747 C901.91,932.7747 902.383,932.6687 902.832,932.4617 L903.244,932.2707 L907.196,936.2267 L907.196,955.4687 L897.077,955.4687 L897.077,940.5227 C897.077,938.0007 896.094,935.6287 894.31,933.8437 C892.532,932.0567 890.159,931.0737 887.629,931.0737 L885.905,931.0717 L880.66,936.3167 L875.417,931.0717 L873.693,931.0737 C871.165,931.0737 868.79,932.0567 867.004,933.8437 C865.223,935.6307 864.242,938.0027 864.242,940.5227 L864.242,955.4687 L847,955.4687 L847,965.6327 L852.65,965.6327 L852.65,990.1577 L854.125,990.1577 L854.125,965.6327 L907.196,965.6327 L907.196,990.1577 L908.671,990.1577 L908.671,965.6327 L914.319,965.6327 L914.319,955.4687 L908.671,955.4687 Z M880.66,910.4747 C884.737,910.4747 888.054,913.7917 888.054,917.8697 C888.054,921.9467 884.737,925.2637 880.66,925.2637 C876.583,925.2637 873.265,921.9467 873.265,917.8697 C873.265,913.7917 876.583,910.4747 880.66,910.4747 Z M880.66,926.7387 C885.55,926.7387 889.529,922.7607 889.529,917.8697 C889.529,912.9787 885.55,908.9997 880.66,908.9997 C875.769,908.9997 871.79,912.9787 871.79,917.8697 C871.79,922.7607 875.769,926.7387 880.66,926.7387 Z M885.934,980.1307 L887.717,980.1307 L887.717,978.6567 L885.934,978.6567 L885.934,980.1307 Z M879.77,980.1307 L881.552,980.1307 L881.552,978.6567 L879.77,978.6567 L879.77,980.1307 Z M879.923,944.1177 L881.398,944.1177 L881.398,942.3347 L879.923,942.3347 L879.923,944.1177 Z M863.339,985.2227 L896.75,985.2227 L896.75,973.5627 L863.339,973.5627 L863.339,985.2227 Z M861.864,986.6977 L898.224,986.6977 L898.224,972.0897 L861.864,972.0897 L861.864,986.6977 Z M879.923,950.2827 L881.398,950.2827 L881.398,948.4997 L879.923,948.4997 L879.923,950.2827 Z M873.602,980.1307 L875.387,980.1307 L875.387,978.6567 L873.602,978.6567 L873.602,980.1307 Z" id="Page-1"></path>
        </g>
    </g>
</svg>