<?xml version="1.0" encoding="UTF-8"?>
<svg width="80px" height="80px" viewBox="0 0 80 80" version="1.1" xmlns="http://www.w3.org/2000/svg" xmlns:xlink="http://www.w3.org/1999/xlink">
    <!-- Generator: sketchtool 48.2 (47327) - http://www.bohemiancoding.com/sketch -->
    <title>24860CC6-5206-42A1-AFE8-6300AB60FAE3</title>
    <desc>Created with sketchtool.</desc>
    <defs>
        <polygon id="path-1" points="0 0 79.7919 0 79.7919 79.8089 0 79.8089"></polygon>
    </defs>
    <g id="ACCUEIL-DESKTOP-2" stroke="none" stroke-width="1" fill="none" fill-rule="evenodd" transform="translate(-1648.000000, -5754.000000)">
        <g id="MÉTHODE" transform="translate(95.000000, 5133.000000)">
            <g id="Group-Copy-3" transform="translate(1508.000000, 576.000000)">
                <g id="Page-1" transform="translate(45.000000, 45.000000)">
                    <mask id="mask-2" fill="white">
                        <use xlink:href="#path-1"></use>
                    </mask>
                    <g id="Clip-2"></g>
                    <path d="M78.467,37.465 L78.467,42.344 L77.864,42.464 L70.034,44.028 L69.964,44.488 C69.63,46.679 69.043,48.856 68.222,50.956 L68.053,51.387 L74.054,56.684 L74.514,57.089 L74.207,57.62 L72.406,60.744 L72.099,61.277 L71.517,61.08 L63.919,58.518 L63.629,58.88 C62.229,60.627 60.63,62.223 58.878,63.621 L58.516,63.911 L61.086,71.517 L61.282,72.099 L60.75,72.406 L57.623,74.212 L57.09,74.52 L56.685,74.058 L51.382,68.027 L50.949,68.196 C48.851,69.018 46.681,69.602 44.498,69.931 L44.039,70 L42.453,77.882 L42.332,78.485 L37.476,78.485 L37.355,77.882 L35.769,70.003 L35.31,69.934 C33.12,69.604 30.946,69.02 28.85,68.198 L28.417,68.029 L23.126,74.058 L22.72,74.52 L22.188,74.213 L19.05,72.405 L18.517,72.099 L18.714,71.516 L21.284,63.904 L20.923,63.615 C19.18,62.22 17.585,60.625 16.183,58.876 L15.894,58.514 L8.29,61.08 L7.708,61.277 L7.402,60.744 L5.597,57.62 L5.29,57.089 L5.75,56.683 L11.764,51.373 L11.595,50.943 C10.776,48.843 10.193,46.675 9.862,44.495 L9.792,44.036 L1.939,42.464 L1.337,42.344 L1.335,41.731 L1.328,38.08 L1.327,37.465 L1.931,37.344 L9.792,35.762 L9.862,35.304 C10.193,33.123 10.775,30.956 11.593,28.863 L11.761,28.433 L5.75,23.112 L5.291,22.706 L5.599,22.175 L7.4,19.06 L7.707,18.529 L8.288,18.725 L15.894,21.282 L16.184,20.921 C17.579,19.179 19.173,17.584 20.921,16.181 L21.283,15.891 L18.714,8.278 L18.517,7.695 L19.051,7.389 L22.189,5.584 L22.72,5.278 L23.125,5.739 L28.423,11.764 L28.855,11.595 C30.954,10.776 33.126,10.192 35.312,9.861 L35.771,9.792 L37.355,1.927 L37.476,1.324 L42.334,1.324 L42.455,1.927 L44.038,9.795 L44.495,9.864 C46.676,10.194 48.846,10.778 50.946,11.598 L51.378,11.767 L56.673,5.739 L57.078,5.278 L57.611,5.584 L60.747,7.389 L61.281,7.695 L61.084,8.278 L58.518,15.886 L58.88,16.176 C60.635,17.579 62.233,19.175 63.629,20.918 L63.919,21.279 L71.519,18.725 L72.1,18.529 L72.407,19.061 L74.207,22.175 L74.514,22.705 L74.055,23.111 L68.057,28.418 L68.225,28.849 C69.045,30.947 69.63,33.122 69.964,35.312 L70.033,35.769 L77.865,37.344 L78.467,37.465 Z M71.205,34.653 L71.113,34.154 C70.808,32.506 70.365,30.864 69.798,29.275 L69.627,28.797 L70.007,28.461 L76.203,22.98 L72.704,16.929 L64.856,19.568 L64.376,19.729 L64.047,19.343 C62.951,18.061 61.743,16.855 60.457,15.759 L60.07,15.43 L60.233,14.948 L62.885,7.089 L56.8,3.589 L51.332,9.813 L50.996,10.194 L50.517,10.024 C48.927,9.457 47.29,9.018 45.653,8.715 L45.154,8.623 L45.053,8.125 L43.418,0 L36.392,0 L34.755,8.123 L34.654,8.62 L34.155,8.712 C32.516,9.014 30.877,9.454 29.284,10.022 L28.806,10.192 L28.47,9.81 L22.999,3.589 L16.915,7.089 L19.569,14.956 L19.731,15.437 L19.345,15.766 C18.064,16.861 16.86,18.065 15.768,19.346 L15.439,19.732 L14.958,19.569 L7.103,16.929 L3.601,22.98 L9.812,28.476 L10.191,28.812 L10.021,29.289 C9.454,30.878 9.015,32.512 8.713,34.147 L8.621,34.646 L8.123,34.746 L0,36.38 L0.014,43.43 L8.122,45.054 L8.621,45.153 L8.713,45.653 C9.015,47.291 9.455,48.927 10.022,50.515 L10.193,50.993 L9.812,51.329 L3.603,56.813 L7.103,62.879 L14.957,60.228 L15.439,60.066 L15.768,60.452 C16.863,61.736 18.067,62.941 19.346,64.031 L19.733,64.361 L19.571,64.842 L16.915,72.704 L23,76.209 L28.463,69.986 L28.799,69.603 L29.279,69.774 C30.873,70.342 32.513,70.782 34.154,71.084 L34.654,71.176 L34.754,71.674 L36.392,79.809 L43.418,79.809 L45.055,71.67 L45.154,71.172 L45.654,71.08 C47.293,70.778 48.931,70.338 50.521,69.772 L51,69.601 L51.336,69.983 L56.813,76.21 L62.885,72.703 L60.232,64.849 L60.069,64.367 L60.456,64.038 C61.742,62.944 62.95,61.738 64.045,60.455 L64.374,60.069 L64.856,60.232 L72.705,62.879 L76.203,56.813 L70.005,51.343 L69.624,51.007 L69.795,50.528 C70.364,48.933 70.808,47.29 71.113,45.646 L71.205,45.146 L71.703,45.046 L79.792,43.43 L79.792,36.38 L71.702,34.753 L71.205,34.653 Z M37.558,49.345 L38.863,49.575 L42.237,30.463 L40.931,30.234 L37.558,49.345 Z M33.963,34.847 L33.028,33.911 L27.034,39.905 L33.028,45.899 L33.963,44.962 L29.437,40.436 L28.906,39.905 L29.437,39.375 L33.963,34.847 Z M45.83,34.849 L50.358,39.375 L50.888,39.905 L50.358,40.436 L45.83,44.961 L46.767,45.899 L52.76,39.905 L46.767,33.912 L45.83,34.849 Z M39.897,59.643 C29.012,59.643 20.156,50.788 20.156,39.904 C20.156,29.02 29.012,20.165 39.897,20.165 C50.78,20.165 59.635,29.02 59.635,39.904 C59.635,50.788 50.78,59.643 39.897,59.643 Z M39.897,18.84 C28.282,18.84 18.833,28.289 18.833,39.904 C18.833,51.519 28.282,60.968 39.897,60.968 C51.511,60.968 60.96,51.519 60.96,39.904 C60.96,28.289 51.511,18.84 39.897,18.84 Z" id="Fill-1" fill="#2962FF" mask="url(#mask-2)"></path>
                </g>
            </g>
        </g>
    </g>
</svg>