<?xml version="1.0" encoding="UTF-8"?>
<svg width="73px" height="78px" viewBox="0 0 73 78" version="1.1" xmlns="http://www.w3.org/2000/svg" xmlns:xlink="http://www.w3.org/1999/xlink">
    <!-- Generator: sketchtool 48.2 (47327) - http://www.bohemiancoding.com/sketch -->
    <title>6EC9F9DD-5463-44D6-8105-8FC609638B81</title>
    <desc>Created with sketchtool.</desc>
    <defs></defs>
    <g id="ACCUEIL-DESKTOP-2" stroke="none" stroke-width="1" fill="none" fill-rule="evenodd" transform="translate(-961.000000, -3900.000000)">
        <g id="EXPERTISES" transform="translate(94.000000, 3602.000000)" fill="#2962FF">
            <g id="Page-1" transform="translate(867.000000, 298.000000)">
                <polygon id="Fill-1" points="63.077 77.9033 72.325 77.9033 72.325 76.5183 63.077 76.5183"></polygon>
                <polygon id="Fill-2" points="31.539 6.5173 40.787 6.5173 40.787 5.1333 31.539 5.1333"></polygon>
                <polygon id="Fill-3" points="0 77.9033 9.247 77.9033 9.247 76.5183 0 76.5183"></polygon>
                <polygon id="Fill-4" points="31.539 1.3843 40.786 1.3843 40.786 0.0003 31.539 0.0003"></polygon>
                <polygon id="Fill-5" points="35.379 64.3053 36.945 64.3053 36.945 62.9203 35.379 62.9203"></polygon>
                <polygon id="Fill-6" points="22.729 41.4243 24.378 41.4243 24.378 40.0393 22.729 40.0393"></polygon>
                <polygon id="Fill-7" points="47.947 41.4243 49.596 41.4243 49.596 40.0393 47.947 40.0393"></polygon>
                <path d="M62.5962,71.1181 L56.1742,64.6951 L55.1962,65.6751 L61.5542,72.0321 L61.1042,72.3801 C57.6012,75.0881 53.4152,76.5181 48.9962,76.5181 C45.9482,76.5181 42.8892,75.7951 40.1492,74.4271 L39.5232,74.1131 L40.0222,73.6231 C44.6002,69.1261 47.1212,63.1081 47.1212,56.6791 C47.1212,55.3531 47.0082,54.0121 46.7832,52.6891 L46.7222,52.3291 L47.0472,52.1611 C52.1612,49.5221 56.1482,45.1291 58.2722,39.7891 L58.4862,39.2501 L58.9882,39.5421 C65.1562,43.1271 68.8382,49.5331 68.8382,56.6781 C68.8382,62.0041 66.7472,67.0081 62.9502,70.7681 L62.5962,71.1181 Z M37.3342,74.1681 L36.1632,75.1061 L34.9912,74.1681 C29.6512,69.8901 26.5882,63.5151 26.5882,56.6791 C26.5882,55.6801 26.6632,54.6391 26.8112,53.5841 L26.8952,52.9801 L28.3652,53.4931 C33.3572,55.2331 38.9692,55.2341 43.9602,53.4931 L45.4302,52.9801 L45.5142,53.5841 C45.6622,54.6371 45.7372,55.6791 45.7372,56.6791 C45.7372,63.5161 42.6742,69.8901 37.3342,74.1681 Z M32.1762,74.4271 C29.4362,75.7951 26.3772,76.5181 23.3292,76.5181 C18.9102,76.5181 14.7232,75.0881 11.2212,72.3801 L10.7712,72.0321 L17.1292,65.6751 L16.1502,64.6951 L9.7292,71.1171 L9.3752,70.7671 C5.5782,67.0081 3.4882,62.0041 3.4882,56.6781 C3.4882,49.5341 7.1702,43.1281 13.3382,39.5421 L13.8392,39.2501 L14.0542,39.7891 C16.1782,45.1291 20.1642,49.5221 25.2792,52.1621 L25.6032,52.3301 L25.5422,52.6901 C25.3182,54.0091 25.2042,55.3501 25.2042,56.6791 C25.2042,63.1091 27.7252,69.1271 32.3032,73.6231 L32.8032,74.1131 L32.1762,74.4271 Z M15.9872,35.5041 C21.8722,33.4511 28.7092,34.0211 34.2552,37.1221 L34.9042,37.4851 L34.1262,38.1081 C30.4552,41.0461 27.7612,44.9591 26.3342,49.4241 L25.8612,50.9071 L25.3272,50.6111 C20.2902,47.8191 16.5582,43.2851 14.8192,37.8461 L14.2632,36.1061 L15.9872,35.5041 Z M34.9402,11.2121 L35.4712,11.1791 L35.4712,20.2251 L36.8552,20.2251 L36.8552,11.1791 L37.3852,11.2121 C47.8252,11.8501 56.0042,20.5461 56.0042,31.0101 C56.0042,31.7391 55.9572,32.5081 55.8662,33.2941 L55.7982,33.8721 L55.2382,33.7191 C53.2062,33.1661 51.1062,32.8861 48.9962,32.8861 C44.5522,32.8861 40.2052,34.1291 36.4272,36.4811 L36.1632,36.6451 L35.8992,36.4811 C32.1202,34.1291 27.7732,32.8861 23.3292,32.8861 C21.2192,32.8861 19.1192,33.1661 17.0882,33.7191 L16.5272,33.8721 L16.4602,33.2941 C16.3672,32.5051 16.3212,31.7361 16.3212,31.0101 C16.3212,20.5471 24.4992,11.8501 34.9402,11.2121 Z M45.1552,51.5861 L44.7442,51.7541 L43.5032,52.1851 C41.1562,53.0051 38.6862,53.4201 36.1632,53.4201 C33.6402,53.4201 31.1692,53.0051 28.8212,52.1841 L27.1662,51.6091 L27.1802,51.5401 L27.1412,51.5211 L27.2532,51.0961 L27.6532,49.8451 C28.9952,45.6421 31.5332,41.9571 34.9912,39.1881 L36.1262,38.2791 L36.1632,38.3041 L36.1872,38.2871 L37.3342,39.1881 C40.7912,41.9551 43.3282,45.6401 44.6732,49.8451 L45.2052,51.5121 L45.1452,51.5401 L45.1552,51.5861 Z M58.0622,36.1051 L57.5062,37.8461 C55.7662,43.2861 52.0342,47.8191 46.9982,50.6111 L46.4652,50.9071 L45.9912,49.4231 C44.5642,44.9601 41.8702,41.0471 38.1992,38.1071 L37.4212,37.4851 L38.0702,37.1221 C43.6162,34.0221 50.4542,33.4511 56.3382,35.5041 L58.0622,36.1051 Z M64.3152,71.3861 L65.0332,70.5581 C68.3792,66.6971 70.2222,61.7681 70.2222,56.6781 C70.2222,48.9751 66.0332,41.8691 59.2902,38.1331 L58.9312,37.9341 L59.7922,35.2431 L57.1312,34.3151 L57.1872,33.9091 C57.3212,32.9411 57.3882,31.9661 57.3882,31.0101 C57.3882,19.3071 47.8672,9.7851 36.1632,9.7851 C24.4592,9.7851 14.9372,19.3071 14.9372,31.0101 C14.9372,31.9681 15.0042,32.9441 15.1382,33.9091 L15.1942,34.3151 L12.5332,35.2431 L13.3942,37.9351 L13.0352,38.1341 C6.2922,41.8691 2.1032,48.9741 2.1032,56.6781 C2.1032,61.7671 3.9462,66.6971 7.2922,70.5581 L8.0102,71.3861 L0.0002,71.3861 L0.0002,72.7691 L9.5092,72.7691 L9.6482,72.8881 C13.4742,76.1221 18.3332,77.9031 23.3292,77.9031 C26.9072,77.9031 30.4612,76.9791 33.6082,75.2311 L33.9012,75.0691 L36.1632,76.8811 L38.4242,75.0691 L38.7182,75.2311 C41.8652,76.9791 45.4192,77.9031 48.9962,77.9031 C53.9922,77.9031 58.8512,76.1221 62.6772,72.8881 L62.8172,72.7691 L72.3252,72.7691 L72.3252,71.3861 L64.3152,71.3861 Z" id="Fill-8"></path>
            </g>
        </g>
    </g>
</svg>