<?xml version="1.0" encoding="UTF-8"?>
<svg width="315px" height="83px" viewBox="0 0 315 83" version="1.1" xmlns="http://www.w3.org/2000/svg" xmlns:xlink="http://www.w3.org/1999/xlink">
    <!-- Generator: sketchtool 49.1 (51147) - http://www.bohemiancoding.com/sketch -->
    <title>E723ECF5-44DE-436C-A75E-298D7C939CEF</title>
    <desc>Created with sketchtool.</desc>
    <defs>
        <polygon id="path-1" points="0.354884666 0.106656853 135.98897 0.106656853 135.98897 80.6288802 0.354884666 80.6288802"></polygon>
    </defs>
    <g id="Page-1" stroke="none" stroke-width="1" fill="none" fill-rule="evenodd">
        <g id="HELLO-VICTOR" transform="translate(-901.000000, -317.000000)">
            <g id="SLIDE">
                <g id="sebastien-gabriel-232358">
                    <g id="Page-1" transform="translate(901.000000, 317.000000)">
                        <path d="M148.247441,69.4285714 C147.056306,69.4285714 146.025052,69.622919 145.155315,70.008832 C144.285578,70.3951424 143.578175,70.9138 143.031063,71.565202 C142.483951,72.2177964 142.080772,72.9598145 141.82071,73.7924487 C141.55942,74.6254802 141.428571,75.4775889 141.428571,76.3463899 C141.428571,77.3852948 141.57823,78.2779422 141.877138,79.0259218 C142.174002,79.7758887 142.590674,80.3907264 143.125111,80.8740119 C143.658729,81.3572974 144.298254,81.7130051 145.043684,81.9419298 C145.789524,82.1712519 146.620415,82.2857143 147.540447,82.2857143 C148.657571,82.2857143 149.590279,82.128726 150.334483,81.8151468 C151.080322,81.5011702 151.694904,81.1092957 152.179045,80.6383308 C152.663595,80.1677633 153.029564,79.6546699 153.278586,79.0978582 C153.52679,78.5446235 153.718974,78.0128505 153.855957,77.5057187 C153.991713,76.9973946 154.080445,76.562994 154.117246,76.2021197 C154.154456,75.840053 154.196573,75.6111283 154.24646,75.5137558 C154.27222,75.4648708 154.285714,75.3929344 154.285714,75.2955619 C154.285714,73.4128947 153.762318,71.9634356 152.720024,70.9499669 C151.675685,69.9349084 150.185642,69.4285714 148.247441,69.4285714" id="Fill-1" fill="#FEFEFE"></path>
                        <path d="M130.192899,66.1795902 C129.827255,67.7680222 129.341946,69.216952 128.734894,70.5292601 C128.129919,71.8419798 127.423146,72.9300146 126.616237,73.7925414 C125.807665,74.6550682 124.974163,75.0855085 124.116562,75.0855085 C123.132648,75.0855085 122.286681,74.8793416 121.579908,74.4665962 C120.87272,74.0542623 120.305141,73.5048953 119.875509,72.8164376 C119.445878,72.1292144 119.130925,71.3234761 118.929406,70.3979882 C118.725808,69.4737347 118.626087,68.4856971 118.626087,67.4351099 C118.626087,65.9116966 118.827607,64.3228531 119.232724,62.673106 C119.636179,61.024182 120.190461,59.5172292 120.897234,58.1538936 C121.604007,56.7930272 122.424213,55.6741291 123.359098,54.798434 C124.292321,53.9231503 125.277897,53.4857143 126.312503,53.4857143 C127.094898,53.4857143 127.76386,53.6988769 128.318143,54.1227331 C128.874503,54.5482354 129.328649,55.1235276 129.682659,55.8477867 C130.035422,56.5736919 130.301345,57.4296345 130.476688,58.4172606 C130.653693,59.4048867 130.742195,60.4735804 130.742195,61.6237533 C130.742195,63.0739176 130.558958,64.5928043 130.192899,66.1795902 M99.8083091,44.8789644 C100.161072,42.3411768 100.641395,39.8721116 101.246785,37.4730032 C101.853422,35.0726602 102.540666,32.809762 103.311427,30.6855428 C104.080525,28.5609122 104.887435,26.6980025 105.733817,25.0980482 C106.579784,23.4980939 107.424505,22.2285829 108.270471,21.2915726 C109.115192,20.3545623 109.904235,19.8858515 110.6376,19.8858515 C110.83912,19.8858515 110.958785,20.1422227 110.996596,20.6541423 C111.034407,21.1664733 111.05352,21.7853856 111.05352,22.5104678 C110.826239,24.7852999 110.296055,27.2420198 109.462969,29.8798045 C108.629883,32.5175892 107.645968,35.1603121 106.509564,37.8096191 C105.374821,40.4601606 104.169028,43.0362187 102.895091,45.5353242 C101.618662,48.0364873 100.413284,50.2862172 99.278541,52.2853371 C99.278541,49.8866402 99.4538839,47.4175749 99.8083091,44.8789644 M78.0371257,44.8789644 C78.3894734,42.3411768 78.8697965,39.8721116 79.4751864,37.4730032 C80.0818228,35.0726602 80.7694825,32.809762 81.5398277,30.6855428 C82.3093418,28.5609122 83.1162513,26.6980025 83.9622183,25.0980482 C84.8086007,23.4980939 85.6533211,22.2285829 86.4997036,21.2915726 C87.3440085,20.3545623 88.1326358,19.8858515 88.866001,19.8858515 C89.0675207,19.8858515 89.1876014,20.1422227 89.2249968,20.6541423 C89.2628077,21.1664733 89.282752,21.7853856 89.282752,22.5104678 C89.05464,24.7852999 88.5248719,27.2420198 87.6917856,29.8798045 C86.8586993,32.5175892 85.874785,35.1603121 84.7383805,37.8096191 C83.6032225,40.4601606 82.3978442,43.0362187 81.1234923,45.5353242 C79.8474783,48.0364873 78.6425156,50.2862172 77.5073576,52.2853371 C77.5073576,49.8866402 77.6827004,47.4175749 78.0371257,44.8789644 M47.0637666,62.673106 C47.1144581,61.8982311 47.2212427,61.0986654 47.3849515,60.2735861 C47.5490757,59.4489184 47.7900682,58.6300117 48.1046051,57.8181008 C48.4195574,57.0057783 48.8363083,56.2794616 49.3544423,55.6416198 C49.8709142,55.0046009 50.515777,54.4865087 51.2848756,54.0852856 C52.0556363,53.6861201 52.9826266,53.4857143 54.067924,53.4857143 C54.6749759,53.4857143 55.1852153,53.8482554 55.6011352,54.5741605 C56.0178861,55.2988312 56.2260538,56.2230846 56.2260538,57.3485669 C56.2260538,58.1489555 55.911517,58.9744463 55.2799503,59.8238048 C54.6487992,60.6731632 53.872637,61.4612065 52.9514637,62.1854657 C52.0294595,62.9117824 51.032249,63.504358 49.9598321,63.9673077 C48.8869998,64.4302575 47.8968529,64.6611151 46.9881448,64.6611151 C46.9881448,64.1121596 47.013075,63.4492156 47.0637666,62.673106 M10.5255572,50.5232475 C9.71864764,52.3734004 8.97406378,54.0852856 8.29180557,55.6605493 C8.51991748,52.8104249 8.84775044,49.899397 9.27738198,46.9241734 C9.45272483,45.6489012 9.66130804,44.3049067 9.90230058,42.8917784 C10.1416311,41.47865 10.4058919,40.0412425 10.695914,38.5795559 C10.9863515,37.1158117 11.3146,35.6475409 11.6814904,34.172686 C12.0475497,32.697831 12.4443564,31.2735919 12.873988,29.897911 C14.6157824,25.8474095 16.1290493,22.7606664 17.4166974,20.6352128 C18.7043455,18.5109936 19.6770413,17.4476495 20.3331227,17.4476495 C20.8379606,17.4476495 21.0905872,18.3978281 21.0905872,20.2973623 C21.0905872,21.5483554 20.7556907,23.4849256 20.0867286,26.1107764 C19.4177666,28.7358043 18.3387017,31.9604035 16.849534,35.7858086 C16.3949722,36.9096448 15.8211606,38.2787415 15.1272683,39.8918641 C14.4317139,41.5045752 13.6941936,43.2164604 12.9117989,45.0299889 C12.1294041,46.8431058 11.3337132,48.6735061 10.5255572,50.5232475 M170.791832,14.4662533 C170.652223,14.0045381 170.455274,13.6411739 170.204725,13.37863 C169.951682,13.1169091 169.64878,12.9354328 169.296017,12.8354357 C168.942007,12.73585 168.563067,12.6856457 168.159612,12.6856457 C167.377217,12.6856457 166.561998,12.7605407 165.717693,12.9103306 C164.87131,13.0605321 164.070633,13.341594 163.313169,13.7543394 C162.555704,14.1666733 161.868045,14.741554 161.25019,15.4789815 C160.630257,16.216409 160.157828,17.1851056 159.829996,18.3854828 C159.324742,20.1109479 158.737634,22.0487526 158.068672,24.1980739 C157.399295,26.3478067 156.69917,28.647741 155.967467,31.0978767 C155.234517,33.5471894 154.496581,36.1104907 153.751997,38.7857229 C153.007413,41.460955 152.307289,44.1670506 151.651207,46.9044209 C150.99471,49.6426142 150.414251,52.3799846 149.909413,55.1165319 C149.707062,56.2144429 149.540029,57.2893093 149.377983,58.3604721 C148.301411,57.0851999 147.182873,55.8296802 145.983312,54.611608 C144.405226,53.0116538 142.701243,51.5923528 140.870946,50.354528 C139.041064,49.1167033 137.077806,48.1294888 134.983249,47.3920613 C132.887444,46.6546338 130.640812,46.2855085 128.243352,46.2855085 C125.441606,46.2855085 122.917832,46.7924899 120.6712,47.8043952 C118.424152,48.8179464 116.524882,50.2051496 114.971726,51.9672392 C113.420648,53.7297402 112.226489,55.8054011 111.393402,58.1917526 C110.561978,60.5793387 110.145227,63.1488126 110.145227,65.8985283 C110.145227,66.9577573 110.215448,68.008756 110.345916,69.0539937 C110.117804,69.2095448 109.878889,69.3864944 109.65327,69.5350499 C108.971012,69.9852428 108.264239,70.430086 107.532951,70.8675221 C106.799586,71.3041351 106.086165,71.6921899 105.392273,72.0304518 C104.698796,72.3662447 104.042714,72.6357843 103.424444,72.8357786 C102.804511,73.0353614 102.256876,73.1361815 101.776138,73.1361815 C101.574618,73.1361815 101.361465,72.9917412 101.133353,72.7040951 C100.905656,72.416449 100.692087,72.0304518 100.490567,71.5411654 C100.28697,71.0539365 100.116613,70.504981 99.9786659,69.8926528 C99.8394719,69.2803246 99.7704982,68.6486554 99.7704982,67.9988798 L99.7704982,67.4742034 C99.84612,66.9738062 99.9458411,66.4606521 100.074232,65.9359758 C100.198468,65.4112994 100.324781,64.9178979 100.451094,64.4549481 C100.577823,63.9919984 100.710369,63.561558 100.849563,63.1599234 C100.987511,62.7603464 101.120056,62.4356643 101.246785,62.1854657 C102.407705,59.9357357 103.650894,57.6296288 104.976353,55.2675564 C106.300981,52.9042494 107.619792,50.5055525 108.933201,48.0673506 C110.245364,45.6295602 111.508082,43.1728403 112.720108,40.6971909 C113.930472,38.2223645 114.998319,35.7545338 115.919492,33.2908182 C116.839834,30.8303947 117.571537,28.3790244 118.115848,25.942057 C118.656835,23.5038551 118.929406,21.1105078 118.929406,18.7603692 C118.929406,17.7101935 118.847136,16.6793587 118.683427,15.6666305 C118.519303,14.6539022 118.235513,13.7485783 117.830396,12.9477781 C117.426942,12.147801 116.870997,11.5046095 116.165886,11.0165576 C115.459113,10.5293287 114.562039,10.2857143 113.476326,10.2857143 C111.887022,10.2857143 110.320986,10.7605978 108.782788,11.711188 C107.242514,12.660955 105.76498,13.9670906 104.351434,15.629183 C102.937473,17.2916869 101.587499,19.2414254 100.300682,21.4792216 C99.0130337,23.7166062 97.8205361,26.1227103 96.721527,28.6983568 C95.6245954,31.2735919 94.640681,33.9599348 93.7697838,36.7602663 C92.8988866,39.5601863 92.1464082,42.347761 91.5165035,45.1242248 C90.8845214,47.8986312 90.4041983,50.5932044 90.0780274,53.2050639 C89.7485324,55.8165119 89.5844081,58.2353728 89.5844081,60.4608236 C89.5844081,63.0595148 89.7934068,65.5454519 90.1893825,67.9326265 C89.4040792,68.5013346 88.6333186,69.0395908 87.8820867,69.5350499 C87.1998285,69.9852428 86.4930555,70.430086 85.7613523,70.8675221 C85.0284025,71.3041351 84.3149815,71.6921899 83.6210892,72.0304518 C82.9276123,72.3662447 82.2715309,72.6357843 81.6532604,72.8357786 C81.0333278,73.0353614 80.4852775,73.1361815 80.0049545,73.1361815 C79.8034348,73.1361815 79.5902811,72.9917412 79.3621692,72.7040951 C79.1340573,72.416449 78.921319,72.0304518 78.7193839,71.5411654 C78.5157867,71.0539365 78.3454299,70.504981 78.207898,69.8926528 C78.0682885,69.2803246 77.9993148,68.6486554 77.9993148,67.9988798 L77.9993148,67.4742034 C78.0745211,66.9738062 78.1750731,66.4606521 78.302633,65.9359758 C78.4272843,65.4112994 78.5535976,64.9178979 78.679911,64.4549481 C78.8062243,63.9919984 78.9387702,63.561558 79.0783797,63.1599234 C79.2159116,62.7603464 79.3492885,62.4356643 79.4751864,62.1854657 C80.6361056,59.9357357 81.8797103,57.6296288 83.2047538,55.2675564 C84.5302128,52.9042494 85.8481927,50.5055525 87.1620176,48.0673506 C88.4741804,45.6295602 89.7368982,43.1728403 90.9489245,40.6971909 C92.1592888,38.2223645 93.2267196,35.7545338 94.1487238,33.2908182 C95.0686506,30.8303947 95.8003538,28.3790244 96.3446645,25.942057 C96.8860668,23.5038551 97.1578066,21.1105078 97.1578066,18.7603692 C97.1578066,17.7101935 97.0759523,16.6793587 96.911828,15.6666305 C96.7481193,14.6539022 96.4643298,13.7485783 96.059213,12.9477781 C95.6557583,12.147801 95.0998134,11.5046095 94.3947024,11.0165576 C93.6879295,10.5293287 92.79044,10.2857143 91.704727,10.2857143 C90.1158382,10.2857143 88.5493867,10.7605978 87.0111895,11.711188 C85.4713302,12.660955 83.9937966,13.9670906 82.5798352,15.629183 C81.1662892,17.2916869 79.8163155,19.2414254 78.5290829,21.4792216 C77.2418503,23.7166062 76.0493527,26.1227103 74.9507591,28.6983568 C73.853412,31.2735919 72.8690821,33.9599348 71.9981849,36.7602663 C71.1277032,39.5601863 70.3748093,42.347761 69.7453201,45.1242248 C69.1137534,47.8986312 68.6330149,50.5932044 68.3068439,53.2050639 C67.9773489,55.8165119 67.8132247,58.2353728 67.8132247,60.4608236 C67.8132247,62.7587003 67.9740249,64.9697482 68.2835757,67.1021976 C67.8240278,67.4754379 67.3457823,67.8540279 66.8293103,68.2424942 C65.4153489,69.3046038 63.912885,70.2860572 62.3223342,71.18562 C60.7330299,72.0855943 59.0980202,72.8357786 57.4202134,73.4353499 C55.7407447,74.0361558 54.1452078,74.3349127 52.6298633,74.3349127 C52.1507868,74.3349127 51.7016265,74.2863544 51.2848756,74.1855342 C50.8702023,74.0863601 50.4717336,73.9110565 50.0927936,73.6608579 C49.7138535,73.4106593 49.3415616,73.0616981 48.9759178,72.6098591 C48.6098584,72.1600777 48.237982,71.5979539 47.859042,70.9238991 C50.0549827,70.3230932 52.0934472,69.4864916 53.9744355,68.4112137 C55.8541774,67.3363473 57.475891,66.1112794 58.8387454,64.7355985 C60.2036773,63.3611522 61.2694461,61.8982311 62.0385447,60.3484811 C62.8093054,58.7987312 63.1932314,57.2493927 63.1932314,55.6979967 C63.1932314,54.2737576 62.9406047,52.9857286 62.4374289,51.8359672 C61.9321756,50.6857943 61.2299732,49.7047524 60.3345612,48.8924299 C59.4391493,48.080519 58.3845991,47.4484383 57.1742348,46.9990684 C55.962624,46.5488755 54.6487992,46.322956 53.2348377,46.322956 C51.4934588,46.322956 49.9087251,46.6299431 48.4839606,47.2422713 C47.0571185,47.855011 45.7694704,48.6800903 44.6218473,49.7175092 C43.4733931,50.7557512 42.46995,51.9544823 41.612349,53.3169948 C40.7526704,54.6799188 40.0409114,56.1107421 39.4716704,57.6119338 C38.9045069,59.1106564 38.4811079,60.6427114 38.2039665,62.2052182 C37.925163,63.767725 37.7872156,65.2487526 37.7872156,66.6491241 C37.7872156,67.1367645 37.8071598,67.6186437 37.8395691,68.0959963 C37.632648,68.2959906 37.4286353,68.518618 37.2200521,68.7099706 C36.6395925,69.2605721 36.0209064,69.7918327 35.3652405,70.3049867 C34.7074971,70.8169062 34.040197,71.2732718 33.3579388,71.6728489 C32.6773426,72.074072 31.9950844,72.398754 31.3128262,72.6489526 C30.63223,72.8991513 29.9877827,73.0226045 29.3823928,73.0226045 C28.9020697,73.0226045 28.5114956,72.7234361 28.2081774,72.1226302 C27.9065212,71.5230589 27.7540311,70.7243163 27.7540311,69.7235218 C27.7540311,67.8980596 27.9871291,66.1487269 28.4545715,64.4738776 C28.922014,62.7994399 29.4401479,61.1542194 30.0073114,59.5427428 C30.5748904,57.9300317 31.0980104,56.3169091 31.5783335,54.704198 C32.0569946,53.0927214 32.2984026,51.4363901 32.2984026,49.7356157 C32.2984026,48.8862573 32.1837234,48.1924499 31.9572735,47.6546052 C31.7291616,47.1175835 31.4457876,46.6982539 31.104243,46.397851 C30.7647759,46.0986826 30.4041181,45.8925156 30.0255936,45.7805847 C29.6483156,45.6665962 29.306771,45.6118652 29.0038683,45.6118652 C27.791842,45.6118652 26.4979614,46.0550624 25.1234728,46.9418684 C23.7473223,47.8303203 22.3645237,48.9430458 20.9771545,50.2796331 C19.5885389,51.6178664 18.2501992,53.060212 16.9625511,54.611608 C15.6753186,56.1609465 14.5139838,57.6119338 13.4793779,58.961278 L12.7231599,58.4353671 C13.5811764,56.8609265 14.5713234,55.0354642 15.6948473,52.9614494 C16.8183711,50.8853771 17.9597617,48.6800903 19.1210964,46.3427085 C20.2820157,44.0040922 21.4184202,41.592227 22.5290634,39.1038208 C23.6392912,36.6170606 24.6294381,34.1595176 25.5003353,31.7348956 C26.3712325,29.3110965 27.0730194,26.9733032 27.603203,24.7227503 C28.1325556,22.4730203 28.3984784,20.4236962 28.3984784,18.5727203 C28.3984784,17.3233732 28.2970954,16.1913068 28.0947447,15.1794016 C27.8932251,14.1666733 27.5325673,13.2983854 27.0160953,12.5733032 C26.4979614,11.8482211 25.804069,11.2856857 24.9331718,10.8856971 C24.0622746,10.4861201 22.9453988,10.2857143 21.5821289,10.2857143 C18.9569722,10.2857143 16.6343027,11.0107964 14.6157824,12.4605493 C12.5951845,13.9107136 10.8355234,15.8674478 9.33305957,18.3291058 C7.83101121,20.7919984 6.55665925,23.6417112 5.50875718,26.8790672 C4.46210163,30.1168348 3.59161993,33.5167376 2.89606559,37.0783642 C2.20258876,40.6420484 1.6661726,44.2481182 1.28723259,47.8986312 C0.908708097,51.5483211 0.617855025,55.0243534 0.416335397,58.3230246 C0.214815769,61.6237533 0.0951505049,64.6298403 0.0573396056,67.3425199 C0.0195287063,70.0551996 0,72.2493756 0,73.9238133 C0,74.9731661 0.0378108993,75.9982396 0.113017194,76.9986226 C0.189885505,77.997771 0.354425243,78.8928071 0.606636407,79.6787929 C0.857601057,80.4668362 1.22490694,81.0985054 1.7039835,81.5725659 C2.18264455,82.048684 2.840388,82.2857143 3.6734743,82.2857143 C4.30337895,82.2857143 4.82151292,82.1495042 5.22496768,81.8733804 C5.62842244,81.5989026 6.00196089,81.1923299 6.34184348,80.6548967 C6.68297258,80.1174635 7.03074975,79.4302403 7.38351298,78.5919927 C7.73752272,77.7541565 8.19166902,76.7731146 8.74595187,75.6492784 C9.8565951,73.3732118 11.0993687,71.1675135 12.4755193,69.030126 C13.8516698,66.892327 15.1829459,64.9681022 16.470594,63.2545709 C17.7578265,61.5422742 18.9125132,60.1225617 19.9363161,58.9987255 C20.9580413,57.8728317 21.682681,57.1728517 22.1123125,56.898374 L22.9075879,57.0107164 C22.8319661,57.0851999 22.6682574,57.3613237 22.4156307,57.8357957 C22.1630041,58.3119138 21.8663339,58.9238305 21.5252048,59.6727803 C21.1853222,60.4233761 20.8184319,61.2743806 20.4278577,62.2229132 C20.0360371,63.1730918 19.6832739,64.1491956 19.3666595,65.148344 C19.0521227,66.1487269 18.7861999,67.1429372 18.5730462,68.1301517 C18.3582304,69.1181894 18.2501992,70.0115795 18.2501992,70.8103221 C18.2501992,72.0106993 18.413908,73.2859715 18.7421564,74.6357271 C19.0699894,75.9850713 19.5619466,77.2294802 20.21969,78.3664847 C20.8757715,79.5051353 21.7155058,80.4421456 22.7372311,81.1795731 C23.7589564,81.9170005 24.9643347,82.2857143 26.3533658,82.2857143 C27.2616584,82.2857143 28.2148255,82.1363358 29.212036,81.8359329 C30.208831,81.5351185 31.2064571,81.1552939 32.2032521,80.6927557 C33.2004626,80.229806 34.1910251,79.6985454 35.1749395,79.0989741 C36.1605159,78.4981682 37.0742101,77.905181 37.9205925,77.317132 C38.7121284,76.7673535 39.4301199,76.2480267 40.0882789,75.7538022 C40.4651414,76.3945246 40.8756597,77.0101449 41.3464262,77.5800874 C42.5318602,79.0174949 44.0164574,80.1614952 45.7956472,81.0108536 C47.5752525,81.8598005 49.6515279,82.2857143 52.0244735,82.2857143 C53.5385714,82.2857143 55.0339717,82.1169948 56.5119208,81.7787329 C57.9877924,81.44294 59.4129725,80.9911011 60.789123,80.4293887 C62.164858,79.8672649 63.4782674,79.2240734 64.7264426,78.4981682 C65.9762798,77.7734976 67.1442626,77.0360701 68.2295601,76.2858857 C68.9076633,75.8110022 69.5728858,75.3134856 70.2306292,74.8003315 C70.351541,75.1101992 70.4674667,75.4278856 70.5962731,75.7237619 C71.4671703,77.7232932 72.4905576,79.3166633 73.663111,80.5042837 C74.8373264,81.6927271 76.1050303,82.2857143 77.4695467,82.2857143 C78.3275632,82.2857143 79.249152,82.1671992 80.2330664,81.9297574 C81.2169808,81.6927271 82.2274874,81.3729832 83.2620934,80.9734061 C84.2971148,80.5738291 85.3254882,80.1174635 86.34846,79.6038979 C87.3701853,79.0923899 88.3607477,78.5726517 89.3205629,78.0479753 C90.3892401,77.4397622 91.4645655,76.7866945 92.5457079,76.0953562 C93.3779632,77.9146458 94.3381938,79.3940274 95.4342944,80.5042837 C96.6085098,81.6927271 97.8766292,82.2857143 99.2407301,82.2857143 C100.098331,82.2857143 101.020335,82.1671992 102.00425,81.9297574 C102.988164,81.6927271 103.998671,81.3729832 105.033277,80.9734061 C106.068298,80.5738291 107.096672,80.1174635 108.120059,79.6038979 C109.141784,79.0923899 110.132347,78.5726517 111.091331,78.0479753 C111.71251,77.6944875 112.340337,77.2949104 112.965256,76.9134398 C112.998496,76.9657017 113.026335,77.0220787 113.059991,77.0735176 C114.069666,78.622856 115.363962,79.8804332 116.941633,80.8417226 C118.517641,81.8050696 120.418573,82.2857143 122.639029,82.2857143 C124.178888,82.2857143 125.63066,82.0227588 126.993515,81.4980825 C128.357616,80.9734061 129.612439,80.2602578 130.76214,79.3602835 C131.910178,78.4607207 132.931903,77.3986112 133.828977,76.1735433 C134.724389,74.9492984 135.481854,73.6365787 136.10054,72.2366188 C136.718395,70.8362472 137.190823,69.3856714 137.520734,67.8853028 C137.848567,66.3857572 138.012276,64.8981453 138.012276,63.4232904 C138.012276,61.9484354 137.829038,60.4052696 137.463394,58.7925585 C137.097335,57.1794359 136.548038,55.6477924 135.816335,54.1992741 L136.118407,53.7865287 C137.028361,54.3861001 138.112828,55.1297002 139.375546,56.0169177 C140.636601,56.9049581 141.917601,57.8489641 143.21813,58.847701 C144.518659,59.8480839 145.748552,60.872746 146.909471,61.9241563 C147.597131,62.5451262 148.18964,63.1364673 148.709021,63.7051753 C148.724394,64.145492 148.883532,64.4705855 149.209288,64.6611151 C149.349728,64.7434173 149.509698,64.7981482 149.674237,64.8467065 C149.674237,64.847118 149.674653,64.8475295 149.675068,64.847941 L149.675068,64.847118 C149.908166,64.9162518 150.1583,64.961518 150.439181,64.961518 C150.767429,64.961518 151.108143,64.9178979 151.462153,64.8298345 C151.814916,64.7421827 152.143164,64.6170834 152.446483,64.4549481 C152.748139,64.2919898 153.007413,64.0924071 153.222229,63.8553768 C153.437045,63.617935 153.568344,63.3611522 153.619036,63.0850284 C155.841569,57.9102792 157.853441,53.305884 159.659223,49.2677278 C161.463343,45.2299831 163.072176,41.5226817 164.487384,38.1474695 C165.899684,34.7722573 167.11171,31.6163804 168.121801,28.6786043 C169.130646,25.7420627 169.951682,22.8100477 170.583249,19.8858515 C170.734077,19.1356671 170.840862,18.466962 170.904849,17.8789129 C170.967175,17.2916869 171,16.7484926 171,16.2480953 C171,15.5230132 170.929364,14.929203 170.791832,14.4662533" id="Fill-3" fill="#FEFEFE"></path>
                        <path d="M281.49957,30.8571429 L279,30.8571429 L279,39.8571429 L281.028998,39.8571429 C282.963184,39.8571429 284.142857,39.1040437 284.142857,36.7606257 L284.142857,33.872196 C284.142857,31.7780401 283.340939,30.8571429 281.49957,30.8571429" id="Fill-5" fill="#FEFEFE"></path>
                        <g id="Group-9" transform="translate(178.714286, 0.000000)">
                            <mask id="mask-2" fill="white">
                                <use xlink:href="#path-1"></use>
                            </mask>
                            <g id="Clip-8"></g>
                            <path d="M104.923537,53.9856365 C104.688476,53.2862406 104.530518,52.8578041 104.530518,50.6424335 L104.530518,46.3662914 C104.530518,43.8392558 103.663624,42.9054944 101.692691,42.9054944 L100.195632,42.9054944 L100.195632,53.9856365 L95.8611625,53.9856365 L95.8611625,26.7733371 L102.401626,26.7733371 C106.894471,26.7733371 108.82581,28.8328751 108.82581,33.0313066 L108.82581,35.1706112 C108.82581,37.9686061 107.918906,39.7571848 105.9884,40.6510629 L105.9884,40.7291848 C108.154801,41.6234741 108.864987,43.6439513 108.864987,46.4830629 L108.864987,50.6814944 C108.864987,52.0025756 108.904997,52.9745756 109.337194,53.9856365 L104.923537,53.9856365 Z M93.0629292,47.4550629 C93.0629292,51.8093269 90.7385701,54.2973015 86.4828716,54.2973015 C82.227173,54.2973015 79.9028139,51.8093269 79.9028139,47.4550629 L79.9028139,33.3043218 C79.9028139,28.9496467 82.227173,26.4620832 86.4828716,26.4620832 C90.7385701,26.4620832 93.0629292,28.9496467 93.0629292,33.3043218 L93.0629292,47.4550629 Z M78.3644941,30.6605147 L73.8324731,30.6605147 L73.8324731,53.9856365 L69.4975872,53.9856365 L69.4975872,30.6605147 L64.9672333,30.6605147 L64.9672333,26.7733371 L78.3644941,26.7733371 L78.3644941,30.6605147 Z M63.5868716,35.9481289 L59.4891311,35.9481289 L59.4891311,33.0313066 C59.4891311,31.0885401 58.6222372,30.3504944 57.2439594,30.3504944 C55.8635976,30.3504944 54.9967038,31.0885401 54.9967038,33.0313066 L54.9967038,47.727667 C54.9967038,49.6704335 55.8635976,50.3698294 57.2439594,50.3698294 C58.6222372,50.3698294 59.4891311,49.6704335 59.4891311,47.727667 L59.4891311,43.8392558 L63.5868716,43.8392558 L63.5868716,47.4550629 C63.5868716,51.8093269 61.3808768,54.2973015 57.1251782,54.2973015 C52.8698965,54.2973015 50.6639017,51.8093269 50.6639017,47.4550629 L50.6639017,33.3043218 C50.6639017,28.9496467 52.8698965,26.4620832 57.1251782,26.4620832 C61.3808768,26.4620832 63.5868716,28.9496467 63.5868716,33.3043218 L63.5868716,35.9481289 Z M43.5311992,53.9856365 L47.8656684,53.9856365 L47.8656684,26.7733371 L43.5311992,26.7733371 L43.5311992,53.9856365 Z M37.2649738,53.9856365 L30.8011966,53.9856365 L26.545498,26.7733371 L30.9199777,26.7733371 L34.1900013,48.9710376 L34.2691887,48.9710376 L37.5396291,26.7733371 L41.5206723,26.7733371 L37.2649738,53.9856365 Z M68.1718231,0.106656853 C30.7174246,0.106656853 0.354884666,18.1322406 0.354884666,40.3677685 C0.354884666,48.9755604 4.92024771,56.9460426 12.6706121,63.4910071 L1.51768938,80.6288802 L26.3771206,72.0622051 C37.896806,77.4234183 52.3993565,80.6288802 68.1718231,80.6288802 C105.626221,80.6288802 135.989178,62.6032964 135.989178,40.3677685 C135.989178,18.1322406 105.626221,0.106656853 68.1718231,0.106656853 Z" id="Fill-7" fill="#FEFEFE" mask="url(#mask-2)"></path>
                        </g>
                        <path d="M264.858097,30.8571429 C263.278028,30.8571429 262.285714,31.6144872 262.285714,33.6069437 L262.285714,48.6791922 C262.285714,50.6712271 263.278028,51.4285714 264.858097,51.4285714 C266.436258,51.4285714 267.428571,50.6712271 267.428571,48.6791922 L267.428571,33.6069437 C267.428571,31.6144872 266.436258,30.8571429 264.858097,30.8571429" id="Fill-10" fill="#FEFEFE"></path>
                    </g>
                </g>
            </g>
        </g>
    </g>
</svg>