<?xml version="1.0" encoding="UTF-8"?>
<svg width="48px" height="81px" viewBox="0 0 48 81" version="1.1" xmlns="http://www.w3.org/2000/svg" xmlns:xlink="http://www.w3.org/1999/xlink">
    <!-- Generator: sketchtool 48.2 (47327) - http://www.bohemiancoding.com/sketch -->
    <title>19FFD020-5D6A-4AF9-910E-6510C2416AE4</title>
    <desc>Created with sketchtool.</desc>
    <defs>
        <polygon id="path-1" points="0 0.7061 20.8205 0.7061 20.8205 14.9251 0 14.9251"></polygon>
    </defs>
    <g id="ACCUEIL-DESKTOP-2" stroke="none" stroke-width="1" fill="none" fill-rule="evenodd" transform="translate(-1436.000000, -3897.000000)">
        <g id="EXPERTISES" transform="translate(94.000000, 3602.000000)">
            <g id="Page-1" transform="translate(1342.000000, 294.000000)">
                <path d="M28.5752,14.5014 C28.5752,13.3754 29.0132,12.3174 29.8092,11.5224 C30.6072,10.7264 31.6652,10.2884 32.7902,10.2884 L42.0952,10.2884 L42.0952,14.5014 C42.0952,15.6264 41.6572,16.6854 40.8612,17.4814 C40.0652,18.2774 39.0062,18.7154 37.8802,18.7154 L28.5752,18.7154 L28.5752,14.5014 Z M41.8762,18.4964 C42.9422,17.4284 43.5302,16.0094 43.5302,14.5014 L43.5302,8.8534 L32.7902,8.8534 C31.2832,8.8534 29.8642,9.4404 28.7952,10.5064 C27.7282,11.5734 27.1402,12.9924 27.1402,14.5014 L27.1402,20.1504 L37.8802,20.1504 C39.3892,20.1504 40.8082,19.5634 41.8762,18.4964 Z" id="Fill-1" fill="#2962FF"></path>
                <g id="Group-5" transform="translate(0.000000, 0.293900)">
                    <mask id="mask-2" fill="white">
                        <use xlink:href="#path-1"></use>
                    </mask>
                    <g id="Clip-4"></g>
                    <path d="M1.4355,2.1421 L13.7075,2.1421 C15.2235,2.1421 16.6485,2.7311 17.7215,3.8001 C18.7945,4.8741 19.3855,6.3001 19.3855,7.8161 L19.3855,13.4901 L7.1135,13.4901 C5.5935,13.4901 4.1675,12.9011 3.0975,11.8301 C2.0255,10.7581 1.4355,9.3321 1.4355,7.8161 L1.4355,2.1421 Z M7.1135,14.9251 L20.8205,14.9251 L20.8205,7.8161 C20.8205,5.9161 20.0805,4.1301 18.7355,2.7851 C17.3905,1.4451 15.6045,0.7061 13.7075,0.7061 L-0.0005,0.7061 L-0.0005,7.8161 C-0.0005,9.7161 0.7395,11.5021 2.0825,12.8461 C3.4245,14.1861 5.2105,14.9251 7.1135,14.9251 Z" id="Fill-3" fill="#2962FF" mask="url(#mask-2)"></path>
                </g>
                <path d="M19.3857,23.4511 L19.3857,26.7511 L11.9367,26.7511 C11.0547,26.7511 10.2257,26.4091 9.6027,25.7851 C8.9787,25.1611 8.6357,24.3321 8.6357,23.4511 L8.6357,20.1501 L16.0847,20.1501 C16.9667,20.1501 17.7947,20.4931 18.4187,21.1161 C19.0427,21.7401 19.3857,22.5691 19.3857,23.4511 Z M7.2007,18.7151 L7.2007,23.4511 C7.2007,24.7161 7.6937,25.9051 8.5877,26.8001 C9.4817,27.6941 10.6707,28.1861 11.9367,28.1861 L20.8207,28.1861 L20.8207,23.4511 C20.8207,22.1851 20.3277,20.9961 19.4327,20.1011 C18.5377,19.2071 17.3487,18.7151 16.0847,18.7151 L7.2007,18.7151 Z" id="Fill-6" fill="#2962FF"></path>
                <path d="M45.5352,76.3925 C44.6642,78.4975 42.6292,79.8585 40.3502,79.8585 L7.6112,79.8585 C5.3322,79.8585 3.2972,78.4975 2.4252,76.3925 C1.5532,74.2875 2.0312,71.8855 3.6412,70.2765 L18.3662,55.5525 L18.3662,40.5445 L23.2632,40.5445 L23.2632,62.8505 L16.1812,62.8505 L6.1982,72.8315 C5.6252,73.4065 5.4552,74.2605 5.7652,75.0085 C6.0762,75.7585 6.8002,76.2435 7.6112,76.2435 L40.3502,76.2435 C41.1602,76.2435 41.8842,75.7585 42.1942,75.0095 C42.5052,74.2595 42.3362,73.4055 41.7632,72.8315 L31.7812,62.8505 L24.6982,62.8505 L24.6982,40.5445 L29.5952,40.5445 L29.5952,55.5515 L44.3202,70.2765 C45.9302,71.8855 46.4072,74.2875 45.5352,76.3925 Z M15.2022,36.6625 C15.2022,35.3125 16.3002,34.2145 17.6492,34.2145 L23.2632,34.2145 L23.2632,39.1085 L17.6492,39.1085 C16.3002,39.1085 15.2022,38.0115 15.2022,36.6625 Z M24.6982,68.0595 L24.6982,64.2865 L31.1852,64.2865 L41.6762,74.8085 L6.2752,74.7855 L16.7752,64.2865 L23.2632,64.2865 L23.2632,68.0595 L24.6982,68.0595 Z M24.6982,34.2145 L30.3122,34.2145 C31.6612,34.2145 32.7582,35.3125 32.7582,36.6625 C32.7582,38.0115 31.6612,39.1085 30.3122,39.1085 L24.6982,39.1085 L24.6982,34.2145 Z M45.3342,69.2605 L31.0302,54.9555 L31.0302,40.4975 L31.4222,40.3795 C33.0542,39.8925 34.1942,38.3625 34.1942,36.6625 C34.1942,34.5205 32.4522,32.7795 30.3122,32.7795 L24.6982,32.7795 L24.6982,2.2675 L23.2632,2.2675 L23.2632,32.7795 L17.6492,32.7795 C15.5082,32.7795 13.7662,34.5205 13.7662,36.6625 C13.7662,38.3615 14.9072,39.8915 16.5392,40.3805 L16.9312,40.4975 L16.9312,54.9575 L2.6272,69.2605 C0.6052,71.2835 0.0052,74.2985 1.0992,76.9425 C2.1942,79.5855 4.7492,81.2935 7.6112,81.2935 L40.3502,81.2935 C43.2122,81.2935 45.7672,79.5855 46.8612,76.9425 C47.9552,74.2985 47.3562,71.2845 45.3342,69.2605 Z" id="Fill-8" fill="#2962FF"></path>
            </g>
        </g>
    </g>
</svg>