<?xml version="1.0" encoding="UTF-8"?>
<svg width="93px" height="23px" viewBox="0 0 93 23" version="1.1" xmlns="http://www.w3.org/2000/svg" xmlns:xlink="http://www.w3.org/1999/xlink">
    <!-- Generator: sketchtool 49.2 (51160) - http://www.bohemiancoding.com/sketch -->
    <title>87F20175-C40F-4F2B-B8CD-6241D9B01619</title>
    <desc>Created with sketchtool.</desc>
    <defs>
        <polygon id="path-1" points="0.368379866 0.344848993 3.33114765 0.344848993 3.33114765 3.30524497 0.368379866 3.30524497"></polygon>
        <polygon id="path-3" points="0 0.202477852 9.88290403 0.202477852 9.88290403 16.0262094 0 16.0262094"></polygon>
        <polygon id="path-5" points="0.0421308725 0 22.5113054 0 22.5113054 22.4697362 0.0421308725 22.4697362"></polygon>
    </defs>
    <g id="Page-1" stroke="none" stroke-width="1" fill="none" fill-rule="evenodd">
        <g id="CONTACT" transform="translate(-1073.000000, -1001.000000)">
            <g id="PRÉSENTATION" transform="translate(95.000000, 746.000000)">
                <g id="Page-1" transform="translate(978.000000, 255.000000)">
                    <path d="M91.0795812,17.9752148 L90.8186819,17.9752148 L90.8186819,17.4465503 L91.1494872,17.4465503 C91.3211315,17.4465503 91.5152456,17.4746376 91.5152456,17.6987114 C91.5152456,17.9546174 91.3192591,17.9752148 91.0795812,17.9752148 Z M91.3392322,18.1325034 C91.6032523,18.100047 91.7418161,17.9546174 91.7418161,17.7105705 C91.7418161,17.4134698 91.5608094,17.2686644 91.1906819,17.2686644 L90.5952322,17.2686644 L90.5952322,18.8334362 L90.8186819,18.8334362 L90.8186819,18.1518523 L91.0951852,18.1518523 L91.1014268,18.1605906 L91.5314738,18.8334362 L91.7699034,18.8334362 L91.3092725,18.1368725 L91.3392322,18.1325034 Z" id="Fill-1" fill="#1B222C"></path>
                    <g id="Group-5" transform="translate(89.255034, 16.228188)">
                        <mask id="mask-2" fill="white">
                            <use xlink:href="#path-1"></use>
                        </mask>
                        <g id="Clip-4"></g>
                        <path d="M1.85076242,3.11113087 C1.14171544,3.11113087 0.586212081,2.55188255 0.586212081,1.8247349 C0.586212081,1.09883557 1.14171544,0.538963087 1.85076242,0.538963087 C2.55918523,0.538963087 3.11344027,1.09883557 3.11344027,1.8247349 C3.11344027,2.55188255 2.55918523,3.11113087 1.85076242,3.11113087 M1.85076242,0.344848993 C1.01937987,0.344848993 0.368379866,0.994600671 0.368379866,1.8247349 C0.368379866,2.65611745 1.01937987,3.30524497 1.85076242,3.30524497 C2.67964832,3.30524497 3.33127248,2.65611745 3.33127248,1.8247349 C3.33127248,0.994600671 2.67964832,0.344848993 1.85076242,0.344848993" id="Fill-3" fill="#1B222C" mask="url(#mask-2)"></path>
                    </g>
                    <g id="Group-8" transform="translate(0.000000, 3.120805)">
                        <mask id="mask-4" fill="white">
                            <use xlink:href="#path-3"></use>
                        </mask>
                        <g id="Clip-7"></g>
                        <polygon id="Fill-6" fill="#1B222C" mask="url(#mask-4)" points="-6.24161074e-05 0.202477852 3.46527987 0.202477852 3.46527987 12.8273839 9.88290403 12.8273839 9.88290403 16.0262094 -6.24161074e-05 16.0262094"></polygon>
                    </g>
                    <path d="M13.079857,3.08859866 C14.1465483,3.08859866 15.0122597,3.95431007 15.0122597,5.0216255 C15.0122597,6.08831678 14.1465483,6.95153154 13.079857,6.95153154 C12.0137899,6.95153154 11.1480785,6.08831678 11.1480785,5.0216255 C11.1480785,3.95431007 12.0137899,3.08859866 13.079857,3.08859866 Z M11.4139711,19.1420215 L14.7451188,19.1420215 L14.7451188,8.41893423 L11.4139711,8.41893423 L11.4139711,19.1420215 Z" id="Fill-9" fill="#1B222C"></path>
                    <polygon id="Fill-11" fill="#1B222C" points="28.6720248 3.32328322 32.0006758 3.32328322 32.0006758 12.7793235 35.7749779 8.41394094 39.8569913 8.41394094 35.4884879 13.3785181 39.7658638 19.1470148 35.5802396 19.1470148 32.0443671 13.8453906 32.0006758 13.8453906 32.0006758 19.1470148 28.6720248 19.1470148"></polygon>
                    <path d="M16.5880792,8.42143087 L19.7862805,8.42143087 L19.7862805,9.88633691 L19.830596,9.88633691 C20.2743745,9.0430953 21.3622872,8.15428993 22.9838577,8.15428993 C26.359945,8.15428993 26.9816094,10.3756792 26.9816094,13.2624242 L26.9816094,19.1420215 L23.6498376,19.1420215 L23.6498376,13.928404 C23.6498376,12.6850752 23.6273678,11.0865987 21.9171664,11.0865987 C20.1851195,11.0865987 19.9192268,12.440404 19.9192268,13.8397732 L19.9192268,19.1420215 L16.5880792,19.1420215 L16.5880792,8.42143087 Z" id="Fill-13" fill="#1B222C"></path>
                    <path d="M49.6905242,17.2852047 C48.6225846,18.6408826 46.8693161,19.4185872 45.1372691,19.4185872 C41.8054973,19.4185872 39.1403295,17.197198 39.1403295,13.7543255 C39.1403295,10.3133255 41.8054973,8.09193624 45.1372691,8.09193624 C48.2474638,8.09193624 50.1998396,10.3133255 50.1998396,13.7543255 L50.1998396,14.7979228 L42.4721013,14.7979228 C42.7361215,16.0643456 43.6942087,16.8857416 44.9806047,16.8857416 C46.0703899,16.8857416 46.8012826,16.3314866 47.3574101,15.5762517 L49.6905242,17.2852047 Z M46.8693161,12.5347148 C46.8911617,11.4230839 46.0248262,10.4912114 44.8245644,10.4912114 C43.3596584,10.4912114 42.5607322,11.4904933 42.4721013,12.5347148 L46.8693161,12.5347148 Z" id="Fill-15" fill="#1B222C"></path>
                    <path d="M62.8723067,19.1406483 L59.8058034,19.1406483 L59.8058034,17.7181852 L59.7627362,17.7181852 C59.2490517,18.4965141 57.9626557,19.4065409 56.4528101,19.4065409 C53.2533604,19.4065409 51.143696,17.0977691 51.143696,13.8334067 C51.143696,10.8336886 53.0099376,8.08113826 56.0745685,8.08113826 C57.4527161,8.08113826 58.7397362,8.45750738 59.4955953,9.5011047 L59.5386624,9.5011047 L59.5386624,3.32315839 L62.8723067,3.32315839 L62.8723067,19.1406483 Z M57.1400114,11.0121987 C55.4753738,11.0121987 54.4748436,12.1232054 54.4748436,13.7435275 C54.4748436,15.3657221 55.4753738,16.4754805 57.1400114,16.4754805 C58.8071456,16.4754805 59.8058034,15.3657221 59.8058034,13.7435275 C59.8058034,12.1232054 58.8071456,11.0121987 57.1400114,11.0121987 Z" id="Fill-17" fill="#1B222C"></path>
                    <g id="Group-21" transform="translate(66.161074, 0.000000)">
                        <mask id="mask-6" fill="white">
                            <use xlink:href="#path-5"></use>
                        </mask>
                        <g id="Clip-20"></g>
                        <path d="M19.1895201,19.1467027 L15.8577483,19.1467027 L15.8577483,13.9324611 C15.8577483,12.6885081 15.8359027,11.0887832 14.1257013,11.0887832 C12.3911577,11.0887832 12.1271376,12.4444611 12.1271376,13.843206 L12.1271376,19.1467027 L8.79848658,19.1467027 L8.79848658,8.42361544 L11.992943,8.42361544 L11.992943,9.8897698 L12.0385067,9.8897698 C12.4829094,9.04652819 13.5708221,8.15772282 15.1923926,8.15772282 C18.5659832,8.15772282 19.1895201,10.3778638 19.1895201,13.265857 L19.1895201,19.1467027 Z M5.04041275,6.9587094 C3.96997651,6.9587094 3.10676174,6.09299799 3.10676174,5.02568255 C3.10676174,3.95899128 3.96997651,3.09327987 5.04041275,3.09327987 C6.10647987,3.09327987 6.97219128,3.95899128 6.97219128,5.02568255 C6.97219128,6.09299799 6.10647987,6.9587094 5.04041275,6.9587094 Z M3.3720302,19.1467027 L6.70754698,19.1467027 L6.70754698,8.42361544 L3.3720302,8.42361544 L3.3720302,19.1467027 Z M20.8491644,-6.24161074e-05 L1.69990268,-6.24161074e-05 C0.785506711,-6.24161074e-05 0.0421308725,0.725212752 0.0421308725,1.62025973 L0.0421308725,20.8487899 C0.0421308725,21.7432128 0.785506711,22.4697362 1.69990268,22.4697362 L20.8491644,22.4697362 C21.766057,22.4697362 22.5113054,21.7432128 22.5113054,20.8487899 L22.5113054,1.62025973 C22.5113054,0.725212752 21.766057,-6.24161074e-05 20.8491644,-6.24161074e-05 Z" id="Fill-19" fill="#1B222C" mask="url(#mask-6)"></path>
                    </g>
                </g>
            </g>
        </g>
    </g>
</svg>