<?xml version="1.0" encoding="UTF-8"?>
<svg width="318px" height="66px" viewBox="0 0 318 66" version="1.1" xmlns="http://www.w3.org/2000/svg" xmlns:xlink="http://www.w3.org/1999/xlink">
    <!-- Generator: Sketch 49.1 (51147) - http://www.bohemiancoding.com/sketch -->
    <title>LOGO</title>
    <desc>Created with Sketch.</desc>
    <defs>
        <polygon id="path-1" points="0 66.5628192 317.943042 66.5628192 317.943042 0.756633299 0 0.756633299"></polygon>
    </defs>
    <g id="Page-1" stroke="none" stroke-width="1" fill="none" fill-rule="evenodd">
        <g id="ACCUEIL-DESKTOP-2" transform="translate(-95.000000, -92.000000)">
            <g id="HEADER" transform="translate(95.000000, 91.000000)">
                <g id="LOGO">
                    <polygon id="Fill-1" fill="#A8AFB2" points="203.331972 31.1856603 204.510793 31.1856603 204.510793 21.1441363 203.331972 21.1441363"></polygon>
                    <polygon id="Fill-2" fill="#A8AFB2" points="210.771293 21.1445585 212.25945 21.1445585 218.013517 29.4822327 218.042779 29.4822327 218.042779 21.1445585 219.2216 21.1445585 219.2216 31.1839712 217.733443 31.1839712 211.979376 22.846297 211.950114 22.846297 211.950114 31.1839712 210.771293 31.1839712"></polygon>
                    <polygon id="Fill-3" fill="#A8AFB2" points="225.481682 21.1445585 226.969839 21.1445585 232.723906 29.4822327 232.753168 29.4822327 232.753168 21.1445585 233.931988 21.1445585 233.931988 31.1839712 232.443832 31.1839712 226.689764 22.846297 226.660503 22.846297 226.660503 31.1839712 225.481682 31.1839712"></polygon>
                    <g id="Group-33" transform="translate(0.000000, 0.355127)">
                        <path d="M244.811209,29.9771303 C245.392259,29.9771303 245.923147,29.8694521 246.403872,29.6519843 C246.886687,29.4345164 247.300528,29.1368178 247.647486,28.7588883 C247.992354,28.3809587 248.261978,27.9375777 248.454268,27.4329679 C248.644467,26.9283581 248.740612,26.3857442 248.740612,25.8093489 C248.740612,25.2329536 248.644467,24.6903397 248.454268,24.1857299 C248.261978,23.6811201 247.992354,23.2398505 247.647486,22.8598096 C247.300528,22.4818801 246.886687,22.1841814 246.403872,21.9667136 C245.923147,21.7492458 245.392259,21.6415675 244.811209,21.6415675 C244.23225,21.6415675 243.699272,21.7492458 243.218547,21.9667136 C242.735732,22.1841814 242.321891,22.4818801 241.977023,22.8598096 C241.630065,23.2398505 241.360441,23.6811201 241.168151,24.1857299 C240.977951,24.6903397 240.881806,25.2329536 240.881806,25.8093489 C240.881806,26.3857442 240.977951,26.9283581 241.168151,27.4329679 C241.360441,27.9375777 241.630065,28.3809587 241.977023,28.7588883 C242.321891,29.1368178 242.735732,29.4345164 243.218547,29.6519843 C243.699272,29.8694521 244.23225,29.9771303 244.811209,29.9771303 M244.811209,31.0834715 C244.05459,31.0834715 243.358584,30.9525685 242.727372,30.6865399 C242.096159,30.4226227 241.548551,30.0552498 241.084547,29.5865328 C240.622633,29.1199271 240.261044,28.5625338 240.003961,27.914353 C239.746878,27.2682836 239.617291,26.565208 239.617291,25.8093489 C239.617291,25.0534899 239.746878,24.3504143 240.003961,23.7022335 C240.261044,23.056164 240.622633,22.4987708 241.084547,22.0300537 C241.548551,21.563448 242.096159,21.1960752 242.727372,20.9321579 C243.358584,20.6682407 244.05459,20.533115 244.811209,20.533115 C245.569919,20.533115 246.263834,20.6682407 246.897137,20.9321579 C247.52835,21.1960752 248.075958,21.563448 248.537872,22.0300537 C249.001876,22.4987708 249.361374,23.056164 249.618458,23.7022335 C249.875541,24.3504143 250.005128,25.0534899 250.005128,25.8093489 C250.005128,26.565208 249.875541,27.2682836 249.618458,27.914353 C249.361374,28.5625338 249.001876,29.1199271 248.537872,29.5865328 C248.075958,30.0552498 247.52835,30.4226227 246.897137,30.6865399 C246.263834,30.9525685 245.569919,31.0834715 244.811209,31.0834715" id="Fill-4" fill="#A8AFB2"></path>
                        <polygon id="Fill-6" fill="#A8AFB2" points="254.327889 20.7894315 255.661378 20.7894315 258.721296 29.0426521 258.750557 29.0426521 261.90662 20.7894315 263.156505 20.7894315 259.268904 30.8288441 258.131885 30.8288441"></polygon>
                        <path d="M271.172278,22.3214184 L271.145107,22.3214184 L269.08217,27.2556155 L273.136979,27.2556155 L271.172278,22.3214184 Z M270.6393,20.7885869 L271.747058,20.7885869 L275.973256,30.8279996 L274.597965,30.8279996 L273.586353,28.3598454 L268.618166,28.3598454 L267.594013,30.8279996 L266.260524,30.8279996 L270.6393,20.7885869 Z" id="Fill-8" fill="#A8AFB2"></path>
                        <polygon id="Fill-10" fill="#A8AFB2" points="286.458282 21.8966172 283.174723 21.8966172 283.174723 30.8275773 281.995902 30.8275773 281.995902 21.8966172 278.710252 21.8966172 278.710252 20.790276 286.458282 20.790276"></polygon>
                        <mask id="mask-2" fill="white">
                            <use xlink:href="#path-1"></use>
                        </mask>
                        <g id="Clip-13"></g>
                        <polygon id="Fill-12" fill="#A8AFB2" mask="url(#mask-2)" points="291.639033 30.8284219 292.817854 30.8284219 292.817854 20.7890092 291.639033 20.7890092"></polygon>
                        <polygon id="Fill-14" fill="#A8AFB2" mask="url(#mask-2)" points="297.716022 20.7894315 299.049511 20.7894315 302.109429 29.0426521 302.13869 29.0426521 305.294753 20.7894315 306.544638 20.7894315 302.657037 30.8288441 301.520018 30.8288441"></polygon>
                        <polygon id="Fill-15" fill="#A8AFB2" mask="url(#mask-2)" points="311.444687 20.7894315 317.69202 20.7894315 317.69202 21.8957726 312.623508 21.8957726 312.623508 25.0437777 317.355512 25.0437777 317.355512 26.1501189 312.623508 26.1501189 312.623508 29.722503 317.942833 29.722503 317.942833 30.8288441 311.444687 30.8288441"></polygon>
                        <path d="M208.04851,39.453238 C207.852039,39.1323146 207.588686,38.8958447 207.262629,38.7501624 C206.934482,38.6044801 206.593794,38.5305832 206.236386,38.5305832 C205.975123,38.5305832 205.718039,38.5643647 205.465136,38.6298161 C205.212233,38.697379 204.986501,38.7945005 204.783761,38.9275148 C204.583111,39.0605291 204.422172,39.2336588 204.300946,39.453238 C204.17763,39.6707058 204.119107,39.9261777 204.119107,40.2175424 C204.119107,40.4455669 204.152548,40.646144 204.223612,40.8192737 C204.292586,40.9945148 204.407542,41.1549765 204.56639,41.2964362 C204.725238,41.4378958 204.940519,41.5709101 205.212233,41.6933677 C205.483947,41.8158253 205.816274,41.9403943 206.209215,42.0607406 C206.593794,42.1853095 206.963744,42.3162125 207.325332,42.4597835 C207.684831,42.5991318 208.004617,42.7807068 208.280512,42.9981747 C208.556406,43.2135312 208.775867,43.4858938 208.938896,43.8110398 C209.101924,44.1404086 209.185528,44.5478968 209.185528,45.0398386 C209.185528,45.5402257 209.087293,45.9751614 208.890823,46.3446456 C208.694353,46.7120184 208.43518,47.0181624 208.111213,47.2567436 C207.787246,47.4995475 207.417297,47.6790112 206.995095,47.7972462 C206.572893,47.9154811 206.138151,47.9745986 205.690868,47.9745986 C205.400343,47.9745986 205.109818,47.9471512 204.819293,47.8964791 C204.528768,47.8458069 204.250783,47.7655761 203.98534,47.6557865 C203.717806,47.5459969 203.466993,47.4066486 203.232901,47.2314076 C202.998809,47.0561665 202.798158,46.84081 202.63095,46.5853381 L203.640472,45.7471369 C203.855753,46.116621 204.154639,46.3953177 204.539218,46.5853381 C204.921708,46.7753585 205.329279,46.8682574 205.759841,46.8682574 C206.012744,46.8682574 206.267738,46.8302533 206.524821,46.7542451 C206.781904,46.6803483 207.013906,46.5684474 207.220827,46.4227651 C207.425657,46.2749714 207.594956,46.0955077 207.724543,45.8759285 C207.85622,45.6584607 207.921013,45.4072114 207.921013,45.1264035 C207.921013,44.8118141 207.87085,44.5605649 207.768435,44.3663218 C207.66393,44.1720787 207.505082,44.0031716 207.2898,43.861712 C207.074519,43.7202523 206.802805,43.593572 206.476748,43.4795598 C206.148601,43.3676588 205.764022,43.2346445 205.325099,43.0826282 C204.969781,42.9686159 204.641634,42.8398243 204.342748,42.6920306 C204.041773,42.5463483 203.782599,42.3668846 203.563138,42.1536394 C203.343677,41.9425056 203.170198,41.6870337 203.042701,41.3872237 C202.917295,41.089525 202.854591,40.7327089 202.854591,40.3167753 C202.854591,39.8353902 202.948646,39.4131226 203.134666,39.0563064 C203.322776,38.697379 203.575679,38.3954576 203.893375,38.1547651 C204.211071,37.9140725 204.57057,37.7324974 204.973961,37.6100398 C205.377352,37.4854709 205.797463,37.4242421 206.236386,37.4242421 C206.798625,37.4242421 207.310702,37.5129183 207.774705,37.6881593 C208.236619,37.8612891 208.652551,38.1674331 209.01623,38.6023687 L208.04851,39.453238 Z" id="Fill-16" fill="#A8AFB2" mask="url(#mask-2)"></path>
                        <path d="M219.544103,46.8678351 C220.125153,46.8678351 220.656041,46.7601569 221.136766,46.5426891 C221.619581,46.3252212 222.033422,46.0275226 222.38038,45.6495931 C222.725248,45.2716635 222.994872,44.8282825 223.187162,44.3236727 C223.377361,43.8190629 223.473506,43.276449 223.473506,42.7000537 C223.473506,42.1236584 223.377361,41.5810445 223.187162,41.0764347 C222.994872,40.5718249 222.725248,40.1305553 222.38038,39.7505144 C222.033422,39.3725849 221.619581,39.0748862 221.136766,38.8574184 C220.656041,38.6399506 220.125153,38.5322723 219.544103,38.5322723 C218.965143,38.5322723 218.432166,38.6399506 217.951441,38.8574184 C217.468626,39.0748862 217.054785,39.3725849 216.709917,39.7505144 C216.362959,40.1305553 216.093335,40.5718249 215.901045,41.0764347 C215.710845,41.5810445 215.6147,42.1236584 215.6147,42.7000537 C215.6147,43.276449 215.710845,43.8190629 215.901045,44.3236727 C216.093335,44.8282825 216.362959,45.2716635 216.709917,45.6495931 C217.054785,46.0275226 217.468626,46.3252212 217.951441,46.5426891 C218.432166,46.7601569 218.965143,46.8678351 219.544103,46.8678351 M219.544103,47.9741763 C218.787484,47.9741763 218.091478,47.8432733 217.460266,47.5772447 C216.829053,47.3133275 216.281445,46.9459546 215.817441,46.4772376 C215.355527,46.0106319 214.993938,45.4532386 214.736855,44.8050578 C214.479772,44.1589884 214.350185,43.4559128 214.350185,42.7000537 C214.350185,41.9441947 214.479772,41.2411191 214.736855,40.5929383 C214.993938,39.9468688 215.355527,39.3894756 215.817441,38.9207585 C216.281445,38.4541528 216.829053,38.08678 217.460266,37.8228627 C218.091478,37.5589455 218.787484,37.4238198 219.544103,37.4238198 C220.302813,37.4238198 220.996728,37.5589455 221.630031,37.8228627 C222.261244,38.08678 222.808852,38.4541528 223.270766,38.9207585 C223.73477,39.3894756 224.094268,39.9468688 224.351352,40.5929383 C224.608435,41.2411191 224.738022,41.9441947 224.738022,42.7000537 C224.738022,43.4559128 224.608435,44.1589884 224.351352,44.8050578 C224.094268,45.4532386 223.73477,46.0106319 223.270766,46.4772376 C222.808852,46.9459546 222.261244,47.3133275 221.630031,47.5772447 C220.996728,47.8432733 220.302813,47.9741763 219.544103,47.9741763" id="Fill-17" fill="#A8AFB2" mask="url(#mask-2)"></path>
                        <polygon id="Fill-18" fill="#A8AFB2" mask="url(#mask-2)" points="230.422279 37.6801363 231.6011 37.6801363 231.6011 46.6132078 236.149175 46.6132078 236.149175 47.7195489 230.422279 47.7195489"></polygon>
                        <path d="M248.685224,43.8904261 C248.685224,44.4393741 248.616251,44.9587632 248.480394,45.450705 C248.344537,45.9426468 248.129256,46.3754711 247.836641,46.7491779 C247.541935,47.1207734 247.155265,47.4205835 246.678721,47.6401626 C246.200086,47.8639645 245.621126,47.9758654 244.937661,47.9758654 C244.254196,47.9758654 243.675236,47.8639645 243.196601,47.6401626 C242.720056,47.4205835 242.333386,47.1207734 242.038681,46.7491779 C241.743976,46.3754711 241.528695,45.9426468 241.392838,45.450705 C241.256981,44.9587632 241.190097,44.4393741 241.190097,43.8904261 L241.190097,37.6809808 L242.368918,37.6809808 L242.368918,43.7215191 C242.368918,44.126896 242.41072,44.5196049 242.494325,44.8975344 C242.580019,45.2754639 242.720056,45.6111667 242.916527,45.9046427 C243.110907,46.1981187 243.37426,46.4303659 243.702407,46.6056069 C244.028464,46.780848 244.440215,46.8674129 244.937661,46.8674129 C245.433017,46.8674129 245.844768,46.780848 246.172915,46.6056069 C246.501062,46.4303659 246.762325,46.1981187 246.958795,45.9046427 C247.155265,45.6111667 247.295303,45.2754639 247.378907,44.8975344 C247.464601,44.5196049 247.506404,44.126896 247.506404,43.7215191 L247.506404,37.6809808 L248.685224,37.6809808 L248.685224,43.8904261 Z" id="Fill-19" fill="#A8AFB2" mask="url(#mask-2)"></path>
                        <polygon id="Fill-20" fill="#A8AFB2" mask="url(#mask-2)" points="261.569695 38.787322 258.286135 38.787322 258.286135 47.7182821 257.107314 47.7182821 257.107314 38.787322 253.821665 38.787322 253.821665 37.6809808 261.569695 37.6809808"></polygon>
                        <polygon id="Fill-21" fill="#A8AFB2" mask="url(#mask-2)" points="266.750028 47.7191267 267.928848 47.7191267 267.928848 37.679714 266.750028 37.679714"></polygon>
                        <path d="M278.807024,46.8678351 C279.388074,46.8678351 279.918962,46.7601569 280.399687,46.5426891 C280.882501,46.3252212 281.296343,46.0275226 281.643301,45.6495931 C281.988169,45.2716635 282.257793,44.8282825 282.450082,44.3236727 C282.640282,43.8190629 282.736427,43.276449 282.736427,42.7000537 C282.736427,42.1236584 282.640282,41.5810445 282.450082,41.0764347 C282.257793,40.5718249 281.988169,40.1305553 281.643301,39.7505144 C281.296343,39.3725849 280.882501,39.0748862 280.399687,38.8574184 C279.918962,38.6399506 279.388074,38.5322723 278.807024,38.5322723 C278.228064,38.5322723 277.695087,38.6399506 277.214362,38.8574184 C276.731547,39.0748862 276.317706,39.3725849 275.972838,39.7505144 C275.62588,40.1305553 275.356256,40.5718249 275.163966,41.0764347 C274.973766,41.5810445 274.877621,42.1236584 274.877621,42.7000537 C274.877621,43.276449 274.973766,43.8190629 275.163966,44.3236727 C275.356256,44.8282825 275.62588,45.2716635 275.972838,45.6495931 C276.317706,46.0275226 276.731547,46.3252212 277.214362,46.5426891 C277.695087,46.7601569 278.228064,46.8678351 278.807024,46.8678351 M278.807024,47.9741763 C278.050405,47.9741763 277.354399,47.8432733 276.723187,47.5772447 C276.091974,47.3133275 275.544366,46.9459546 275.080362,46.4772376 C274.618448,46.0106319 274.256859,45.4532386 273.999776,44.8050578 C273.742693,44.1589884 273.613106,43.4559128 273.613106,42.7000537 C273.613106,41.9441947 273.742693,41.2411191 273.999776,40.5929383 C274.256859,39.9468688 274.618448,39.3894756 275.080362,38.9207585 C275.544366,38.4541528 276.091974,38.08678 276.723187,37.8228627 C277.354399,37.5589455 278.050405,37.4238198 278.807024,37.4238198 C279.565733,37.4238198 280.259649,37.5589455 280.892952,37.8228627 C281.524165,38.08678 282.071773,38.4541528 282.533687,38.9207585 C282.997691,39.3894756 283.357189,39.9468688 283.614273,40.5929383 C283.871356,41.2411191 284.000943,41.9441947 284.000943,42.7000537 C284.000943,43.4559128 283.871356,44.1589884 283.614273,44.8050578 C283.357189,45.4532386 282.997691,46.0106319 282.533687,46.4772376 C282.071773,46.9459546 281.524165,47.3133275 280.892952,47.5772447 C280.259649,47.8432733 279.565733,47.9741763 278.807024,47.9741763" id="Fill-22" fill="#A8AFB2" mask="url(#mask-2)"></path>
                        <polygon id="Fill-23" fill="#A8AFB2" mask="url(#mask-2)" points="289.686245 37.6801363 291.174402 37.6801363 296.928469 46.0178104 296.957731 46.0178104 296.957731 37.6801363 298.136552 37.6801363 298.136552 47.7195489 296.648395 47.7195489 290.894328 39.3818748 290.865066 39.3818748 290.865066 47.7195489 289.686245 47.7195489"></polygon>
                        <path d="M309.11359,39.453238 C308.917119,39.1323146 308.653766,38.8958447 308.327709,38.7501624 C307.999562,38.6044801 307.658874,38.5305832 307.301466,38.5305832 C307.040203,38.5305832 306.783119,38.5643647 306.530216,38.6298161 C306.277313,38.697379 306.051581,38.7945005 305.848841,38.9275148 C305.648191,39.0605291 305.487252,39.2336588 305.366026,39.453238 C305.24271,39.6707058 305.184187,39.9261777 305.184187,40.2175424 C305.184187,40.4455669 305.217628,40.646144 305.288692,40.8192737 C305.357666,40.9945148 305.472622,41.1549765 305.63147,41.2964362 C305.790318,41.4378958 306.005599,41.5709101 306.277313,41.6933677 C306.549027,41.8158253 306.881354,41.9403943 307.274295,42.0607406 C307.658874,42.1853095 308.028824,42.3162125 308.390412,42.4597835 C308.749911,42.5991318 309.069697,42.7807068 309.345592,42.9981747 C309.621486,43.2135312 309.840947,43.4858938 310.003976,43.8110398 C310.167004,44.1404086 310.250608,44.5478968 310.250608,45.0398386 C310.250608,45.5402257 310.152373,45.9751614 309.955903,46.3446456 C309.759433,46.7120184 309.50026,47.0181624 309.176293,47.2567436 C308.852326,47.4995475 308.482377,47.6790112 308.060175,47.7972462 C307.637973,47.9154811 307.203231,47.9745986 306.755948,47.9745986 C306.465423,47.9745986 306.174898,47.9471512 305.884373,47.8964791 C305.593848,47.8458069 305.315863,47.7655761 305.05042,47.6557865 C304.782886,47.5459969 304.532073,47.4066486 304.297981,47.2314076 C304.063889,47.0561665 303.863238,46.84081 303.69603,46.5853381 L304.705552,45.7471369 C304.920833,46.116621 305.219718,46.3953177 305.604298,46.5853381 C305.986788,46.7753585 306.394359,46.8682574 306.824921,46.8682574 C307.077824,46.8682574 307.332818,46.8302533 307.589901,46.7542451 C307.846984,46.6803483 308.078986,46.5684474 308.285907,46.4227651 C308.490737,46.2749714 308.660036,46.0955077 308.789623,45.8759285 C308.9213,45.6584607 308.986093,45.4072114 308.986093,45.1264035 C308.986093,44.8118141 308.93593,44.5605649 308.833515,44.3663218 C308.72901,44.1720787 308.570162,44.0031716 308.35488,43.861712 C308.139599,43.7202523 307.867885,43.593572 307.541828,43.4795598 C307.213681,43.3676588 306.829102,43.2346445 306.390179,43.0826282 C306.034861,42.9686159 305.706714,42.8398243 305.407828,42.6920306 C305.106853,42.5463483 304.847679,42.3668846 304.628218,42.1536394 C304.408757,41.9425056 304.235278,41.6870337 304.107781,41.3872237 C303.982375,41.089525 303.919671,40.7327089 303.919671,40.3167753 C303.919671,39.8353902 304.013726,39.4131226 304.199746,39.0563064 C304.387856,38.697379 304.640759,38.3954576 304.958455,38.1547651 C305.276151,37.9140725 305.63565,37.7324974 306.039041,37.6100398 C306.442432,37.4854709 306.862543,37.4242421 307.301466,37.4242421 C307.863705,37.4242421 308.375781,37.5129183 308.839785,37.6881593 C309.301699,37.8612891 309.717631,38.1674331 310.08131,38.6023687 L309.11359,39.453238 Z" id="Fill-24" fill="#A8AFB2" mask="url(#mask-2)"></path>
                        <path d="M73.9917026,60.0636983 C73.6844568,60.5218586 73.2727055,60.8617841 72.7710796,61.0708065 C72.256913,61.2840517 71.6800432,61.410732 71.0530109,61.4445134 C70.417618,61.4825175 69.7717747,61.4994082 69.1217511,61.4994082 L65.4557018,61.4994082 L65.4557018,54.4602069 L68.5407011,54.4602069 C69.215806,54.4602069 69.9076317,54.4770977 70.6203585,54.5129904 C71.308004,54.5488831 71.9517573,54.6861201 72.5328073,54.9247013 C73.1054969,55.1611712 73.5590503,55.5116533 73.9227291,55.9930384 C74.2780474,56.4702008 74.4577967,57.1753877 74.4577967,58.0895971 C74.4577967,58.9404664 74.3010386,59.6034266 73.9917026,60.0636983 Z M65.4557018,43.6417105 L69.1217511,43.6417105 C69.5773946,43.6417105 70.0748403,43.6586012 70.6182684,43.694494 C71.1470657,43.7346094 71.636151,43.850733 72.0729835,44.0491988 C72.5035458,44.2434419 72.8693147,44.5516972 73.1577496,44.9697422 C73.4440944,45.3898985 73.5883118,46.0021865 73.5883118,46.7939383 C73.5883118,47.6131375 73.437824,48.2486503 73.1410287,48.6878086 C72.8379631,49.1375236 72.4701041,49.452113 72.0186407,49.6484674 C71.5650873,49.8469332 71.0801823,49.9672795 70.5785564,50.0010609 C70.0664799,50.039065 69.6129265,50.0559557 69.2304367,50.0559557 L65.4557018,50.0559557 L65.4557018,43.6417105 Z M79.0267727,54.5151017 C78.5648588,53.9175931 77.9691781,53.3939812 77.2564513,52.9590456 C77.0620712,52.8408106 76.8572406,52.7289097 76.6419595,52.6296768 L75.4631386,52.0828402 L76.5374541,51.3459832 L76.7192935,51.2235256 C76.9910076,51.0377279 77.2146491,50.8645982 77.3881281,50.6978025 L77.7120948,50.3895471 C78.0674132,50.0538443 78.3453975,49.7033622 78.5418677,49.3423234 C78.7383378,48.9812846 78.897186,48.6139117 79.0079617,48.2465389 C79.1187375,47.8855001 79.1960714,47.535018 79.2336934,47.1950925 C79.2671351,46.8615011 79.2880362,46.5659138 79.2880362,46.3167759 C79.2880362,45.9198443 79.2441439,45.4659066 79.1563594,44.9739649 C79.0727551,44.4778004 78.9180871,43.9626339 78.6944455,43.432688 C78.4728941,42.9132989 78.1656482,42.396021 77.7831585,41.8977453 C77.4006687,41.3994695 76.8906824,40.9413091 76.2657401,40.5380435 C75.7578439,40.2213428 75.1893345,39.9658709 74.5873834,39.7906298 C73.9854323,39.6196114 73.3855713,39.4971538 72.8087015,39.4253683 C72.2213812,39.3472488 71.6570521,39.3071334 71.1198943,39.292354 C70.5869168,39.279686 70.1250029,39.273352 69.738333,39.273352 L59.7915092,39.273352 L59.7915092,66.0493418 L69.7571439,66.0493418 C69.9975063,66.0493418 70.3883565,66.0451191 70.9213341,66.0303397 C71.4584918,66.0176717 72.0499924,65.981779 72.6958357,65.9184388 C73.3416791,65.8593213 74.0021532,65.7516431 74.6605372,65.6059608 C75.3314618,65.4539444 75.9250525,65.2428106 76.4287685,64.976782 C77.4738225,64.4510588 78.3955601,63.652973 79.1835308,62.597304 C79.9756817,61.5395236 80.3769824,60.1946012 80.3769824,58.6026523 C80.3769824,57.9080221 80.2662067,57.1943898 80.0509256,56.4870915 C79.8335544,55.7776819 79.4886866,55.1126104 79.0267727,54.5151017 Z M125.211888,55.2899628 C125.211888,55.9487003 125.197257,56.5145389 125.155455,56.9938127 C125.122014,57.4625297 125.067671,57.8721293 124.994517,58.2247228 C124.925543,58.5688709 124.844029,58.8602355 124.752064,59.0903714 C124.655919,59.3331753 124.540963,59.5421978 124.375845,59.7638883 C124.049788,60.2748321 123.635947,60.7076564 123.169853,61.0095777 C122.718389,61.3114991 122.237665,61.5395236 121.746489,61.6894286 C121.257404,61.8329996 120.80385,61.9153418 120.392099,61.9406778 C119.976168,61.9639026 119.656381,61.9765706 119.43901,61.9765706 C118.09089,61.9765706 117.033296,61.7802161 116.295488,61.3917299 C115.549319,60.992687 115.016342,60.5007453 114.663113,59.8821232 C114.314065,59.2677238 114.094604,58.5752049 114.011,57.8256799 C113.929485,57.0803775 113.885593,56.3245185 113.885593,55.5855502 L113.885593,39.273352 L107.968498,39.273352 L107.968498,55.2878515 C107.968498,56.5504317 108.035381,57.713779 108.167058,58.7420006 C108.302915,59.7955583 108.693765,60.8554501 109.329158,61.8963397 C109.94365,62.9182274 110.702359,63.7416492 111.588565,64.3518259 C112.46014,64.951446 113.369336,65.426497 114.288984,65.7643111 C115.206541,66.0957912 116.122009,66.3153704 117.012395,66.4167146 C117.923682,66.5138362 118.684481,66.5623969 119.330324,66.5623969 C120.665903,66.5623969 122.034924,66.3871559 123.397674,66.0451191 C124.762515,65.6988597 126.02494,65.1119077 127.149418,64.2948198 C128.271806,63.4798433 129.203994,62.3819475 129.914631,61.0306911 C130.627358,59.6794347 130.986856,57.9819189 130.986856,55.9845931 L130.986856,39.273352 L125.211888,39.273352 L125.211888,55.2899628 Z M144.02077,61.3516145 L144.02077,54.498211 L155.202847,54.498211 L155.202847,49.8004838 L144.02077,49.8004838 L144.02077,43.9710793 L155.965737,43.9710793 L155.965737,39.273352 L138.101584,39.273352 L138.101584,66.0493418 L156.03262,66.0493418 L156.03262,61.3516145 L144.02077,61.3516145 Z M91.8851168,39.273352 L85.8572455,39.273352 L85.8572455,66.0493418 L103.138258,66.0493418 L103.138258,61.2439363 L91.8851168,61.2439363 L91.8851168,39.273352 Z" id="Fill-25" fill="#2962FF" mask="url(#mask-2)"></path>
                        <polygon id="Fill-26" fill="#FFFFFF" mask="url(#mask-2)" points="62.6093928 16.8781776 76.0341561 1.5540857 67.3622982 1.5540857 55.1100854 15.1342124 55.1100854 15.0560928 48.2148193 22.650576 48.2148193 32.5823104 55.1100854 32.5823104 55.1100854 25.4628783 57.9902542 22.376102 67.1073051 32.5823104 76.4145558 32.5823104"></polygon>
                        <polygon id="Fill-27" fill="#FFFFFF" mask="url(#mask-2)" points="19.5285056 1.55429683 19.5285056 16.1373091 6.89589317 16.1373091 6.89589317 1.55429683 0.000627032386 9.35357978 0.000627032386 32.5825216 6.89589317 32.5825216 6.89589317 22.424874 19.5285056 22.424874 19.5285056 32.5825216 26.4655739 32.5825216 26.4655739 1.55429683"></polygon>
                        <polygon id="Fill-28" fill="#FFFFFF" mask="url(#mask-2)" points="33.8154386 8.58526384 33.8154386 32.5827327 40.9218056 32.5827327 40.9218056 0.756422165"></polygon>
                        <polygon id="Fill-29" fill="#FFFFFF" mask="url(#mask-2)" points="148.752983 8.58526384 148.752983 32.5827327 155.85935 32.5827327 155.85935 0.756422165"></polygon>
                        <polygon id="Fill-30" fill="#FFFFFF" mask="url(#mask-2)" points="97.8218595 1.55429683 94.1746211 1.55429683 79.535505 32.5825216 87.0598936 32.5825216 89.8501877 26.1851671 91.9904583 21.1348464 95.9783842 12.2820057 99.9997519 21.126401 102.148383 26.1936125 104.980479 32.5825216 112.502778 32.5825216"></polygon>
                        <polygon id="Fill-31" fill="#FFFFFF" mask="url(#mask-2)" points="179.825991 1.55429683 178.969047 2.49595363 178.969047 66.5307269 179.844802 65.5658454 179.844802 1.55429683"></polygon>
                        <path d="M136.879707,23.327471 C140.677433,21.423044 142.602422,17.9140001 142.602422,12.8826814 C142.602422,9.47498172 141.419421,1.55324116 130.465165,1.55324116 L122.597999,1.55324116 L116.852292,7.88303279 L129.497445,7.88303279 C134.496984,7.88303279 135.245242,11.3076232 135.245242,13.3471758 C135.245242,16.8731104 132.918952,18.8155415 128.696934,18.8155415 L116.852292,18.8155415 L116.852292,32.5835772 L123.914767,32.5835772 L123.914767,24.8877498 L128.908035,24.8877498 C129.19856,24.8877498 129.512076,24.8877498 129.798421,24.8687478 L135.504416,32.5835772 L144.034146,32.5835772 L136.879707,23.327471 Z" id="Fill-32" fill="#FFFFFF" mask="url(#mask-2)"></path>
                    </g>
                </g>
            </g>
        </g>
    </g>
</svg>