<?xml version="1.0" encoding="UTF-8"?>
<svg width="178px" height="37px" viewBox="0 0 178 37" version="1.1" xmlns="http://www.w3.org/2000/svg" xmlns:xlink="http://www.w3.org/1999/xlink">
    <!-- Generator: Sketch 48.2 (47327) - http://www.bohemiancoding.com/sketch -->
    <title>LOGO</title>
    <desc>Created with Sketch.</desc>
    <defs>
        <polygon id="path-1" points="0 37.8181818 177.968118 37.8181818 177.968118 0.983272727 0 0.983272727"></polygon>
    </defs>
    <g id="SOUS-MENU" stroke="none" stroke-width="1" fill="none" fill-rule="evenodd" transform="translate(-15.000000, -14.000000)">
        <g transform="translate(0.000000, -35.000000)" id="LOGO">
            <g transform="translate(15.000000, 48.000000)">
                <polygon id="Fill-1" fill="#FFFFFF" points="113.814752 18.0158727 114.474595 18.0158727 114.474595 12.3951455 113.814752 12.3951455"></polygon>
                <polygon id="Fill-2" fill="#FFFFFF" points="117.9789 12.3953818 118.811893 12.3953818 122.032724 17.0623818 122.049103 17.0623818 122.049103 12.3953818 122.708946 12.3953818 122.708946 18.0149273 121.875952 18.0149273 118.655122 13.3479273 118.638743 13.3479273 118.638743 18.0149273 117.9789 18.0149273"></polygon>
                <polygon id="Fill-3" fill="#FFFFFF" points="126.213017 12.3953818 127.04601 12.3953818 130.266841 17.0623818 130.28322 17.0623818 130.28322 12.3953818 130.943063 12.3953818 130.943063 18.0149273 130.110069 18.0149273 126.889239 13.3479273 126.87286 13.3479273 126.87286 18.0149273 126.213017 18.0149273"></polygon>
                <g id="Group-33" transform="translate(0.000000, 0.198782)">
                    <path d="M137.03269,17.3394 C137.357931,17.3394 137.655095,17.2791273 137.92418,17.1574 C138.194435,17.0356727 138.426082,16.8690364 138.620291,16.6574909 C138.81333,16.4459455 138.964252,16.1977636 139.071886,15.9153091 C139.17835,15.6328545 139.232167,15.3291273 139.232167,15.0064909 C139.232167,14.6838545 139.17835,14.3801273 139.071886,14.0976727 C138.964252,13.8152182 138.81333,13.5682182 138.620291,13.3554909 C138.426082,13.1439455 138.194435,12.9773091 137.92418,12.8555818 C137.655095,12.7338545 137.357931,12.6735818 137.03269,12.6735818 C136.708618,12.6735818 136.410284,12.7338545 136.141199,12.8555818 C135.870944,12.9773091 135.639297,13.1439455 135.446258,13.3554909 C135.252049,13.5682182 135.101127,13.8152182 134.993493,14.0976727 C134.887029,14.3801273 134.833212,14.6838545 134.833212,15.0064909 C134.833212,15.3291273 134.887029,15.6328545 134.993493,15.9153091 C135.101127,16.1977636 135.252049,16.4459455 135.446258,16.6574909 C135.639297,16.8690364 135.870944,17.0356727 136.141199,17.1574 C136.410284,17.2791273 136.708618,17.3394 137.03269,17.3394 M137.03269,17.9586727 C136.609173,17.9586727 136.219585,17.8854 135.866265,17.7364909 C135.512944,17.5887636 135.206422,17.3831273 134.946696,17.1207636 C134.688141,16.8595818 134.485742,16.5475818 134.34184,16.1847636 C134.197938,15.8231273 134.125402,15.4295818 134.125402,15.0064909 C134.125402,14.5834 134.197938,14.1898545 134.34184,13.8270364 C134.485742,13.4654 134.688141,13.1534 134.946696,12.8910364 C135.206422,12.6298545 135.512944,12.4242182 135.866265,12.2764909 C136.219585,12.1287636 136.609173,12.0531273 137.03269,12.0531273 C137.457376,12.0531273 137.845794,12.1287636 138.200284,12.2764909 C138.553605,12.4242182 138.860127,12.6298545 139.118683,12.8910364 C139.378408,13.1534 139.579637,13.4654 139.723539,13.8270364 C139.867441,14.1898545 139.939977,14.5834 139.939977,15.0064909 C139.939977,15.4295818 139.867441,15.8231273 139.723539,16.1847636 C139.579637,16.5475818 139.378408,16.8595818 139.118683,17.1207636 C138.860127,17.3831273 138.553605,17.5887636 138.200284,17.7364909 C137.845794,17.8854 137.457376,17.9586727 137.03269,17.9586727" id="Fill-4" fill="#FFFFFF"></path>
                    <polygon id="Fill-6" fill="#FFFFFF" points="142.359636 12.1966 143.106054 12.1966 144.818839 16.8163273 144.835218 16.8163273 146.601819 12.1966 147.30144 12.1966 145.125361 17.8161455 144.488917 17.8161455"></polygon>
                    <path d="M151.788256,13.0541273 L151.773047,13.0541273 L150.618322,15.8160364 L152.887995,15.8160364 L151.788256,13.0541273 Z M151.489923,12.1961273 L152.109988,12.1961273 L154.475596,17.8156727 L153.705779,17.8156727 L153.139531,16.4341273 L150.358596,16.4341273 L149.785328,17.8156727 L149.03891,17.8156727 L151.489923,12.1961273 Z" id="Fill-8" fill="#FFFFFF"></path>
                    <polygon id="Fill-10" fill="#FFFFFF" points="160.344573 12.8163455 158.506606 12.8163455 158.506606 17.8154364 157.846763 17.8154364 157.846763 12.8163455 156.007625 12.8163455 156.007625 12.1970727 160.344573 12.1970727"></polygon>
                    <mask id="mask-2" fill="white">
                        <use xlink:href="#path-1"></use>
                    </mask>
                    <g id="Clip-13"></g>
                    <polygon id="Fill-12" fill="#FFFFFF" mask="url(#mask-2)" points="163.24449 17.8159091 163.904333 17.8159091 163.904333 12.1963636 163.24449 12.1963636"></polygon>
                    <polygon id="Fill-14" fill="#FFFFFF" mask="url(#mask-2)" points="166.646075 12.1966 167.392493 12.1966 169.105278 16.8163273 169.121657 16.8163273 170.888258 12.1966 171.587879 12.1966 169.411801 17.8161455 168.775356 17.8161455"></polygon>
                    <polygon id="Fill-15" fill="#FFFFFF" mask="url(#mask-2)" points="174.330674 12.1966 177.827608 12.1966 177.827608 12.8158727 174.990517 12.8158727 174.990517 14.5779636 177.639249 14.5779636 177.639249 15.1972364 174.990517 15.1972364 174.990517 17.1968727 177.968001 17.1968727 177.968001 17.8161455 174.330674 17.8161455"></polygon>
                    <path d="M116.454826,22.6436364 C116.344852,22.464 116.197441,22.3316364 116.014931,22.2500909 C115.831251,22.1685455 115.640552,22.1271818 115.440493,22.1271818 C115.294251,22.1271818 115.150349,22.1460909 115.008787,22.1827273 C114.867225,22.2205455 114.740872,22.2749091 114.627388,22.3493636 C114.515075,22.4238182 114.42499,22.5207273 114.357133,22.6436364 C114.288107,22.7653636 114.255349,22.9083636 114.255349,23.0714545 C114.255349,23.1990909 114.274068,23.3113636 114.313846,23.4082727 C114.352454,23.5063636 114.4168,23.5961818 114.505715,23.6753636 C114.59463,23.7545455 114.715133,23.829 114.867225,23.8975455 C115.019316,23.9660909 115.205336,24.0358182 115.425284,24.1031818 C115.640552,24.1729091 115.84763,24.2461818 116.050029,24.3265455 C116.251258,24.4045455 116.430258,24.5061818 116.584689,24.6279091 C116.73912,24.7484545 116.861963,24.9009091 116.953218,25.0829091 C117.044473,25.2672727 117.091271,25.4953636 117.091271,25.7707273 C117.091271,26.0508182 117.036284,26.2942727 116.92631,26.5010909 C116.816336,26.7067273 116.671264,26.8780909 116.489924,27.0116364 C116.308584,27.1475455 116.101506,27.248 115.865179,27.3141818 C115.628852,27.3803636 115.385506,27.4134545 115.13514,27.4134545 C114.972519,27.4134545 114.809898,27.3980909 114.647277,27.3697273 C114.484656,27.3413636 114.329055,27.2964545 114.180473,27.235 C114.030722,27.1735455 113.890329,27.0955455 113.759297,26.9974545 C113.628264,26.8993636 113.51595,26.7788182 113.422356,26.6358182 L113.987434,26.1666364 C114.107937,26.3734545 114.275238,26.5294545 114.490506,26.6358182 C114.704604,26.7421818 114.932741,26.7941818 115.173748,26.7941818 C115.31531,26.7941818 115.458042,26.7729091 115.601944,26.7303636 C115.745846,26.689 115.875708,26.6263636 115.991532,26.5448182 C116.106186,26.4620909 116.20095,26.3616364 116.273486,26.2387273 C116.347192,26.117 116.38346,25.9763636 116.38346,25.8191818 C116.38346,25.6430909 116.355382,25.5024545 116.298055,25.3937273 C116.239558,25.285 116.150643,25.1904545 116.03014,25.1112727 C115.909637,25.0320909 115.757545,24.9611818 115.575035,24.8973636 C115.391356,24.8347273 115.176088,24.7602727 114.930401,24.6751818 C114.731512,24.6113636 114.547833,24.5392727 114.380532,24.4565455 C114.212061,24.375 114.06699,24.2745455 113.944146,24.1551818 C113.821303,24.037 113.724199,23.894 113.652833,23.7261818 C113.582637,23.5595455 113.547539,23.3598182 113.547539,23.127 C113.547539,22.8575455 113.600186,22.6211818 113.70431,22.4214545 C113.809604,22.2205455 113.951166,22.0515455 114.128996,21.9168182 C114.306826,21.7820909 114.508055,21.6804545 114.733852,21.6119091 C114.95965,21.5421818 115.194807,21.5079091 115.440493,21.5079091 C115.755205,21.5079091 116.041839,21.5575455 116.301565,21.6556364 C116.56012,21.7525455 116.792937,21.9239091 116.996506,22.1673636 L116.454826,22.6436364 Z" id="Fill-16" fill="#FFFFFF" mask="url(#mask-2)"></path>
                    <path d="M122.889467,26.7939455 C123.214708,26.7939455 123.511872,26.7336727 123.780957,26.6119455 C124.051212,26.4902182 124.282859,26.3235818 124.477068,26.1120364 C124.670107,25.9004909 124.821029,25.6523091 124.928663,25.3698545 C125.035127,25.0874 125.088944,24.7836727 125.088944,24.4610364 C125.088944,24.1384 125.035127,23.8346727 124.928663,23.5522182 C124.821029,23.2697636 124.670107,23.0227636 124.477068,22.8100364 C124.282859,22.5984909 124.051212,22.4318545 123.780957,22.3101273 C123.511872,22.1884 123.214708,22.1281273 122.889467,22.1281273 C122.565395,22.1281273 122.267061,22.1884 121.997976,22.3101273 C121.727722,22.4318545 121.496075,22.5984909 121.303035,22.8100364 C121.108826,23.0227636 120.957905,23.2697636 120.850271,23.5522182 C120.743807,23.8346727 120.68999,24.1384 120.68999,24.4610364 C120.68999,24.7836727 120.743807,25.0874 120.850271,25.3698545 C120.957905,25.6523091 121.108826,25.9004909 121.303035,26.1120364 C121.496075,26.3235818 121.727722,26.4902182 121.997976,26.6119455 C122.267061,26.7336727 122.565395,26.7939455 122.889467,26.7939455 M122.889467,27.4132182 C122.46595,27.4132182 122.076362,27.3399455 121.723042,27.1910364 C121.369722,27.0433091 121.063199,26.8376727 120.803473,26.5753091 C120.544918,26.3141273 120.342519,26.0021273 120.198617,25.6393091 C120.054715,25.2776727 119.982179,24.8841273 119.982179,24.4610364 C119.982179,24.0379455 120.054715,23.6444 120.198617,23.2815818 C120.342519,22.9199455 120.544918,22.6079455 120.803473,22.3455818 C121.063199,22.0844 121.369722,21.8787636 121.723042,21.7310364 C122.076362,21.5833091 122.46595,21.5076727 122.889467,21.5076727 C123.314153,21.5076727 123.702571,21.5833091 124.057061,21.7310364 C124.410382,21.8787636 124.716905,22.0844 124.97546,22.3455818 C125.235186,22.6079455 125.436414,22.9199455 125.580316,23.2815818 C125.724218,23.6444 125.796754,24.0379455 125.796754,24.4610364 C125.796754,24.8841273 125.724218,25.2776727 125.580316,25.6393091 C125.436414,26.0021273 125.235186,26.3141273 124.97546,26.5753091 C124.716905,26.8376727 124.410382,27.0433091 124.057061,27.1910364 C123.702571,27.3399455 123.314153,27.4132182 122.889467,27.4132182" id="Fill-17" fill="#FFFFFF" mask="url(#mask-2)"></path>
                    <polygon id="Fill-18" fill="#FFFFFF" mask="url(#mask-2)" points="128.978508 21.6511455 129.638352 21.6511455 129.638352 26.6514182 132.184129 26.6514182 132.184129 27.2706909 128.978508 27.2706909"></polygon>
                    <path d="M139.201163,25.1273455 C139.201163,25.4346182 139.162556,25.7253455 139.08651,26.0007091 C139.010464,26.2760727 138.889961,26.5183455 138.72617,26.7275273 C138.561209,26.9355273 138.344771,27.1033455 138.078026,27.2262545 C137.810111,27.3515273 137.486039,27.4141636 137.103471,27.4141636 C136.720902,27.4141636 136.39683,27.3515273 136.128915,27.2262545 C135.86217,27.1033455 135.645732,26.9355273 135.480771,26.7275273 C135.31581,26.5183455 135.195307,26.2760727 135.119261,26.0007091 C135.043216,25.7253455 135.005778,25.4346182 135.005778,25.1273455 L135.005778,21.6516182 L135.665621,21.6516182 L135.665621,25.0328 C135.665621,25.2597091 135.68902,25.4795273 135.735817,25.6910727 C135.783784,25.9026182 135.86217,26.0905273 135.972144,26.2548 C136.080948,26.4190727 136.228359,26.5490727 136.412039,26.6471636 C136.594549,26.7452545 136.825026,26.7937091 137.103471,26.7937091 C137.380745,26.7937091 137.611222,26.7452545 137.794902,26.6471636 C137.978582,26.5490727 138.124824,26.4190727 138.234797,26.2548 C138.344771,26.0905273 138.423157,25.9026182 138.469954,25.6910727 C138.517922,25.4795273 138.54132,25.2597091 138.54132,25.0328 L138.54132,21.6516182 L139.201163,21.6516182 L139.201163,25.1273455 Z" id="Fill-19" fill="#FFFFFF" mask="url(#mask-2)"></path>
                    <polygon id="Fill-20" fill="#FFFFFF" mask="url(#mask-2)" points="146.413225 22.2708909 144.575258 22.2708909 144.575258 27.2699818 143.915415 27.2699818 143.915415 22.2708909 142.076278 22.2708909 142.076278 21.6516182 146.413225 21.6516182"></polygon>
                    <polygon id="Fill-21" fill="#FFFFFF" mask="url(#mask-2)" points="149.312908 27.2704545 149.972752 27.2704545 149.972752 21.6509091 149.312908 21.6509091"></polygon>
                    <path d="M156.061793,26.7939455 C156.387035,26.7939455 156.684199,26.7336727 156.953284,26.6119455 C157.223539,26.4902182 157.455186,26.3235818 157.649395,26.1120364 C157.842434,25.9004909 157.993356,25.6523091 158.10099,25.3698545 C158.207454,25.0874 158.261271,24.7836727 158.261271,24.4610364 C158.261271,24.1384 158.207454,23.8346727 158.10099,23.5522182 C157.993356,23.2697636 157.842434,23.0227636 157.649395,22.8100364 C157.455186,22.5984909 157.223539,22.4318545 156.953284,22.3101273 C156.684199,22.1884 156.387035,22.1281273 156.061793,22.1281273 C155.737722,22.1281273 155.439388,22.1884 155.170303,22.3101273 C154.900048,22.4318545 154.668401,22.5984909 154.475362,22.8100364 C154.281153,23.0227636 154.130231,23.2697636 154.022597,23.5522182 C153.916133,23.8346727 153.862316,24.1384 153.862316,24.4610364 C153.862316,24.7836727 153.916133,25.0874 154.022597,25.3698545 C154.130231,25.6523091 154.281153,25.9004909 154.475362,26.1120364 C154.668401,26.3235818 154.900048,26.4902182 155.170303,26.6119455 C155.439388,26.7336727 155.737722,26.7939455 156.061793,26.7939455 M156.061793,27.4132182 C155.638277,27.4132182 155.248689,27.3399455 154.895369,27.1910364 C154.542048,27.0433091 154.235525,26.8376727 153.9758,26.5753091 C153.717244,26.3141273 153.514846,26.0021273 153.370944,25.6393091 C153.227042,25.2776727 153.154506,24.8841273 153.154506,24.4610364 C153.154506,24.0379455 153.227042,23.6444 153.370944,23.2815818 C153.514846,22.9199455 153.717244,22.6079455 153.9758,22.3455818 C154.235525,22.0844 154.542048,21.8787636 154.895369,21.7310364 C155.248689,21.5833091 155.638277,21.5076727 156.061793,21.5076727 C156.48648,21.5076727 156.874898,21.5833091 157.229388,21.7310364 C157.582708,21.8787636 157.889231,22.0844 158.147787,22.3455818 C158.407512,22.6079455 158.608741,22.9199455 158.752643,23.2815818 C158.896545,23.6444 158.969081,24.0379455 158.969081,24.4610364 C158.969081,24.8841273 158.896545,25.2776727 158.752643,25.6393091 C158.608741,26.0021273 158.407512,26.3141273 158.147787,26.5753091 C157.889231,26.8376727 157.582708,27.0433091 157.229388,27.1910364 C156.874898,27.3399455 156.48648,27.4132182 156.061793,27.4132182" id="Fill-22" fill="#FFFFFF" mask="url(#mask-2)"></path>
                    <polygon id="Fill-23" fill="#FFFFFF" mask="url(#mask-2)" points="162.15142 21.6511455 162.984414 21.6511455 166.205244 26.3181455 166.221623 26.3181455 166.221623 21.6511455 166.881466 21.6511455 166.881466 27.2706909 166.048473 27.2706909 162.827642 22.6036909 162.811263 22.6036909 162.811263 27.2706909 162.15142 27.2706909"></polygon>
                    <path d="M173.025846,22.6436364 C172.915872,22.464 172.76846,22.3316364 172.58595,22.2500909 C172.402271,22.1685455 172.211571,22.1271818 172.011512,22.1271818 C171.865271,22.1271818 171.721369,22.1460909 171.579807,22.1827273 C171.438244,22.2205455 171.311892,22.2749091 171.198408,22.3493636 C171.086094,22.4238182 170.996009,22.5207273 170.928153,22.6436364 C170.859127,22.7653636 170.826369,22.9083636 170.826369,23.0714545 C170.826369,23.1990909 170.845088,23.3113636 170.884865,23.4082727 C170.923473,23.5063636 170.98782,23.5961818 171.076735,23.6753636 C171.16565,23.7545455 171.286153,23.829 171.438244,23.8975455 C171.590336,23.9660909 171.776356,24.0358182 171.996303,24.1031818 C172.211571,24.1729091 172.41865,24.2461818 172.621048,24.3265455 C172.822277,24.4045455 173.001277,24.5061818 173.155708,24.6279091 C173.31014,24.7484545 173.432983,24.9009091 173.524238,25.0829091 C173.615493,25.2672727 173.66229,25.4953636 173.66229,25.7707273 C173.66229,26.0508182 173.607303,26.2942727 173.497329,26.5010909 C173.387356,26.7067273 173.242284,26.8780909 173.060944,27.0116364 C172.879604,27.1475455 172.672525,27.248 172.436199,27.3141818 C172.199872,27.3803636 171.956525,27.4134545 171.706159,27.4134545 C171.543539,27.4134545 171.380918,27.3980909 171.218297,27.3697273 C171.055676,27.3413636 170.900075,27.2964545 170.751493,27.235 C170.601741,27.1735455 170.461349,27.0955455 170.330316,26.9974545 C170.199284,26.8993636 170.08697,26.7788182 169.993375,26.6358182 L170.558454,26.1666364 C170.678957,26.3734545 170.846258,26.5294545 171.061525,26.6358182 C171.275624,26.7421818 171.503761,26.7941818 171.744767,26.7941818 C171.886329,26.7941818 172.029061,26.7729091 172.172963,26.7303636 C172.316865,26.689 172.446728,26.6263636 172.562552,26.5448182 C172.677205,26.4620909 172.77197,26.3616364 172.844506,26.2387273 C172.918212,26.117 172.95448,25.9763636 172.95448,25.8191818 C172.95448,25.6430909 172.926401,25.5024545 172.869075,25.3937273 C172.810578,25.285 172.721663,25.1904545 172.601159,25.1112727 C172.480656,25.0320909 172.328565,24.9611818 172.146055,24.8973636 C171.962375,24.8347273 171.747107,24.7602727 171.501421,24.6751818 C171.302532,24.6113636 171.118852,24.5392727 170.951552,24.4565455 C170.783081,24.375 170.638009,24.2745455 170.515166,24.1551818 C170.392323,24.037 170.295218,23.894 170.223852,23.7261818 C170.153656,23.5595455 170.118558,23.3598182 170.118558,23.127 C170.118558,22.8575455 170.171205,22.6211818 170.275329,22.4214545 C170.380624,22.2205455 170.522186,22.0515455 170.700016,21.9168182 C170.877846,21.7820909 171.079075,21.6804545 171.304872,21.6119091 C171.530669,21.5421818 171.765826,21.5079091 172.011512,21.5079091 C172.326225,21.5079091 172.612859,21.5575455 172.872584,21.6556364 C173.13114,21.7525455 173.363957,21.9239091 173.567525,22.1673636 L173.025846,22.6436364 Z" id="Fill-24" fill="#FFFFFF" mask="url(#mask-2)"></path>
                    <path d="M41.4167392,34.1803091 C41.2447588,34.4367636 41.0142817,34.6270364 40.7334974,34.7440364 C40.4456935,34.8634 40.1227915,34.9343091 39.7718111,34.9532182 C39.416151,34.9744909 39.0546412,34.9839455 38.6907915,34.9839455 L36.6387261,34.9839455 L36.6387261,31.0437636 L38.3655497,31.0437636 C38.7434386,31.0437636 39.1306869,31.0532182 39.5296346,31.0733091 C39.9145431,31.0934 40.274883,31.1702182 40.6001248,31.3037636 C40.9206869,31.4361273 41.1745627,31.6323091 41.3781314,31.9017636 C41.5770203,32.1688545 41.6776346,32.5635818 41.6776346,33.0753091 C41.6776346,33.5515818 41.5898895,33.9226727 41.4167392,34.1803091 Z M36.6387261,24.9881273 L38.6907915,24.9881273 C38.9458373,24.9881273 39.2242817,24.9975818 39.5284647,25.0176727 C39.8244582,25.0401273 40.0982229,25.1051273 40.3427392,25.2162182 C40.5837458,25.3249455 40.7884843,25.4974909 40.9499353,25.7314909 C41.1102163,25.9666727 41.1909418,26.3094 41.1909418,26.7525818 C41.1909418,27.2111273 41.1067065,27.5668545 40.9405758,27.8126727 C40.7709353,28.0644 40.5650268,28.2404909 40.3123209,28.3504 C40.0584451,28.4614909 39.7870203,28.5288545 39.5062359,28.5477636 C39.219602,28.5690364 38.9657261,28.5784909 38.7516281,28.5784909 L36.6387261,28.5784909 L36.6387261,24.9881273 Z M44.2351118,31.0744909 C43.9765562,30.7400364 43.6431248,30.4469455 43.2441771,30.2034909 C43.1353732,30.1373091 43.0207196,30.0746727 42.9002163,30.0191273 L42.2403732,29.7130364 L42.8417196,29.3005818 L42.9435039,29.2320364 C43.0955954,29.1280364 43.2207784,29.0311273 43.317883,28.9377636 L43.4992229,28.7652182 C43.6981118,28.5773091 43.8537131,28.3811273 43.9636869,28.1790364 C44.0736608,27.9769455 44.1625758,27.7713091 44.2245824,27.5656727 C44.2865889,27.3635818 44.3298765,27.1674 44.3509353,26.9771273 C44.3696542,26.7904 44.3813536,26.6249455 44.3813536,26.4854909 C44.3813536,26.2633091 44.356785,26.0092182 44.3076477,25.7338545 C44.2608503,25.4561273 44.1742752,25.1677636 44.0490922,24.8711273 C43.9250791,24.5804 43.7530987,24.2908545 43.5390007,24.0119455 C43.3249026,23.7330364 43.0394386,23.4765818 42.6896281,23.2508545 C42.405334,23.0735818 42.0871118,22.9305818 41.7501706,22.8324909 C41.4132294,22.7367636 41.0774582,22.6682182 40.7545562,22.6280364 C40.4258046,22.5843091 40.1099222,22.5618545 39.809249,22.5535818 C39.5109157,22.5464909 39.2523601,22.5429455 39.0359222,22.5429455 L33.4682033,22.5429455 L33.4682033,37.5307636 L39.0464516,37.5307636 C39.1809941,37.5307636 39.3997719,37.5284 39.6981052,37.5201273 C39.9987784,37.5130364 40.3298699,37.4929455 40.6913797,37.4574909 C41.0528895,37.4244 41.4225889,37.3641273 41.7911183,37.2825818 C42.1666673,37.1974909 42.4989288,37.0793091 42.780883,36.9304 C43.3658503,36.6361273 43.8817915,36.1894 44.3228569,35.5984909 C44.7662621,35.0064 44.9908895,34.2535818 44.9908895,33.3624909 C44.9908895,32.9736727 44.928883,32.5742182 44.8083797,32.1783091 C44.6867065,31.7812182 44.4936673,31.4089455 44.2351118,31.0744909 Z M70.0871575,31.5082182 C70.0871575,31.8769455 70.078968,32.1936727 70.0555693,32.4619455 C70.0368503,32.7243091 70.006432,32.9535818 69.9654843,33.1509455 C69.9268765,33.3435818 69.881249,33.5066727 69.8297719,33.6354909 C69.7759549,33.7714 69.7116085,33.8884 69.6191837,34.0124909 C69.4366739,34.2984909 69.2050268,34.5407636 68.9441314,34.7097636 C68.6914255,34.8787636 68.4223405,35.0064 68.1474059,35.0903091 C67.8736412,35.1706727 67.6197654,35.2167636 67.3892882,35.2309455 C67.1564712,35.2439455 66.9774712,35.2510364 66.855798,35.2510364 C66.1011902,35.2510364 65.5092033,35.1411273 65.0962163,34.9236727 C64.6785497,34.7003091 64.3802163,34.4249455 64.1824974,34.0786727 C63.9871183,33.7347636 63.8642752,33.3471273 63.8174778,32.9275818 C63.7718503,32.5104 63.7472817,32.0873091 63.7472817,31.6736727 L63.7472817,22.5429455 L60.4351967,22.5429455 L60.4351967,31.5070364 C60.4351967,32.2137636 60.4726346,32.8649455 60.5463405,33.4404909 C60.6223863,34.0302182 60.8411641,34.6234909 61.1968242,35.2061273 C61.540785,35.7781273 61.9654712,36.2390364 62.4615235,36.5805818 C62.9493863,36.9162182 63.4583078,37.1821273 63.9730791,37.3712182 C64.4866804,37.5567636 64.9991118,37.6796727 65.4975039,37.7364 C66.0075954,37.7907636 66.4334516,37.8179455 66.7949614,37.8179455 C67.5425497,37.8179455 68.3088569,37.7198545 69.0716542,37.5284 C69.8356216,37.3345818 70.5422621,37.0060364 71.1716869,36.5486727 C71.7999418,36.0924909 72.3217327,35.4779455 72.7195105,34.7215818 C73.1184582,33.9652182 73.3196869,33.0150364 73.3196869,31.8970364 L73.3196869,22.5429455 L70.0871575,22.5429455 L70.0871575,31.5082182 Z M80.6153993,34.9012182 L80.6153993,31.0650364 L86.8745497,31.0650364 L86.8745497,28.4354909 L80.6153993,28.4354909 L80.6153993,25.1724909 L87.3015758,25.1724909 L87.3015758,22.5429455 L77.3021444,22.5429455 L77.3021444,37.5307636 L87.3390137,37.5307636 L87.3390137,34.9012182 L80.6153993,34.9012182 Z M51.4325497,22.5429455 L48.0584582,22.5429455 L48.0584582,37.5307636 L57.7314778,37.5307636 L57.7314778,34.8409455 L51.4325497,34.8409455 L51.4325497,22.5429455 Z" id="Fill-25" fill="#FFFFFF" mask="url(#mask-2)"></path>
                    <polygon id="Fill-26" fill="#111114" mask="url(#mask-2)" points="35.0455092 10.0072818 42.5599993 1.42964545 37.7059405 1.42964545 30.8477837 9.0311 30.8477837 8.98737273 26.9881693 13.2383727 26.9881693 18.7976455 30.8477837 18.7976455 30.8477837 14.8125545 32.4599536 13.0847364 37.5632085 18.7976455 42.7729275 18.7976455"></polygon>
                    <polygon id="Fill-27" fill="#111114" mask="url(#mask-2)" points="10.9310503 1.42976364 10.9310503 9.59258182 3.85996536 9.59258182 3.85996536 1.42976364 0.000350980392 5.7954 0.000350980392 18.7977636 3.85996536 18.7977636 3.85996536 13.1120364 10.9310503 13.1120364 10.9310503 18.7977636 14.8140634 18.7977636 14.8140634 1.42976364"></polygon>
                    <polygon id="Fill-28" fill="#111114" mask="url(#mask-2)" points="18.9281386 5.36533636 18.9281386 18.7978818 22.9059163 18.7978818 22.9059163 0.983154545"></polygon>
                    <polygon id="Fill-29" fill="#111114" mask="url(#mask-2)" points="83.2642484 5.36533636 83.2642484 18.7978818 87.2420261 18.7978818 87.2420261 0.983154545"></polygon>
                    <polygon id="Fill-30" fill="#111114" mask="url(#mask-2)" points="54.755632 1.42976364 52.7140961 1.42976364 44.5198739 18.7977636 48.7316386 18.7977636 50.2935013 15.2168545 51.4915144 12.3899455 53.7237497 7.43458182 55.9747039 12.3852182 57.1773967 15.2215818 58.7626582 18.7977636 62.9732529 18.7977636"></polygon>
                    <polygon id="Fill-31" fill="#FFFFFF" mask="url(#mask-2)" points="100.657316 1.42976364 100.177642 1.95685455 100.177642 37.8002182 100.667845 37.2601273 100.667845 1.42976364"></polygon>
                    <path d="M76.6182007,13.6172636 C78.7439719,12.5512636 79.8214817,10.5870818 79.8214817,7.77080909 C79.8214817,5.86335455 79.1592987,1.42917273 73.0276712,1.42917273 L68.6240373,1.42917273 L65.4078869,4.97226364 L72.4859915,4.97226364 C75.2844752,4.97226364 75.7033118,6.88917273 75.7033118,8.03080909 C75.7033118,10.0044455 74.4011745,11.0917182 72.0379065,11.0917182 L65.4078869,11.0917182 L65.4078869,18.7983545 L69.3610961,18.7983545 L69.3610961,14.4906273 L72.1560699,14.4906273 C72.3186908,14.4906273 72.494181,14.4906273 72.6544621,14.4799909 L75.8483837,18.7983545 L80.6228869,18.7983545 L76.6182007,13.6172636 Z" id="Fill-32" fill="#111114" mask="url(#mask-2)"></path>
                </g>
            </g>
        </g>
    </g>
</svg>