<svg xmlns="http://www.w3.org/2000/svg" xmlns:xlink="http://www.w3.org/1999/xlink" width="85" height="79" viewBox="0 0 85 79">
    <defs>
        <path id="a" d="M0 0h84.834V79H0z"/>
    </defs>
    <g fill="none" fill-rule="evenodd">
        <mask id="b" fill="#fff">
            <use xlink:href="#a"/>
        </mask>
        <path fill="#2962FF" d="M1.27 29.32V3.79h38.737v25.53H13.019l-4.62 4.618-1.28 1.28V29.32H1.272zm4.578 8.966l7.477-7.476.219-.22h27.733V2.518H0V30.59h5.85v7.696zM11.23 20.27h8.66V19h-8.66v1.27zm60.044-.68h1.27v-8.466h4.636V9.85h-4.636V1.27h8.851V.002h-10.12v9.85h-2.83v1.271h2.83v8.468zM11.23 14.113h18.817V12.84H11.23v1.27zM34.773 72.1h1.27v-1.27h-1.27v1.27zm-22.519-7.374a3.742 3.742 0 0 1-2.662 1.1 3.73 3.73 0 0 1-2.66-1.106 3.716 3.716 0 0 1-1.102-2.657V57.2h1.912v-1.27H5.83v-4.111H4.56v4.111H2.647v1.27H4.56v4.864c0 1.348.523 2.61 1.473 3.556a4.99 4.99 0 0 0 3.56 1.477 4.997 4.997 0 0 0 3.56-1.472 4.979 4.979 0 0 0 1.42-2.81h-1.29a3.73 3.73 0 0 1-1.027 1.911zm65.12-15.694c.997 0 1.931.389 2.633 1.092a3.697 3.697 0 0 1 1.087 2.633c0 .998-.385 1.933-1.085 2.634a3.703 3.703 0 0 1-2.635 1.09h-4.08v1.27h1.665c.995 0 1.93.388 2.632 1.092a3.698 3.698 0 0 1 1.095 2.63c0 .992-.39 1.927-1.096 2.632a3.697 3.697 0 0 1-2.632 1.09h-1.665v1.348a3.7 3.7 0 0 1 1.883 1.015c.7.7 1.087 1.635 1.087 2.63 0 1-.387 1.934-1.088 2.635a3.699 3.699 0 0 1-2.632 1.09H41.277V40.315l.682-.063a14.727 14.727 0 0 0 4.255-1.035 14.681 14.681 0 0 0 4.735-3.128 16.83 16.83 0 0 0 3.712-5.513c.932-2.229 1.313-4.002 1.313-6.12 0-.995.395-1.933 1.11-2.639a3.644 3.644 0 0 1 2.614-1.083c.995 0 1.93.39 2.636 1.1a3.672 3.672 0 0 1 1.086 2.622v2.715c0 2.091-.254 4.19-.754 6.24a27.368 27.368 0 0 1-2.28 5.976l-.486.93h19.941c.993 0 1.925.388 2.629 1.09a3.703 3.703 0 0 1 1.094 2.63 3.71 3.71 0 0 1-1.093 2.635 3.694 3.694 0 0 1-2.63 1.088h-6.547v1.271h4.08zM23.722 77.728h16.286V36.495H23.72v41.233zM83.369 47.57a4.966 4.966 0 0 0 1.465-3.532c0-1.331-.52-2.584-1.465-3.529a4.96 4.96 0 0 0-3.528-1.462l-16.703-.002h-1.14l.45-1.045a27.847 27.847 0 0 0 1.452-4.285c.524-2.149.792-4.352.792-6.544v-2.715c0-1.335-.52-2.587-1.461-3.521a4.946 4.946 0 0 0-3.532-1.471 4.882 4.882 0 0 0-3.514 1.454 4.933 4.933 0 0 0-1.48 3.538c0 1.962-.341 3.54-1.216 5.63a15.345 15.345 0 0 1-3.433 5.098 13.411 13.411 0 0 1-4.325 2.857 13.52 13.52 0 0 1-3.62.917l-.833.092v-3.828H22.45V79h18.828v-3.816h31.265a4.959 4.959 0 0 0 3.532-1.463 4.962 4.962 0 0 0 1.46-3.531 4.925 4.925 0 0 0-.993-2.955l-.575-.774.892-.367a4.992 4.992 0 0 0 1.63-1.09 4.932 4.932 0 0 0 .47-6.486l-.575-.772.892-.367a5 5 0 0 0 1.632-1.089 4.968 4.968 0 0 0 .474-6.48l-.574-.778.898-.362a4.981 4.981 0 0 0 1.663-1.098z" mask="url(#b)"/>
    </g>
</svg>
