<?xml version="1.0" encoding="UTF-8"?>
<svg width="68px" height="85px" viewBox="0 0 68 85" version="1.1" xmlns="http://www.w3.org/2000/svg" xmlns:xlink="http://www.w3.org/1999/xlink">
    <!-- Generator: sketchtool 48.2 (47327) - http://www.bohemiancoding.com/sketch -->
    <title>C9285BE8-80C3-491A-8FDD-56886316D2ED</title>
    <desc>Created with sketchtool.</desc>
    <defs>
        <polygon id="path-1" points="0 0 67.465 0 67.465 84.773 0 84.773"></polygon>
    </defs>
    <g id="ACCUEIL-DESKTOP-2" stroke="none" stroke-width="1" fill="none" fill-rule="evenodd" transform="translate(-375.000000, -5749.000000)">
        <g id="Page-1" transform="translate(375.000000, 5749.000000)">
            <mask id="mask-2" fill="white">
                <use xlink:href="#path-1"></use>
            </mask>
            <g id="Clip-2"></g>
            <path d="M27.008,51.583 C27.524,51.83 28.051,52.059 28.586,52.268 L29.029,51.018 C28.552,50.831 28.08,50.626 27.617,50.406 L27.008,51.583 Z M50.075,10.577 C49.596,10.263 49.105,9.966 48.605,9.687 L47.997,10.865 C48.445,11.116 48.884,11.382 49.313,11.662 L50.075,10.577 Z M53.737,13.541 L52.835,14.512 C53.177,14.852 53.506,15.204 53.826,15.565 C53.846,15.588 53.868,15.609 53.889,15.632 L54.913,14.792 C54.536,14.36 54.144,13.942 53.737,13.541 Z M57.862,38.47 L59.077,38.999 C59.289,38.466 59.482,37.924 59.654,37.377 L58.377,37.02 C58.222,37.51 58.05,37.994 57.862,38.47 Z M33.393,52.233 L33.126,53.532 C33.689,53.629 34.258,53.706 34.829,53.762 L34.916,52.439 C34.406,52.388 33.898,52.319 33.394,52.233 L33.393,52.233 Z M44.612,37.749 C42.703,39.657 40.068,40.839 37.161,40.839 C33.529,40.839 30.321,38.993 28.426,36.189 C28.237,35.908 28.06,35.618 27.898,35.32 C27.086,33.827 26.625,32.117 26.625,30.301 C26.625,28.485 27.086,26.775 27.898,25.282 C28.06,24.983 28.237,24.693 28.426,24.413 C28.715,23.986 29.043,23.59 29.39,23.21 C29.783,22.779 30.208,22.381 30.667,22.02 C32.458,20.611 34.71,19.764 37.161,19.764 C40.431,19.764 43.358,21.259 45.293,23.602 C45.939,24.383 46.474,25.258 46.874,26.203 C47.141,26.833 47.349,27.495 47.489,28.18 C47.63,28.865 47.704,29.575 47.704,30.301 C47.704,33.206 46.522,35.841 44.612,37.749 Z M49.775,38.347 L50.438,37.199 L48.394,36.019 L48.345,35.991 L47.764,35.655 L48.033,35.04 C48.044,35.015 48.053,34.988 48.064,34.963 L48.07,34.966 C48.29,34.452 48.474,33.92 48.619,33.372 C48.668,33.19 48.705,33.006 48.745,32.822 C48.764,32.734 48.788,32.647 48.806,32.559 C48.859,32.283 48.902,32.005 48.935,31.726 C48.936,31.722 48.937,31.718 48.937,31.714 C48.94,31.686 48.946,31.658 48.949,31.63 L49.024,30.964 L52.104,30.964 L52.104,29.64 L49.025,29.64 L48.949,28.973 C48.946,28.944 48.941,28.917 48.937,28.89 C48.937,28.886 48.936,28.882 48.935,28.878 C48.902,28.599 48.86,28.32 48.806,28.045 C48.783,27.928 48.752,27.813 48.727,27.697 C48.692,27.542 48.661,27.385 48.619,27.23 C48.474,26.683 48.29,26.15 48.07,25.637 L48.064,25.64 C48.053,25.614 48.045,25.587 48.033,25.562 L47.764,24.947 L48.345,24.611 L48.394,24.583 L50.438,23.403 L49.775,22.257 L49.775,22.256 L47.672,23.471 L47.092,23.806 L46.695,23.268 C46.677,23.244 46.655,23.225 46.638,23.202 L46.644,23.198 C45.967,22.298 45.167,21.498 44.266,20.821 L44.262,20.828 C44.239,20.811 44.22,20.788 44.196,20.771 L43.658,20.373 L43.993,19.794 L44.028,19.734 L45.206,17.691 L44.059,17.029 L42.879,19.072 L42.852,19.121 L42.516,19.702 L41.902,19.433 C41.875,19.422 41.849,19.413 41.823,19.402 L41.826,19.396 C41.313,19.177 40.78,18.993 40.233,18.848 C40.009,18.788 39.782,18.739 39.556,18.693 C39.51,18.684 39.465,18.671 39.418,18.661 C39.144,18.608 38.866,18.566 38.588,18.533 C38.583,18.532 38.577,18.531 38.572,18.53 C38.544,18.527 38.517,18.521 38.489,18.518 L37.822,18.443 L37.822,15.357 L36.498,15.357 L36.498,17.722 L36.498,18.443 L35.832,18.519 C35.804,18.521 35.776,18.527 35.748,18.53 C35.744,18.531 35.741,18.532 35.737,18.532 C35.457,18.566 35.179,18.608 34.903,18.662 C34.856,18.671 34.811,18.684 34.765,18.693 C34.538,18.74 34.312,18.788 34.089,18.848 C33.542,18.993 33.009,19.177 32.496,19.397 L32.5,19.402 C32.474,19.414 32.447,19.422 32.422,19.434 L31.807,19.703 L31.471,19.122 L30.262,17.028 L29.115,17.691 L30.296,19.735 L30.33,19.795 L30.665,20.374 L30.127,20.772 C30.104,20.79 30.084,20.812 30.061,20.829 L30.058,20.823 C29.158,21.499 28.359,22.299 27.683,23.198 L27.689,23.202 C27.672,23.226 27.65,23.244 27.633,23.268 L27.235,23.806 L26.654,23.471 L26.595,23.437 L24.552,22.256 L23.889,23.403 L25.934,24.584 L25.982,24.612 L26.563,24.947 L26.294,25.562 C26.283,25.588 26.274,25.614 26.263,25.641 L26.258,25.637 C26.037,26.15 25.854,26.682 25.709,27.229 C25.64,27.485 25.583,27.744 25.531,28.005 C25.529,28.018 25.525,28.03 25.523,28.043 C25.469,28.321 25.426,28.602 25.392,28.884 C25.392,28.886 25.392,28.888 25.391,28.89 C25.388,28.917 25.382,28.944 25.379,28.973 L25.304,29.64 L22.217,29.64 L22.217,30.964 L25.304,30.964 L25.379,31.63 C25.382,31.658 25.388,31.686 25.392,31.714 C25.392,31.717 25.393,31.72 25.393,31.724 C25.427,32.004 25.469,32.282 25.523,32.559 C25.53,32.598 25.541,32.636 25.549,32.675 C25.597,32.908 25.647,33.143 25.709,33.373 C25.854,33.92 26.037,34.452 26.258,34.965 L26.263,34.962 C26.275,34.987 26.283,35.015 26.294,35.04 L26.563,35.654 L25.982,35.99 L25.934,36.019 L25.808,36.091 L23.889,37.199 L24.552,38.347 L26.655,37.132 L27.235,36.797 L27.633,37.335 C27.65,37.358 27.672,37.377 27.689,37.4 L27.683,37.403 C28.359,38.304 29.158,39.103 30.058,39.779 L30.061,39.772 C30.085,39.79 30.104,39.812 30.127,39.829 L30.665,40.228 L30.33,40.808 L30.296,40.867 L29.115,42.912 L30.262,43.574 L31.471,41.48 L31.807,40.899 L32.422,41.169 C32.447,41.18 32.474,41.188 32.5,41.199 L32.496,41.205 C33.01,41.426 33.542,41.608 34.09,41.754 C34.258,41.8 34.429,41.833 34.6,41.871 C34.701,41.894 34.801,41.921 34.904,41.94 C35.175,41.993 35.449,42.034 35.724,42.068 C35.733,42.069 35.74,42.07 35.748,42.071 C35.776,42.075 35.804,42.081 35.832,42.084 L36.498,42.159 L36.498,42.88 L36.498,45.244 L37.822,45.244 L37.822,42.159 L38.489,42.084 C38.517,42.081 38.544,42.075 38.572,42.071 C38.578,42.071 38.583,42.069 38.589,42.069 C38.867,42.036 39.144,41.994 39.417,41.94 C39.516,41.922 39.611,41.895 39.708,41.874 C39.883,41.836 40.059,41.801 40.233,41.755 C40.78,41.609 41.313,41.426 41.826,41.206 L41.823,41.2 C41.849,41.188 41.875,41.181 41.901,41.169 L42.516,40.9 L42.852,41.481 L42.879,41.529 L44.059,43.573 L45.206,42.911 L43.992,40.809 L43.658,40.229 L44.196,39.831 C44.22,39.813 44.238,39.792 44.262,39.774 L44.266,39.78 C45.167,39.104 45.967,38.305 46.644,37.404 L46.638,37.4 C46.654,37.377 46.677,37.358 46.695,37.335 L47.092,36.797 L47.672,37.132 L47.732,37.166 L49.775,38.347 Z M44.277,7.82 C43.73,7.647 43.176,7.495 42.618,7.362 L42.354,8.661 C42.853,8.78 43.348,8.917 43.837,9.071 L44.277,7.82 Z M60.036,24.581 L58.761,24.943 C58.883,25.439 58.989,25.941 59.077,26.446 L60.39,26.263 C60.292,25.699 60.174,25.137 60.036,24.581 Z M56.516,19.321 C56.603,19.475 56.677,19.634 56.761,19.789 C56.919,20.085 57.082,20.378 57.228,20.681 L58.442,20.147 C58.195,19.632 57.929,19.124 57.646,18.628 L56.516,19.321 Z M59.401,30.962 C59.384,31.504 59.349,32.046 59.294,32.585 L60.608,32.764 C60.669,32.168 60.709,31.565 60.726,30.962 L59.401,30.962 Z M50.605,48.03 L51.37,49.112 C51.826,48.768 52.271,48.405 52.701,48.027 L51.796,47.06 C51.41,47.396 51.012,47.721 50.605,48.03 Z M39.108,33.19 C38.922,33.316 38.724,33.424 38.516,33.513 C38.099,33.688 37.641,33.787 37.16,33.787 C36.921,33.787 36.686,33.763 36.459,33.716 C34.873,33.391 33.676,31.982 33.676,30.301 C33.676,28.619 34.873,27.212 36.459,26.887 C36.686,26.84 36.921,26.815 37.16,26.815 C37.641,26.815 38.099,26.913 38.516,27.09 C38.724,27.178 38.922,27.286 39.108,27.411 C40.034,28.038 40.645,29.1 40.645,30.301 C40.645,31.502 40.034,32.563 39.108,33.19 Z M40.56,26.901 C40.124,26.466 39.606,26.113 39.03,25.87 C38.455,25.626 37.823,25.491 37.161,25.491 L37.16,25.491 C35.835,25.491 34.632,26.03 33.761,26.901 C32.89,27.772 32.351,28.975 32.351,30.301 C32.351,32.954 34.508,35.111 37.16,35.111 C38.76,35.111 40.17,34.318 41.045,33.113 C41.159,32.956 41.255,32.787 41.35,32.616 C41.733,31.926 41.97,31.145 41.97,30.301 C41.97,29.638 41.835,29.006 41.591,28.431 C41.348,27.855 40.995,27.337 40.56,26.901 Z M54.887,43.747 L55.915,44.584 C56.263,44.128 56.595,43.659 56.907,43.181 L55.776,42.491 C55.494,42.919 55.197,43.339 54.887,43.747 Z M46.738,50.389 C46.277,50.609 45.806,50.814 45.329,51.003 L45.775,52.252 C46.308,52.042 46.834,51.812 47.35,51.565 L46.738,50.389 Z M64.13,16.506 C63.926,16.109 63.714,15.718 63.493,15.331 C63.198,14.814 62.89,14.308 62.567,13.812 C61.408,12.033 60.075,10.379 58.581,8.885 C57.552,7.855 56.45,6.9 55.283,6.027 C52.949,4.28 50.357,2.862 47.573,1.841 C44.326,0.65 40.821,0 37.166,0 C34.032,0 31.009,0.478 28.164,1.364 C27.69,1.512 27.22,1.671 26.757,1.841 C25.829,2.181 24.922,2.565 24.039,2.991 C23.156,3.417 22.297,3.885 21.463,4.392 C20.214,5.151 19.023,5.999 17.9,6.926 C11.162,12.487 6.861,20.897 6.861,30.294 L6.843,33.626 L6.843,33.749 L6.803,33.865 L0,53.77 L8.038,53.77 L8.093,54.46 L8.199,55.793 L9.532,72.58 L23.714,71.277 L24.438,71.211 L24.527,71.932 L26.106,84.742 L27.421,84.58 L25.595,69.773 L11.503,71.068 L10.81,71.132 L10.747,71.138 L10.687,70.381 L9.261,52.444 L1.853,52.444 L2.193,51.452 L8.166,33.972 L8.186,30.297 C8.186,28.71 8.319,27.154 8.566,25.636 C8.689,24.877 8.843,24.128 9.025,23.39 C9.324,22.169 9.703,20.98 10.153,19.826 C10.83,18.085 11.671,16.425 12.657,14.864 C12.921,14.448 13.195,14.039 13.478,13.638 C15.683,10.513 18.489,7.843 21.728,5.795 C22.873,5.072 24.07,4.428 25.315,3.868 C26.893,3.157 28.544,2.583 30.256,2.163 C30.994,1.981 31.743,1.827 32.503,1.704 C34.022,1.457 35.578,1.324 37.166,1.324 C39.162,1.324 41.113,1.527 42.997,1.914 C43.469,2.011 43.936,2.118 44.399,2.238 C45.323,2.477 46.231,2.76 47.118,3.085 C48.005,3.411 48.872,3.778 49.716,4.186 C50.561,4.593 51.382,5.04 52.179,5.525 C52.976,6.01 53.747,6.531 54.49,7.088 C55.235,7.645 55.951,8.236 56.638,8.86 C56.981,9.173 57.317,9.493 57.645,9.82 C59.284,11.46 60.729,13.295 61.94,15.287 C62.182,15.685 62.415,16.09 62.638,16.5 C63.755,18.553 64.63,20.755 65.227,23.067 C65.346,23.53 65.454,23.997 65.551,24.469 C65.744,25.411 65.892,26.37 65.99,27.343 C66.09,28.315 66.141,29.303 66.141,30.301 C66.141,32.709 65.843,35.096 65.253,37.425 C65.057,38.201 64.828,38.971 64.567,39.732 L57.927,61.537 L61.759,84.773 L63.067,84.558 L59.314,61.801 L59.285,61.628 L59.336,61.46 L65.827,40.14 C66.917,36.96 67.466,33.658 67.466,30.301 C67.466,25.838 66.488,21.602 64.748,17.783 C64.552,17.352 64.346,16.926 64.13,16.506 Z M39.447,52.435 L39.538,53.757 C40.11,53.7 40.678,53.622 41.239,53.524 L40.97,52.227 C40.468,52.312 39.959,52.383 39.447,52.435 Z M24.136,10.649 L24.904,11.729 C25.33,11.447 25.768,11.18 26.213,10.927 L25.599,9.752 C25.102,10.032 24.613,10.332 24.136,10.649 Z M20.491,13.632 C20.086,14.037 19.695,14.457 19.321,14.89 L20.351,15.725 C20.687,15.338 21.037,14.961 21.398,14.599 L20.491,13.632 Z M30.362,9.109 C30.848,8.954 31.342,8.814 31.84,8.691 L31.568,7.395 C31.011,7.53 30.459,7.687 29.914,7.862 L30.362,9.109 Z M36.234,6.745 L36.326,8.067 C36.606,8.057 36.886,8.052 37.164,8.052 C37.397,8.052 37.631,8.056 37.864,8.062 L37.948,6.74 C37.684,6.731 37.419,6.727 37.156,6.727 C36.849,6.727 36.541,6.733 36.234,6.745 Z M13.718,32.81 L15.03,32.628 C14.978,32.12 14.943,31.608 14.925,31.095 L13.599,31.098 C13.618,31.67 13.658,32.242 13.718,32.81 Z M21.648,48.053 C22.079,48.43 22.525,48.792 22.981,49.136 L23.745,48.053 C23.562,47.914 23.389,47.763 23.21,47.618 C22.99,47.44 22.765,47.27 22.552,47.083 L21.648,48.053 Z M16.473,38.509 C16.285,38.033 16.112,37.55 15.956,37.062 L14.681,37.422 C14.854,37.968 15.047,38.508 15.258,39.039 L16.473,38.509 Z M15.529,25.069 L14.252,24.715 C14.117,25.27 14.002,25.832 13.907,26.397 L15.221,26.573 C15.306,26.069 15.409,25.566 15.529,25.069 Z M17.435,43.215 C17.526,43.354 17.629,43.485 17.724,43.622 C17.953,43.957 18.181,44.293 18.427,44.615 L19.454,43.776 C19.144,43.37 18.847,42.951 18.566,42.523 L17.435,43.215 Z M17.743,19.43 L16.61,18.742 C16.328,19.241 16.065,19.752 15.821,20.27 L17.038,20.796 C17.257,20.333 17.492,19.876 17.743,19.43 Z" id="Fill-1" fill="#2962FF" mask="url(#mask-2)"></path>
        </g>
    </g>
</svg>