<?xml version="1.0" encoding="UTF-8"?>
<svg width="346px" height="104px" viewBox="0 0 346 104" version="1.1" xmlns="http://www.w3.org/2000/svg" xmlns:xlink="http://www.w3.org/1999/xlink">
    <!-- Generator: sketchtool 49.2 (51160) - http://www.bohemiancoding.com/sketch -->
    <title>A200B572-80A9-42F8-B947-4061D280180F</title>
    <desc>Created with sketchtool.</desc>
    <defs>
        <polygon id="path-1" points="0.293263682 0.0504242424 178.95525 0.0504242424 178.95525 29.8225455 0.293263682 29.8225455"></polygon>
        <polygon id="path-3" points="0 0.0036402528 272.70875 0.0036402528 272.70875 103.140496 0 103.140496"></polygon>
    </defs>
    <g id="Page-1" stroke="none" stroke-width="1" fill="none" fill-rule="evenodd">
        <g id="SERVIER" transform="translate(-854.000000, -296.000000)">
            <g id="SLIDE">
                <g id="sebastien-gabriel-232358">
                    <g id="Page-1" transform="translate(854.000000, 296.000000)">
                        <path d="M48.7460606,28.3582468 C48.1587878,29.9158307 48.3544445,31.4737159 49.1376767,32.8369785 C49.7249495,34.0050158 50.8997978,34.979033 52.269697,35.5632023 C53.4445454,35.9527489 54.8150504,35.9527489 56.1852525,35.3685796 C57.7514141,34.979033 58.730303,34.0050158 59.3178786,32.4474318 C59.7094947,31.2790932 59.9045456,30.3053773 59.7094947,29.1367375 C59.7094947,28.1636241 59.3178786,27.1896069 58.730303,26.4105136 C57.9470707,25.6314204 57.359798,25.0475524 56.3809091,24.8523271 C55.0110099,24.2687604 53.4445454,24.2687604 51.8780809,24.8523271 C50.5081817,25.4367977 49.3333333,26.6054376 48.7460606,28.1636241 L48.7460606,28.3582468 Z M46.5923234,29.3313601 L38.7618182,17.8425968 L51.8780809,22.7108752 L61.0793939,12 L60.8834344,26.020967 L74,30.8895466 L60.6877778,34.3945624 L60.6877778,49 L51.8780809,36.5369182 L37,40.236858 L46.5923234,29.3313601 Z" id="Fill-1" fill="#FEFEFE"></path>
                        <path d="M49.3671525,27.6598302 C50.154231,26.1097719 51.1386121,25.1411353 52.5157712,24.5600133 C53.8938438,23.979191 55.4683054,23.979191 56.845769,24.5600133 C58.0265391,24.9475279 59.0106156,25.9161645 59.7979987,27.0787082 C60.5847728,28.4348594 60.5847728,29.7904112 60.1916902,31.5340769 C59.7979987,32.5027135 59.2076136,33.4710504 58.4202306,34.2460796 C57.6328475,34.8272016 56.648771,35.2147162 55.6653034,35.4083236 C54.6809223,35.6022308 53.6968458,35.6022308 52.9094627,35.2147162 C51.3353056,34.8272016 50.351229,33.858565 49.563846,32.3091061 C48.7767674,30.9526552 48.5797694,29.4028966 49.1704589,27.6598302 L49.3671525,27.6598302 Z M48.3830759,25.5286499 L35,29.2092891 L47.9893844,34.0521724 L47.9893844,48 L57.0424625,37.3452971 L70.2285404,41.994573 L62.5532304,30.7593475 L72,19.7174297 L57.239156,23.3977692 L48.3830759,11 L48.3830759,25.5286499 Z" id="Fill-3" fill="#FEFEFE"></path>
                        <path d="M56.6918112,22.5094015 C60.9219077,24.0653476 63.0372533,28.735293 61.4987119,32.8209685 C59.960468,36.906945 55.3463312,39.0471611 51.3078088,37.490914 C47.0777123,35.9343658 44.9629616,31.2647214 46.5012055,27.1790459 C48.039152,23.0927684 52.6538837,20.9525523 56.6918112,22.5094015" id="Fill-5" fill="#FEFEFE"></path>
                        <g id="Group-9" transform="translate(167.000000, 72.000000)">
                            <mask id="mask-2" fill="white">
                                <use xlink:href="#path-1"></use>
                            </mask>
                            <g id="Clip-8"></g>
                            <path d="M162.214184,6.31860606 L168.077644,6.31860606 C169.445845,6.31860606 170.618416,6.51406061 171.204399,6.90557576 C171.986314,7.49345455 172.181642,8.47254545 171.790684,9.84406061 C171.595357,11.2146667 170.814046,12.1943636 170.03213,12.5861818 C169.054887,13.1737576 167.882014,13.3698182 166.709443,13.3698182 L160.65126,13.3698182 L162.214184,6.31860606 Z M150.6835,29.0392121 L157.328573,29.0392121 L159.673715,18.4622424 L164.755259,18.4622424 C166.12346,18.4622424 167.100401,18.658303 167.686686,19.0501212 C168.272971,19.6370909 168.468602,20.0289091 168.468602,20.6167879 C168.663929,21.2043636 168.468602,21.988 168.468602,22.9670909 C168.272971,23.9467879 168.077644,24.9255758 167.882014,25.7092121 L167.882014,27.668303 C167.882014,28.0601212 168.077644,28.6473939 168.272971,29.0392121 L174.918346,29.0392121 C174.527389,28.2558788 174.527389,27.668303 174.527389,26.8846667 C174.527389,26.1010303 174.722716,24.7298182 175.113674,22.7713333 C175.504027,21.0086061 175.504027,19.6370909 175.309304,18.4622424 C175.113674,17.2867879 174.136431,16.307697 172.5726,15.9158788 L172.5726,15.7198182 C173.941103,15.328 175.309304,14.5449697 176.481573,13.3698182 C177.654144,12.1943636 178.240429,10.627697 178.827017,8.66890909 C179.022345,7.10163636 179.022345,5.7310303 178.631387,4.55557576 C178.240429,3.38012121 177.263186,2.40072727 176.090615,1.81375758 C174.722716,1.02981818 173.158885,0.834060606 171.204399,0.834060606 L156.742287,0.834060606 L152.638289,20.2249697 L150.6835,29.0392121 Z M133.875642,11.998303 L147.556443,11.998303 L146.383872,17.0910303 L132.702769,17.0910303 L131.33487,23.5549697 L147.361115,23.5549697 L146.188544,29.0392121 L142.865857,29.0392121 L123.517227,29.0392121 L125.471713,20.2249697 L129.576014,0.834060606 L132.312113,0.834060606 L151.856373,0.834060606 L150.6835,6.31860606 L135.048515,6.31860606 L133.875642,11.998303 Z M116.286171,0.834060606 L112.18187,20.2249697 L110.227384,29.0392121 L116.872456,29.0392121 L120.976757,9.45224242 L122.930941,0.834060606 L116.286171,0.834060606 Z M95.9599951,21.0086061 L96.3509529,20.2249697 L105.536797,0.834060606 L112.963786,0.834060606 L108.077872,9.45224242 L97.3284985,29.0392121 L90.4884005,29.0392121 L89.3155272,20.2249697 L86.9697806,0.834060606 L94.3967688,0.834060606 L94.5923988,1.42163636 L95.9599951,21.0086061 Z M66.2535542,6.31860606 L72.1167113,6.31860606 C73.48461,6.31860606 74.6574833,6.51406061 75.2437688,6.90557576 C76.0256843,7.49345455 76.221012,8.47254545 75.8300542,9.84406061 C75.6347265,11.2146667 75.0481387,12.1943636 74.0708954,12.5861818 C73.0942569,13.1737576 71.9213836,13.3698182 70.7488127,13.3698182 L64.6897231,13.3698182 L66.2535542,6.31860606 Z M54.9181978,29.0392121 L61.367338,29.0392121 L63.7130846,18.4622424 L68.7940238,18.4622424 C70.1622248,18.4622424 71.1394681,18.658303 71.7257535,19.0501212 C72.3123414,19.6370909 72.5076691,20.0289091 72.7029968,20.6167879 C72.7029968,21.2043636 72.7029968,21.988 72.5076691,22.9670909 C72.3123414,23.9467879 72.1167113,24.9255758 72.1167113,25.7092121 C71.9213836,26.4928485 71.9213836,27.2764848 71.9213836,27.668303 C71.9213836,28.0601212 72.1167113,28.6473939 72.3123414,29.0392121 L78.9568093,29.0392121 C78.7614816,28.2558788 78.5661539,27.668303 78.5661539,26.8846667 C78.5661539,26.1010303 78.7614816,24.7298182 79.1524394,22.7713333 C79.5433971,21.0086061 79.5433971,19.6370909 79.3477671,18.4622424 C79.1524394,17.2867879 78.1751961,16.307697 76.6119698,15.9158788 L76.6119698,15.7198182 C78.1751961,15.328 79.3477671,14.5449697 80.5206404,13.3698182 C81.6935137,12.1943636 82.4748245,10.627697 82.8657823,8.66890909 C83.25674,7.10163636 83.06111,5.7310303 82.6701522,4.55557576 C82.2794968,3.38012121 81.3025559,2.40072727 80.1296826,1.81375758 C78.7614816,1.02981818 77.1982552,0.834060606 75.2437688,0.834060606 L60.7810525,0.834060606 L56.6767519,20.2249697 L54.9181978,29.0392121 Z M37.9144073,11.998303 L51.5952079,11.998303 L50.6185694,17.0910303 L36.7421387,17.0910303 L35.3739377,23.5549697 L51.3998802,23.5549697 L50.2276117,29.0392121 L47.1002519,29.0392121 L27.5565965,29.0392121 L29.5104782,20.2249697 L33.6147789,0.834060606 L36.546811,0.834060606 L55.8951387,0.834060606 L54.7228701,6.31860606 L39.0872806,6.31860606 L37.9144073,11.998303 Z M0.586255236,19.8331515 L7.03509307,19.8331515 C6.83946301,21.0086061 7.03509307,22.1837576 7.62137855,23.1631515 C8.01233632,24.1422424 9.38053733,24.5337576 11.7256792,24.5337576 C13.0938802,24.5337576 14.2667535,24.338 15.4390221,23.9467879 C16.4162654,23.5549697 17.1981809,22.5752727 17.3935086,21.4004242 C17.5891387,20.6167879 17.3935086,20.0289091 17.1981809,19.6370909 C16.8072231,19.0501212 16.4162654,18.658303 15.8299799,18.4622424 C15.2439968,18.0704242 14.6577113,17.8746667 14.0711235,17.6786061 C13.484838,17.4828485 12.5075948,17.2867879 11.1390914,17.0910303 C9.7714951,16.6992121 8.79425186,16.307697 7.81700861,16.1116364 C6.83946301,15.7198182 6.05875693,15.328 5.47247145,14.7407273 C4.69055591,13.9573939 4.29959814,13.1737576 3.9092451,12.1943636 C3.71361503,11.2146667 3.71361503,9.84406061 3.9092451,8.27709091 C4.29959814,6.90557576 4.69055591,5.7310303 5.47247145,4.75133333 C6.05875693,3.77193939 7.03509307,2.79224242 8.01233632,2.20466667 C9.18520963,1.42163636 10.5534106,0.834060606 11.9210069,0.442242424 C13.484838,0.246484848 15.2439968,0.0504242424 17.0028532,0.0504242424 C20.1296083,0.0504242424 22.2797248,0.442242424 23.6479258,1.61739394 C25.0155221,2.79224242 25.7974377,3.96769697 25.9927654,5.14315152 C26.1883954,6.31860606 26.1883954,7.49345455 25.9927654,8.47254545 L19.5436252,8.47254545 C19.7389529,7.10163636 19.5436252,6.31860606 18.5663819,5.7310303 C17.5891387,5.33921212 16.6115931,5.14315152 15.4390221,5.14315152 C14.0711235,5.14315152 12.8982502,5.33921212 12.116637,5.92678788 C11.1390914,6.51406061 10.5534106,7.29739394 10.3577806,8.0810303 C10.1624529,8.86436364 10.3577806,9.648 10.9437637,10.0398182 C11.3347215,10.4316364 11.9210069,10.8234545 12.7029225,11.0189091 C13.2892079,11.2146667 14.2667535,11.4107273 15.2439968,11.6064848 C17.0028532,11.998303 18.3707519,12.3901212 19.7389529,12.7819394 C20.9112215,13.1737576 21.8884647,13.5655758 22.6706826,14.3492121 C23.4522958,14.9367879 24.0388836,15.7198182 24.4292367,16.6992121 C24.6245644,17.6786061 24.6245644,18.8540606 24.4292367,20.4207273 C24.2342113,21.5961818 23.8432535,22.5752727 23.2569681,23.5549697 C22.6706826,24.7298182 21.8884647,25.7092121 20.7158938,26.6889091 C19.7389529,27.4725455 18.3707519,28.2558788 16.6115931,28.8431515 C14.853039,29.4310303 12.8982502,29.8225455 10.5534106,29.8225455 C7.23042078,29.8225455 5.08151368,29.2349697 3.51828733,28.0601212 C1.95445625,27.0807273 0.977213007,25.7092121 0.586255236,24.338 C0.195599831,22.7713333 0.195599831,21.2043636 0.586255236,19.8331515 Z" id="Fill-7" fill="#FEFEFE" mask="url(#mask-2)"></path>
                        </g>
                        <g id="Group-12">
                            <mask id="mask-4" fill="white">
                                <use xlink:href="#path-3"></use>
                            </mask>
                            <g id="Clip-11"></g>
                            <path d="M141.832489,92.3559436 L131.268115,103.140496 L102.315285,93.1404181 L141.832489,92.3559436 Z M143.98471,90.3953641 L69.2532296,81.7682684 L154.743997,78.8269441 L143.98471,90.3953641 Z M156.896217,76.669791 L35.6049203,69.6110374 L167.068645,65.8852387 L156.896217,76.669791 Z M169.612206,63.9246592 L-9.07982262e-05,56.866209 L179.784332,51.768035 L169.612206,63.9246592 Z M103.293485,39.2194769 L272.70875,46.2779271 L92.729111,51.3757978 L103.293485,39.2194769 Z M115.813652,26.4743452 L237.104041,33.5330987 L105.83644,37.2585941 L115.813652,26.4743452 Z M128.72516,12.748772 L203.25991,21.3764745 L118.161089,24.3174954 L128.72516,12.748772 Z M131.073202,10.7881925 L141.441149,0.0036402528 L170.394887,10.003718 L131.073202,10.7881925 Z" id="Fill-10" fill="#FEFEFE" mask="url(#mask-4)"></path>
                        </g>
                    </g>
                </g>
            </g>
        </g>
    </g>
</svg>