<?xml version="1.0" encoding="UTF-8"?>
<svg width="86px" height="65px" viewBox="0 0 86 65" version="1.1" xmlns="http://www.w3.org/2000/svg" xmlns:xlink="http://www.w3.org/1999/xlink">
    <!-- Generator: sketchtool 48.2 (47327) - http://www.bohemiancoding.com/sketch -->
    <title>08C27CD8-C097-40B2-8EA2-5EC9922DAC13</title>
    <desc>Created with sketchtool.</desc>
    <defs>
        <polygon id="path-1" points="0 0 7.69103335 0 7.69103335 7.6901273 0 7.6901273"></polygon>
        <polygon id="path-3" points="0 0 7.69128335 0 7.69128335 7.69083335 0 7.69083335"></polygon>
    </defs>
    <g id="ACCUEIL-DESKTOP-2" stroke="none" stroke-width="1" fill="none" fill-rule="evenodd" transform="translate(-424.000000, -4531.000000)">
        <g id="EXPERTISES" transform="translate(94.000000, 3602.000000)">
            <g id="Page-1" transform="translate(330.000000, 929.000000)">
                <path d="M17.906,29.299 L17.645,28 C14.343,28.668 10.728,29.589 8,30.781 C8.341,31.095 8.641,31.447 8.892,31.84 C10.932,30.995 13.858,30.117 17.906,29.299" id="Fill-1" fill="#2962FF"></path>
                <path d="M70.354,41.2464138 C70.628,41.5554138 70.645,42.1124138 70.396,42.6654138 C70.142,43.2294138 69.539,43.8904138 68.671,43.8904138 L65.049,43.8904138 C64.58,43.8904138 64.199,44.2694138 64.199,44.7394138 L64.201,52.6164138 C64.204,52.6804138 64.26,54.1484138 63.081,55.4984138 C62.973,55.4224138 62.877,55.3584138 62.767,55.2804138 C57.961,51.8824138 52.267,47.2544138 46.34,41.9564138 C54.483,41.6404138 62.716,40.8234138 69.497,39.5844138 C69.798,40.3594138 70.091,40.9504138 70.354,41.2464138 M30.897,53.4904138 C30.122,51.5484138 28.607,48.9484138 25.632,46.2774138 C25.401,46.0704138 25.171,45.8704138 24.945,45.6724138 C23.564,44.4654138 22.327,43.3714138 21.413,41.2894138 C26.615,41.8364138 32.521,42.1084138 38.525,42.1084138 C40.035,42.1084138 41.551,42.0734138 43.063,42.0394138 C38.801,46.3494138 34.662,50.2424138 30.897,53.4904138 M19.83,29.8164138 C19.83,25.7234138 20.745,22.3224138 22.312,19.5214138 C23.822,21.3114138 25.487,23.1954138 27.287,25.1464138 C27.531,24.7704138 27.813,24.4244138 28.141,24.1204138 C26.289,22.1084138 24.575,20.1674138 23.04,18.3344138 C27.762,11.2634138 36.979,8.50141377 45.781,8.50141377 C55.818,8.50141377 61.088,13.5054138 63.845,18.3774138 C60.076,23.3874138 54.87,29.6214138 48.046,36.8784138 C46.909,38.0864138 45.775,39.2654138 44.645,40.4274138 C43.444,39.3364138 42.24,38.2284138 41.031,37.0924138 C39.18,35.3514138 37.383,33.6134138 35.647,31.8924138 C35.332,32.2094138 34.969,32.4734138 34.583,32.7044138 C36.367,34.4754138 38.218,36.2654138 40.123,38.0574138 C41.085,38.9624138 42.046,39.8524138 43.003,40.7294138 C34.493,40.9274138 26.969,40.5944138 20.91,39.9204138 C20.233,37.7224138 19.83,34.6094138 19.83,29.8164138 M66.807,27.4984138 C66.807,29.4694138 67.92,34.8534138 69.056,38.3314138 C62.924,39.4404138 55.163,40.2924138 46.298,40.6314138 C47.2,39.6974138 48.105,38.7484138 49.011,37.7864138 C54.022,32.4574138 59.872,25.7464138 64.524,19.6634138 C66.504,23.7514138 66.807,27.4154138 66.807,27.4984138 M85.22,32.3384138 C85.109,28.7534138 76.406,26.9504138 69.125,26.0694138 L68.965,27.3844138 C79.913,28.7094138 83.85,30.9034138 83.896,32.3794138 C83.952,34.2374138 79.046,36.3644138 70.722,38.0154138 C69.718,34.9444138 68.507,29.5274138 68.507,27.4984138 C68.507,25.8074138 67.817,21.9974138 65.704,18.1014138 C67.875,15.1814138 69.715,12.4534138 70.983,10.1554138 C70.553,10.0244138 70.142,9.85241377 69.764,9.62441377 C68.677,11.5324138 67.085,13.9654138 64.976,16.8534138 C61.771,11.7134138 55.946,6.80141377 45.781,6.80141377 C33.49,6.80141377 25.975,11.1244138 21.939,16.9954138 C21.81,16.8364138 21.67,16.6704138 21.544,16.5144138 C14.55,7.80941377 15.66,6.44341377 15.672,6.43141377 C15.685,6.41941377 16.999,5.20041377 26.349,11.8544138 L27.117,10.7754138 C16.722,3.37741377 15.205,4.99341377 14.707,5.52341377 C14.162,6.10241377 12.715,7.64041377 20.512,17.3444138 C20.729,17.6134138 20.965,17.8944138 21.19,18.1694138 C19.065,21.7654138 18.129,25.8384138 18.129,29.8164138 C18.129,34.2634138 18.483,37.3884138 19.081,39.6994138 C14.765,39.1424138 11.288,38.4104138 8.874,37.5814138 C8.629,37.9644138 8.33,38.3034138 8,38.6114138 C10.808,39.6784138 14.812,40.4934138 19.495,41.0694138 C20.555,44.0904138 22.125,45.4664138 23.826,46.9524138 C24.047,47.1454138 24.271,47.3414138 24.497,47.5434138 C27.545,50.2794138 28.906,52.9234138 29.516,54.6744138 C28.819,55.2594138 28.132,55.8294138 27.468,56.3624138 C18.761,63.3594138 17.397,62.2484138 17.384,62.2364138 C16.941,61.8204138 17.448,58.5524138 25.014,48.5574138 L23.958,47.7574138 C17.361,56.4724138 14.844,61.6684138 16.477,63.2024138 C16.672,63.3864138 16.976,63.6714138 17.665,63.6714138 C19.021,63.6714138 21.865,62.5634138 28.298,57.3964138 C28.82,56.9774138 29.364,56.5214138 29.905,56.0704138 C29.992,56.5054138 30.009,56.7594138 30.009,56.7634138 L30.009,64.4704138 L31.709,64.4704138 L31.708,56.7374138 C31.706,56.6614138 31.672,55.9544138 31.359,54.8424138 C35.458,51.3304138 40.019,47.0284138 44.701,42.2624138 C50.936,47.8764138 56.954,52.7924138 62,56.3614138 C62.016,56.3724138 62.03,56.3824138 62.045,56.3924138 C60.653,57.3194138 58.656,57.7974138 56.067,57.7974138 C55.752,57.7974138 55.462,57.9714138 55.315,58.2504138 L52.186,64.1894138 L53.689,64.9824138 L56.583,59.4904138 C59.588,59.4204138 61.916,58.7244138 63.53,57.4204138 C68.945,61.0974138 71.532,61.9764138 72.834,61.9764138 C73.643,61.9764138 73.958,61.6414138 74.156,61.4314138 C74.756,60.7934138 76.352,59.0994138 66.987,47.9474138 L65.973,48.7994138 C72.781,56.9064138 73.671,60.0134138 73.191,60.5224138 C73.179,60.5384138 72.044,61.5684138 64.48,56.4644138 C66.006,54.6044138 65.903,52.5934138 65.899,52.5614138 L65.899,45.5894138 L68.671,45.5894138 C70.053,45.5894138 71.339,44.7154138 71.947,43.3624138 C72.477,42.1814138 72.354,40.9374138 71.625,40.1174138 C71.496,39.9734138 71.342,39.6684138 71.174,39.2624138 C79.54,37.5834138 85.308,35.2214138 85.22,32.3384138" id="Fill-3" fill="#2962FF"></path>
                <g id="Group-7" transform="translate(0.000000, 30.828000)">
                    <mask id="mask-2" fill="white">
                        <use xlink:href="#path-1"></use>
                    </mask>
                    <g id="Clip-6"></g>
                    <path d="M3.90975,0.000563649022 C1.78575,-0.035436351 0.03575,1.65756365 0.00075,3.78056365 C-0.00025,3.82356365 -0.00025,3.86656365 0.00075,3.90856365 C0.03575,6.03256365 1.78575,7.72556365 3.90975,7.68956365 C6.03375,7.65456365 7.72575,5.90456365 7.69075,3.78056365 C7.65575,1.70756365 5.98375,0.034563649 3.90975,0.000563649022" id="Fill-5" fill="#2962FF" mask="url(#mask-2)"></path>
                </g>
                <path d="M35.69,27.781533 C35.655,25.708533 33.982,24.035533 31.909,24.000533 C29.786,23.965533 28.036,25.658533 28,27.781533 C28,27.824533 28,27.866533 28,27.909533 C28.036,30.033533 29.786,31.725533 31.909,31.690533 C34.032,31.655533 35.725,29.905533 35.69,27.781533" id="Fill-8" fill="#2962FF"></path>
                <path d="M67.12,6.463 C67.035,6.097 66.983,5.719 66.977,5.328 C66.976,5.268 66.976,5.208 66.977,5.148 C66.977,5.097 66.992,5.05 66.994,5 C65.283,6.012 63.031,7.62 60,10.122 L60.844,11.144 C63.586,8.879 65.615,7.411 67.12,6.463" id="Fill-10" fill="#2962FF"></path>
                <g id="Group-14" transform="translate(68.000000, 0.828000)">
                    <mask id="mask-4" fill="white">
                        <use xlink:href="#path-3"></use>
                    </mask>
                    <g id="Clip-13"></g>
                    <path d="M3.90975,7.69053304 C6.03375,7.65553304 7.72575,5.90553304 7.69075,3.78153304 C7.65675,1.70853304 5.98375,0.03553304 3.90975,0.000533039989 C1.78575,-0.03446696 0.03575,1.65853304 0.00075,3.78153304 C-0.00025,3.82453304 -0.00025,3.86653304 0.00075,3.90953304 C0.03575,6.03353304 1.78575,7.72553304 3.90975,7.69053304" id="Fill-12" fill="#2962FF" mask="url(#mask-4)"></path>
                </g>
            </g>
        </g>
    </g>
</svg>