<svg xmlns="http://www.w3.org/2000/svg" xmlns:xlink="http://www.w3.org/1999/xlink" width="74" height="86" viewBox="0 0 74 86">
    <defs>
        <path id="a" d="M0 0h73.09v85.73H0z"/>
    </defs>
    <g fill="none" fill-rule="evenodd">
        <mask id="b" fill="#fff">
            <use xlink:href="#a"/>
        </mask>
        <path fill="#2962FF" d="M6.179 48.14l-1.562.23c.094.55.204 1.102.327 1.649l1.53-.383a31.35 31.35 0 0 1-.295-1.495zm30.366-19.108c7.629 0 13.835 6.204 13.835 13.832 0 7.63-6.206 13.836-13.835 13.836-7.628 0-13.834-6.207-13.834-13.837 0-7.627 6.206-13.831 13.834-13.831zm0 28.936c8.329 0 15.106-6.776 15.106-15.105 0-8.327-6.777-15.102-15.106-15.102-8.33 0-15.104 6.775-15.104 15.103 0 8.329 6.775 15.105 15.104 15.105zm-23.488 7.206c.387.406.783.803 1.187 1.188l1.06-1.17a31.337 31.337 0 0 1-1.077-1.08l-1.17 1.063zM6.3 54.494c.2.523.417 1.042.644 1.551l1.425-.675c-.206-.464-.4-.934-.583-1.407l-1.486.532zm2.853 5.672c.297.472.61.938.934 1.396l1.268-.942a31.385 31.385 0 0 1-.85-1.267l-1.352.813zM55.23 16.4a32.662 32.662 0 0 0-1.397-.935l-.813 1.354c.43.273.854.556 1.268.848l.942-1.268zm16.59 27.214c-.401 19.11-16.071 34.532-35.276 34.532h-.636v6.284l-9.96-9.959 9.96-9.96v6.287h.636c15.15 0 27.523-12.128 27.922-27.184h-1.271C62.813 57.454 51.87 68.752 37.97 69.49l-.79.041v-5.067c0-.508-.301-.962-.77-1.154a1.249 1.249 0 0 0-1.364.268L24.154 74.472l10.89 10.89a1.242 1.242 0 0 0 1.366.27c.468-.194.77-.647.77-1.154v-5.061l.724-.026c9.46-.348 18.31-4.305 24.92-11.145 6.45-6.675 10.08-15.397 10.266-24.632h-1.27zM35.909 16.2v5.064a1.252 1.252 0 0 0 2.137.884l10.89-10.893L38.047.367A1.237 1.237 0 0 0 37.164 0c-.166 0-.33.033-.486.098a1.246 1.246 0 0 0-.77 1.153v5.06l-.721.027c-9.461.346-18.312 4.304-24.92 11.143C3.816 24.159.187 32.88 0 42.114h1.272c.4-19.11 16.069-34.53 35.273-34.53h.636V1.298l1.28 1.28 8.149 8.148.53.53-.53.53-8.15 8.15-1.28 1.282v-6.286h-.635c-15.15 0-27.522 12.126-27.922 27.182h1.27c.384-13.84 11.326-25.137 25.227-25.872l.789-.041zm-18.05 53.128c.458.325.924.637 1.397.936l.813-1.355a31.51 31.51 0 0 1-1.27-.85l-.94 1.27zm25.097-29.477l-.898-.898-6.471 6.474-.53.53-.53-.53-3.494-3.493-.898.898 4.922 4.92 7.899-7.901zm17.077-19.296c-.382-.405-.78-.802-1.187-1.189l-1.061 1.17c.369.352.729.712 1.079 1.079l1.169-1.06zm3.905 5.006c-.298-.47-.611-.937-.935-1.396l-1.267.942c.29.413.575.837.848 1.268l1.354-.814zm2.852 5.67a32.731 32.731 0 0 0-.643-1.55l-1.427.678c.206.463.4.933.584 1.405l1.486-.532zm.124 6.355l1.562-.23a32.647 32.647 0 0 0-.327-1.648l-1.532.383c.112.497.21.997.297 1.495z" mask="url(#b)"/>
    </g>
</svg>
