<svg xmlns="http://www.w3.org/2000/svg" width="62" height="79" viewBox="0 0 62 79">
    <path fill="#2962FF" fill-rule="evenodd" d="M19.476 57.217h4.364v-4.362h-4.364v4.362zm-1.268 1.27h6.899v-6.9h-6.899v6.9zm23.839-45.35H1.269V6.122a4.859 4.859 0 0 1 4.853-4.855h31.074a4.858 4.858 0 0 1 4.851 4.855v7.013zM1.269 63.77h40.778V14.403H1.269v49.368zm40.778 8.276a4.855 4.855 0 0 1-4.851 4.848H6.122a4.855 4.855 0 0 1-4.853-4.848V65.04h40.778v7.008zM37.196 0H6.122A6.13 6.13 0 0 0 0 6.123v65.924c0 3.372 2.746 6.116 6.122 6.116h31.074a6.125 6.125 0 0 0 6.119-6.116V6.123A6.128 6.128 0 0 0 37.196 0zM20.517 7.836h1.575V6.568h-1.575v1.268zm-1.041 28.117h4.364V31.59h-4.364v4.363zm-1.269 1.268h6.9v-6.899h-6.9v6.9zM31.13 57.218h4.364v-4.362H31.13v4.362zm-1.268 1.268h6.9v-6.899h-6.9v6.9zm1.268-33.165h4.364v-4.363H31.13v4.363zm-1.268 1.268h6.9V19.69h-6.9v6.9zm18.183 26.536h13.258v-1.268H48.045v1.268zm0-16.083h13.258v-1.269H48.045v1.27zm0 5.36h13.258v-1.268H48.045v1.268zm0-16.083h13.258V25.05H48.045v1.27zm0 5.361h13.258v-1.269H48.045v1.27zm0-10.722h13.258V19.69H48.045v1.268zm0 26.805h13.258v-1.269H48.045v1.27zm0 10.723h13.258v-1.269H48.045v1.27zM7.823 57.218h4.363v-4.362H7.823v4.362zm-1.269 1.268h6.9v-6.899h-6.9v6.9zm1.269-22.533h4.362V31.59H7.823v4.363zm-1.269 1.268h6.899v-6.899H6.554v6.9zm8.939 34.386h11.621V70.34H15.493v1.268zm3.983-46.286h4.364v-4.363h-4.364v4.363zm-1.268 1.268h6.899V19.69h-6.899v6.9zM7.823 25.321h4.363v-4.363H7.823v4.363zM6.554 26.59h6.9V19.69h-6.9v6.9z"/>
</svg>
