<svg xmlns="http://www.w3.org/2000/svg" xmlns:xlink="http://www.w3.org/1999/xlink" width="178" height="37" viewBox="0 0 178 37">
    <defs>
        <path id="a" d="M0 37.818h177.968V.983H0z"/>
    </defs>
    <g fill="none" fill-rule="evenodd">
        <path fill="#A8AFB2" d="M113.815 17.016h.66v-5.62h-.66zM117.979 11.395h.833l3.22 4.667h.017v-4.667h.66v5.62h-.833l-3.22-4.667h-.017v4.667h-.66zM126.213 11.395h.833l3.22 4.667h.017v-4.667h.66v5.62h-.833l-3.22-4.667h-.017v4.667h-.66z"/>
        <g transform="translate(0 -.801)">
            <path fill="#A8AFB2" d="M137.033 17.34a2.109 2.109 0 0 0 1.588-.682c.192-.212.343-.46.45-.743.107-.282.161-.586.161-.909 0-.322-.054-.626-.16-.908a2.324 2.324 0 0 0-.452-.743 2.109 2.109 0 0 0-1.587-.681c-.324 0-.623.06-.892.182-.27.121-.502.288-.695.5-.194.212-.345.46-.453.742-.106.282-.16.586-.16.908 0 .323.054.627.16.91.108.282.259.53.453.741.193.212.425.379.695.5.27.122.568.182.892.182m0 .62c-.424 0-.813-.074-1.167-.223a2.798 2.798 0 0 1-.92-.615 2.761 2.761 0 0 1-.604-.936 3.161 3.161 0 0 1-.217-1.179c0-.423.073-.816.217-1.179.144-.362.346-.674.605-.936.26-.261.566-.467.92-.615a2.998 2.998 0 0 1 1.166-.223c.424 0 .813.076 1.167.223.354.148.66.354.919.615.26.262.46.574.605.936.143.363.216.756.216 1.18 0 .423-.073.816-.216 1.178a2.744 2.744 0 0 1-1.524 1.551 2.982 2.982 0 0 1-1.167.223M142.36 12.197h.746l1.713 4.62h.016l1.767-4.62h.7l-2.177 5.62h-.636zM151.788 13.054h-.015l-1.155 2.762h2.27l-1.1-2.762zm-.298-.858h.62l2.366 5.62h-.77l-.566-1.382h-2.781l-.574 1.382h-.746l2.45-5.62zM160.345 12.816h-1.838v5h-.66v-5h-1.84v-.619h4.338z"/>
            <mask id="b" fill="#fff">
                <use xlink:href="#a"/>
            </mask>
            <path fill="#A8AFB2" d="M163.244 17.816h.66v-5.62h-.66zM166.646 12.197h.746l1.713 4.62h.017l1.766-4.62h.7l-2.176 5.62h-.637zM174.33 12.197h3.498v.619h-2.837v1.762h2.648v.62h-2.648v1.999h2.977v.62h-3.637zM116.455 22.644a.979.979 0 0 0-.44-.394 1.399 1.399 0 0 0-.575-.123c-.146 0-.29.02-.431.056a1.296 1.296 0 0 0-.382.166.824.824 0 0 0-.372.722c0 .128.02.24.059.337a.704.704 0 0 0 .192.267c.089.08.21.154.361.223.152.068.338.138.558.205.216.07.423.143.625.224.201.078.38.18.535.3.154.121.277.274.368.456.091.184.138.412.138.688 0 .28-.055.523-.165.73-.11.206-.255.377-.436.51a1.868 1.868 0 0 1-.625.303 2.694 2.694 0 0 1-1.218.056 2.212 2.212 0 0 1-.467-.135c-.15-.061-.29-.14-.42-.238a1.415 1.415 0 0 1-.338-.361l.565-.47c.12.207.288.363.504.47a1.515 1.515 0 0 0 1.11.094c.145-.041.275-.104.39-.185.115-.083.21-.183.282-.306a.796.796 0 0 0 .11-.42.909.909 0 0 0-.085-.425.784.784 0 0 0-.268-.283c-.12-.079-.272-.15-.455-.214-.184-.062-.399-.137-.645-.222a3.994 3.994 0 0 1-.55-.218 1.653 1.653 0 0 1-.436-.302 1.285 1.285 0 0 1-.291-.429 1.54 1.54 0 0 1-.105-.599c0-.27.052-.506.156-.706.106-.2.247-.37.425-.504a1.91 1.91 0 0 1 .605-.305c.226-.07.46-.104.706-.104.315 0 .602.05.862.148.258.097.49.268.695.511l-.542.477zM122.89 26.794a2.109 2.109 0 0 0 1.588-.682c.192-.212.343-.46.45-.742.107-.283.16-.586.16-.909 0-.323-.053-.626-.16-.909a2.324 2.324 0 0 0-.45-.742 2.109 2.109 0 0 0-1.589-.682c-.324 0-.622.06-.891.182-.27.122-.502.288-.695.5-.194.213-.345.46-.453.742-.106.283-.16.586-.16.909 0 .323.054.626.16.909.108.282.259.53.453.742.193.212.425.378.695.5.27.122.567.182.891.182m0 .62c-.423 0-.813-.074-1.166-.223a2.798 2.798 0 0 1-.92-.616 2.761 2.761 0 0 1-.604-.936 3.161 3.161 0 0 1-.217-1.178c0-.423.073-.817.217-1.18.144-.361.346-.673.604-.935.26-.262.567-.467.92-.615a2.998 2.998 0 0 1 1.166-.223c.425 0 .814.075 1.168.223.353.148.66.353.918.615.26.262.461.574.605.936.144.362.217.756.217 1.179 0 .423-.073.817-.217 1.178a2.744 2.744 0 0 1-1.523 1.552 2.982 2.982 0 0 1-1.168.222M128.979 21.651h.66v5h2.545v.62h-3.205zM139.201 25.127c0 .308-.038.598-.114.874a2.05 2.05 0 0 1-.36.727 1.745 1.745 0 0 1-.649.498c-.268.126-.592.188-.975.188-.382 0-.706-.062-.974-.188a1.745 1.745 0 0 1-.648-.498 2.033 2.033 0 0 1-.362-.727 3.265 3.265 0 0 1-.113-.874v-3.475h.66v3.38c0 .228.023.448.07.66.048.21.126.399.236.563.109.164.256.294.44.392.183.098.413.147.691.147.278 0 .508-.049.692-.147.184-.098.33-.228.44-.392.11-.164.188-.352.235-.564a2.97 2.97 0 0 0 .071-.658v-3.381h.66v3.475zM146.413 22.27h-1.838v5h-.66v-5h-1.839v-.618h4.337zM149.313 27.27h.66v-5.62h-.66zM156.062 26.794a2.109 2.109 0 0 0 1.588-.682c.192-.212.343-.46.451-.742.106-.283.16-.586.16-.909 0-.323-.054-.626-.16-.909a2.324 2.324 0 0 0-.452-.742 2.109 2.109 0 0 0-1.587-.682c-.324 0-.623.06-.892.182-.27.122-.502.288-.695.5-.194.213-.345.46-.452.742-.107.283-.16.586-.16.909 0 .323.053.626.16.909.107.282.258.53.452.742.193.212.425.378.695.5.27.122.568.182.892.182m0 .62c-.424 0-.813-.074-1.167-.223a2.798 2.798 0 0 1-.92-.616 2.761 2.761 0 0 1-.604-.936 3.161 3.161 0 0 1-.216-1.178c0-.423.072-.817.216-1.18.144-.361.346-.673.605-.935.26-.262.566-.467.92-.615a2.998 2.998 0 0 1 1.166-.223c.424 0 .813.075 1.167.223.354.148.66.353.919.615.26.262.46.574.605.936.144.362.216.756.216 1.179 0 .423-.072.817-.216 1.178a2.744 2.744 0 0 1-1.524 1.552 2.982 2.982 0 0 1-1.167.222M162.151 21.651h.833l3.221 4.667h.017v-4.667h.66v5.62h-.834l-3.22-4.667h-.017v4.667h-.66zM173.026 22.644a.979.979 0 0 0-.44-.394 1.399 1.399 0 0 0-.574-.123c-.147 0-.29.02-.432.056a1.296 1.296 0 0 0-.382.166.824.824 0 0 0-.372.722c0 .128.02.24.059.337a.704.704 0 0 0 .192.267c.089.08.21.154.361.223.152.068.338.138.558.205.216.07.423.143.625.224.201.078.38.18.535.3.154.121.277.274.368.456.091.184.138.412.138.688 0 .28-.055.523-.165.73-.11.206-.255.377-.436.51a1.868 1.868 0 0 1-.625.303 2.694 2.694 0 0 1-1.218.056 2.212 2.212 0 0 1-.467-.135c-.15-.061-.29-.14-.42-.238a1.415 1.415 0 0 1-.338-.361l.565-.47c.121.207.288.363.504.47a1.515 1.515 0 0 0 1.111.094c.144-.041.274-.104.39-.185.114-.083.209-.183.282-.306a.796.796 0 0 0 .11-.42.909.909 0 0 0-.086-.425.784.784 0 0 0-.268-.283c-.12-.079-.272-.15-.455-.214-.184-.062-.399-.137-.645-.222a3.994 3.994 0 0 1-.55-.218 1.653 1.653 0 0 1-.436-.302 1.285 1.285 0 0 1-.291-.429 1.54 1.54 0 0 1-.105-.599c0-.27.052-.506.156-.706.106-.2.247-.37.425-.504a1.91 1.91 0 0 1 .605-.305c.226-.07.46-.104.707-.104.314 0 .6.05.86.148.26.097.492.268.696.511l-.542.477z" mask="url(#b)"/>
            <path fill="#2962FF" d="M41.417 34.18a1.512 1.512 0 0 1-.684.564c-.287.12-.61.19-.961.21-.356.02-.717.03-1.081.03h-2.052v-3.94h1.727c.377 0 .765.01 1.164.03.385.02.745.096 1.07.23.32.132.575.328.778.598.199.267.3.662.3 1.173 0 .477-.088.848-.261 1.105zm-4.778-9.192h2.052c.255 0 .533.01.837.03.296.022.57.087.815.198.24.109.445.281.607.515.16.236.24.578.24 1.022 0 .458-.083.814-.25 1.06-.17.251-.375.427-.628.537a2.41 2.41 0 0 1-.806.198c-.286.021-.54.03-.754.03h-2.113v-3.59zm7.596 6.086a3.63 3.63 0 0 0-.99-.87 3.41 3.41 0 0 0-.345-.185l-.66-.306.602-.412.102-.069c.152-.104.277-.2.374-.294l.181-.173c.2-.188.355-.384.465-.586a3.26 3.26 0 0 0 .387-1.202c.019-.187.03-.352.03-.492a4.344 4.344 0 0 0-.332-1.614 3.999 3.999 0 0 0-.51-.86 3.349 3.349 0 0 0-.85-.76 3.777 3.777 0 0 0-.939-.419 6.683 6.683 0 0 0-.995-.204 9.045 9.045 0 0 0-.946-.074c-.298-.008-.557-.011-.773-.011h-5.568V37.53h5.578c.135 0 .354-.003.652-.01.3-.008.632-.028.993-.064a8.85 8.85 0 0 0 1.1-.174c.376-.086.708-.204.99-.353.585-.294 1.1-.74 1.542-1.332.443-.592.668-1.344.668-2.236 0-.388-.062-.788-.183-1.184a3.458 3.458 0 0 0-.573-1.104zm25.852.434c0 .369-.008.686-.031.954-.02.262-.05.492-.09.689a2.835 2.835 0 0 1-.136.484 1.582 1.582 0 0 1-.21.377 2.305 2.305 0 0 1-.676.698 3.025 3.025 0 0 1-.797.38c-.273.08-.527.127-.758.14-.233.014-.412.021-.533.021-.755 0-1.347-.11-1.76-.327-.417-.224-.716-.5-.914-.845a2.985 2.985 0 0 1-.365-1.151 11.6 11.6 0 0 1-.07-1.254v-9.131h-3.312v8.964c0 .707.038 1.358.111 1.933.076.59.295 1.183.65 1.766a4.387 4.387 0 0 0 1.266 1.375 6.84 6.84 0 0 0 1.511.79 6.748 6.748 0 0 0 1.525.365c.51.055.935.082 1.297.082.748 0 1.514-.098 2.277-.29a6.108 6.108 0 0 0 2.1-.98c.628-.456 1.15-1.07 1.548-1.826.398-.757.6-1.707.6-2.825v-9.354h-3.233v8.965zm10.528 3.393v-3.836h6.26v-2.63h-6.26v-3.263h6.687v-2.63h-10v14.989H87.34V34.9h-6.724zM51.433 22.543h-3.375V37.53h9.673v-2.69h-6.298V22.543z" mask="url(#b)"/>
            <path fill="#111114" d="M35.046 10.007L42.56 1.43h-4.854L30.848 9.03v-.044l-3.86 4.251v5.56h3.86v-3.985l1.612-1.728 5.103 5.713h5.21zM10.931 1.43v8.163H3.86V1.43L0 5.795v13.003h3.86v-5.686h7.071v5.686h3.883V1.43zM18.928 5.365v13.433h3.978V.983zM83.264 5.365v13.433h3.978V.983zM54.756 1.43h-2.042L44.52 18.798h4.212l1.562-3.581 1.198-2.827 2.232-4.955 2.25 4.95 1.203 2.837 1.586 3.576h4.21z" mask="url(#b)"/>
            <path fill="#A8AFB2" d="M100.657 1.43l-.48.527V37.8l.49-.54V1.43z" mask="url(#b)"/>
            <path fill="#111114" d="M76.618 13.617c2.126-1.066 3.203-3.03 3.203-5.846 0-1.908-.662-6.342-6.793-6.342h-4.404l-3.216 3.543h7.078c2.798 0 3.217 1.917 3.217 3.059 0 1.973-1.302 3.06-3.665 3.06h-6.63v7.707h3.953v-4.307h2.795c.163 0 .338 0 .498-.011l3.194 4.318h4.775l-4.005-5.18z" mask="url(#b)"/>
        </g>
    </g>
</svg>
