<svg xmlns="http://www.w3.org/2000/svg" xmlns:xlink="http://www.w3.org/1999/xlink" width="59" height="79" viewBox="0 0 59 79">
    <defs>
        <path id="a" d="M0 0h58.394v78.236H0z"/>
    </defs>
    <g fill="none" fill-rule="evenodd">
        <mask id="b" fill="#fff">
            <use xlink:href="#a"/>
        </mask>
        <path fill="#2962FF" d="M29.198 4.808a.636.636 0 1 0 0 1.272.636.636 0 0 0 0-1.272zm27.926 72.157H1.271V6.079h4.141v66.745h47.571V6.079h4.141v70.886zM6.682 6.079H18.04v9.624h22.315V6.079h11.358v65.475H6.683V6.079zm12.628.002h5.712v-.635a4.18 4.18 0 0 1 4.176-4.176 4.18 4.18 0 0 1 4.175 4.176v.635h5.713v8.35H19.31v-8.35zm15.33-1.273l-.133-.582C33.943 1.776 31.711 0 29.198 0c-2.514 0-4.745 1.777-5.308 4.225l-.133.583H0v73.428h58.394V4.808H34.64zm-.075 39.455h1.578v-1.271h-1.578v1.27zm-12.314 0h1.578v-1.271h-1.578v1.27zm6.157 0h1.58v-1.271h-1.58v1.27zm12.508-14.817h4.886V24.56h-4.886v4.886zm-14.163 0h4.887V24.56h-4.887v4.886zM12.593 47.61h33.21v-7.965h-33.21v7.965zm14.16 15.085h4.887v-4.887h-4.887v4.887zm14.163 0h4.886v-4.887h-4.886v4.887zm-28.324 0h4.887v-4.887h-4.887v4.887zm0-33.25h4.887V24.56h-4.887v4.886zm27.053-3.077h-6.733v-3.08h-7.429v3.08H18.75v-3.08h-7.428v7.429h7.428v-3.078h6.733v3.078h3.08v7.657h-17.24V48.88h17.24v7.657h-3.08v3.079H18.75v-3.08h-7.428v7.429h7.428v-3.078h6.733v3.078h7.43v-3.078h6.732v3.078h7.428v-7.428h-7.428v3.079h-6.733v-3.08h-3.079v-7.656h17.24V38.374h-17.24v-7.657h3.08v-3.078h6.732v3.078h7.428v-7.428h-7.428v3.079z" mask="url(#b)"/>
    </g>
</svg>
