<svg xmlns="http://www.w3.org/2000/svg" xmlns:xlink="http://www.w3.org/1999/xlink" width="75" height="85" viewBox="0 0 75 85">
    <defs>
        <path id="a" d="M0 0h75.003v84.392H0z"/>
    </defs>
    <g fill="none" fill-rule="evenodd">
        <mask id="b" fill="#fff">
            <use xlink:href="#a"/>
        </mask>
        <path fill="#2962FF" d="M46.724 52.118l-.806.749-.402-1.023a5.14 5.14 0 0 0-4.793-3.267h-6.442a5.104 5.104 0 0 0-3.639 1.509 5.118 5.118 0 0 0-1.153 1.758l-.403 1.023-.805-.749c-2.76-2.567-4.343-6.184-4.343-9.921 0-7.48 6.085-13.565 13.564-13.565 7.48 0 13.565 6.085 13.565 13.565 0 3.737-1.583 7.354-4.343 9.921zm-2.537 1.869a13.549 13.549 0 0 1-6.685 1.775c-2.333 0-4.643-.614-6.684-1.775l-.436-.248.063-.497a3.83 3.83 0 0 1 1.095-2.258 3.85 3.85 0 0 1 2.741-1.136h6.442c1.031 0 2.005.404 2.743 1.136a3.834 3.834 0 0 1 1.094 2.257l.062.498-.435.248zm-6.685-26.625c-8.18 0-14.836 6.654-14.836 14.835 0 8.18 6.656 14.836 14.836 14.836 8.181 0 14.835-6.656 14.835-14.836 0-8.181-6.654-14.835-14.835-14.835zm-.636 39.089h1.271v-5.889h-1.271v5.889zm.001-42.62h1.271v-5.888h-1.271v5.888zm.636 19.909a4.07 4.07 0 0 1-4.067-4.066 4.071 4.071 0 0 1 4.067-4.067 4.07 4.07 0 0 1 4.064 4.067 4.07 4.07 0 0 1-4.064 4.066zm0-9.404a5.345 5.345 0 0 0-5.338 5.338 5.345 5.345 0 0 0 5.338 5.338 5.343 5.343 0 0 0 5.335-5.338 5.343 5.343 0 0 0-5.335-5.338zM53.089 51.93l5.1 2.944.635-1.1-5.1-2.944-.635 1.1zm19.856 10.731a5.883 5.883 0 0 1-5.079 2.931 5.86 5.86 0 0 1 .01-11.721 5.85 5.85 0 0 1 2.923.787 5.81 5.81 0 0 1 2.731 3.558 5.821 5.821 0 0 1-.585 4.445zm-1.51-9.104a7.129 7.129 0 0 0-3.559-.957 7.155 7.155 0 0 0-6.18 3.567 7.13 7.13 0 0 0 6.17 10.695 7.152 7.152 0 0 0 6.178-3.565 7.08 7.08 0 0 0 .713-5.41 7.084 7.084 0 0 0-3.322-4.33zm1.119-18.189l-1.243.268c.091.471.172.945.243 1.418l1.261-.161a36.516 36.516 0 0 0-.261-1.525zm-7.611-15.777a5.845 5.845 0 0 1 2.923-.787 5.878 5.878 0 0 1 5.079 2.932 5.821 5.821 0 0 1 .586 4.444 5.821 5.821 0 0 1-2.731 3.558 5.861 5.861 0 0 1-2.924.786 5.88 5.88 0 0 1-5.079-2.929 5.868 5.868 0 0 1 2.146-8.004zm-3.246 8.639a7.155 7.155 0 0 0 6.179 3.565 7.133 7.133 0 0 0 3.559-.956 7.085 7.085 0 0 0 3.323-4.329 7.083 7.083 0 0 0-.713-5.41 7.151 7.151 0 0 0-6.179-3.566 7.123 7.123 0 0 0-3.559.957c-3.404 1.965-4.575 6.334-2.61 9.739zm11.119 19.264l-1.262-.16c-.07.474-.151.948-.242 1.417l1.242.268c.098-.503.185-1.012.262-1.525zm-19.728-15.03l.636 1.1 5.1-2.944-.635-1.101-5.101 2.945zm20.116 9.729c0-.258-.002-.516-.007-.773l-1.27.054a43.207 43.207 0 0 1 0 1.438l1.27.055c.006-.257.007-.515.007-.774zM41.645 81.407a5.82 5.82 0 0 1-4.142 1.716h-.002a5.866 5.866 0 0 1-5.859-5.859 5.865 5.865 0 0 1 5.858-5.858 5.866 5.866 0 0 1 5.86 5.858 5.823 5.823 0 0 1-1.715 4.143zm-4.144-11.272c-3.931 0-7.13 3.198-7.13 7.129 0 3.931 3.199 7.129 7.129 7.129a7.08 7.08 0 0 0 5.043-2.088 7.083 7.083 0 0 0 2.087-5.041c0-3.93-3.198-7.128-7.129-7.129zm23.436-54.883a35.433 35.433 0 0 0-1.191-.988l-.769 1.011c.377.3.747.607 1.106.918l.854-.941zm-5.602-2.51l.681-1.073c-.22-.133-.442-.264-.667-.395a44.363 44.363 0 0 0-.672-.378l-.589 1.127a38.637 38.637 0 0 1 1.247.719zM16.179 53.774l.636 1.1 5.099-2.944-.635-1.1-5.1 2.944zm3.49 17.877l-.681 1.072a31.52 31.52 0 0 0 1.34.774l.588-1.127a41.902 41.902 0 0 1-1.247-.719zm-5.601-2.51c.387.336.786.666 1.19.989l.77-1.012a34.32 34.32 0 0 1-1.107-.918l-.853.941zM50.566 8.963a37.219 37.219 0 0 0-1.451-.536l-.389 1.21c.451.156.902.323 1.348.499l.492-1.173zM2.06 21.734a5.878 5.878 0 0 1 5.078-2.931c1.021 0 2.032.272 2.924.786a5.866 5.866 0 0 1 2.144 8.003 5.88 5.88 0 0 1-5.08 2.931 5.858 5.858 0 0 1-2.922-.785 5.823 5.823 0 0 1-2.73-3.559 5.817 5.817 0 0 1 .586-4.445zm1.509 9.104a7.127 7.127 0 0 0 3.557.955 7.156 7.156 0 0 0 6.181-3.565c1.965-3.404.794-7.774-2.609-9.74a7.142 7.142 0 0 0-3.56-.956 7.153 7.153 0 0 0-6.179 3.566 7.08 7.08 0 0 0-.713 5.41 7.086 7.086 0 0 0 3.323 4.33zm55.413 38.275l.77 1.013c.402-.32.798-.65 1.189-.988l-.853-.943c-.358.311-.728.617-1.106.918zm-4.261 2.901c-.209.12-.417.238-.627.353l.589 1.126a32.79 32.79 0 0 0 1.339-.773l-.682-1.073c-.205.124-.411.246-.619.367zM24.44 75.43c.477.189.962.368 1.45.536l.389-1.21a36.25 36.25 0 0 1-1.348-.499l-.491 1.173zm24.291-.676l.389 1.21c.486-.168.97-.348 1.451-.537l-.492-1.172a37.7 37.7 0 0 1-1.348.499zM16.023 15.279l-.771-1.012c-.4.319-.798.649-1.189.988l.853.943c.361-.312.73-.619 1.107-.919zm10.25-5.64l-.389-1.209c-.486.167-.971.347-1.451.536l.492 1.173c.447-.177.898-.344 1.348-.5zm11.229-8.368a5.865 5.865 0 0 1 5.859 5.859 5.865 5.865 0 0 1-5.859 5.858 5.865 5.865 0 0 1-5.858-5.858 5.865 5.865 0 0 1 5.858-5.859zm0 12.988a7.137 7.137 0 0 0 7.129-7.129c0-3.931-3.198-7.13-7.129-7.13-3.931 0-7.13 3.199-7.13 7.13s3.199 7.129 7.13 7.129zm-27.44 50.545a5.858 5.858 0 0 1-2.924.786 5.88 5.88 0 0 1-5.079-2.93 5.867 5.867 0 0 1 2.144-8.004 5.86 5.86 0 0 1 2.923-.785 5.882 5.882 0 0 1 5.08 2.93 5.866 5.866 0 0 1-2.144 8.003zm3.245-8.638A7.16 7.16 0 0 0 7.126 52.6c-1.245 0-2.475.33-3.558.955-3.405 1.966-4.575 6.335-2.61 9.74a7.155 7.155 0 0 0 6.18 3.565c1.245 0 2.476-.33 3.56-.956 3.403-1.966 4.574-6.334 2.609-9.738zM3.693 35.642l-1.242-.268A34.69 34.69 0 0 0 2.19 36.9l1.261.16c.071-.476.152-.95.242-1.418zM1.799 42.2c.001.258.004.516.01.772l1.269-.053a43.102 43.102 0 0 1 0-1.439l-1.27-.054c-.006.257-.009.515-.009.774zm1.894 6.558a34.36 34.36 0 0 1-.241-1.418l-1.262.16c.076.509.163 1.018.261 1.524l1.242-.266zM16.179 30.62l5.1 2.944.635-1.1-5.099-2.945-.636 1.101zm4.106-18.241c.208-.12.416-.238.625-.353l-.588-1.127a34.903 34.903 0 0 0-1.339.774l.681 1.072c.206-.124.413-.246.621-.366z" mask="url(#b)"/>
    </g>
</svg>
