<?xml version="1.0" standalone="no"?>
<!DOCTYPE svg PUBLIC "-//W3C//DTD SVG 20010904//EN"
 "http://www.w3.org/TR/2001/REC-SVG-20010904/DTD/svg10.dtd">
<svg version="1.0" xmlns="http://www.w3.org/2000/svg"
 width="399.000000pt" height="399.000000pt" viewBox="0 0 399.000000 399.000000"
 preserveAspectRatio="xMidYMid meet">
<metadata>
Created by potrace 1.11, written by Peter Selinger 2001-2013
</metadata>
<g transform="translate(0.000000,399.000000) scale(0.100000,-0.100000)"
fill="#000000" stroke="none">
<path d="M0 1995 l0 -1995 1995 0 1995 0 0 1995 0 1995 -1995 0 -1995 0 0
-1995z m1332 -199 c41 -20 78 -82 78 -130 0 -35 -24 -80 -52 -100 -12 -9 -20
-17 -17 -19 2 -2 16 -11 31 -20 66 -41 77 -150 22 -209 -48 -51 -78 -58 -244
-58 l-150 0 0 281 0 281 148 -4 c115 -3 155 -8 184 -22z m338 -206 l0 -230
118 0 117 0 0 -48 -1 -47 -182 -3 -182 -2 0 280 0 280 65 0 65 0 0 -230z m460
24 l0 -206 29 -29 c25 -24 37 -29 80 -29 42 0 56 5 83 29 l33 29 4 206 3 206
59 0 59 0 0 -208 c0 -199 -1 -211 -23 -253 -36 -67 -100 -103 -195 -108 -124
-6 -206 32 -243 113 -16 36 -19 67 -19 249 l0 207 65 0 65 0 0 -206z m870 151
l0 -54 -122 -3 -123 -3 -1 -52 0 -53 118 0 119 0 -3 -52 -3 -53 -106 3 c-126
3 -132 -1 -127 -80 l3 -53 123 -3 122 -3 0 -49 0 -50 -190 0 -190 0 0 280 0
280 190 0 190 0 0 -55z"/>
<path d="M1122 1658 l3 -63 64 3 c75 3 91 13 91 57 0 48 -25 65 -99 65 l-62 0
3 -62z"/>
<path d="M1120 1431 l0 -71 70 0 c80 0 110 19 110 68 0 44 -27 61 -108 68
l-72 7 0 -72z"/>
</g>
</svg>
